STARTFONT 2.1
COMMENT
COMMENT Converted from OpenType font "JF-Dot-k12x10.ttf" by "otf2bdf 3.0".
COMMENT
FONT -FreeType-JF Dot k12x10-Medium-R-Normal--17-120-100-100-P-122-ISO10646-1
SIZE 12 100 100
FONTBOUNDINGBOX 12 10 0 -1
STARTPROPERTIES 19
FOUNDRY "FreeType"
FAMILY_NAME "JF Dot k12x10"
WEIGHT_NAME "Medium"
SLANT "R"
SETWIDTH_NAME "Normal"
ADD_STYLE_NAME ""
PIXEL_SIZE 17
POINT_SIZE 120
RESOLUTION_X 100
RESOLUTION_Y 100
SPACING "P"
AVERAGE_WIDTH 122
CHARSET_REGISTRY "ISO10646"
CHARSET_ENCODING "1"
FONT_ASCENT 8
FONT_DESCENT 1
COPYRIGHT "-FreeType-JF Dot k12x10-Medium-R-Normal--17-120-100-100-P-122-ISO10646-1"
_OTF_FONTFILE "JF-Dot-k12x10.ttf"
_OTF_PSNAME "JF-Dot-k12x10"
ENDPROPERTIES
CHARS 7133
STARTCHAR 0020
ENCODING 32
SWIDTH 360 0
DWIDTH 6 0
BBX 5 10 0 -1
BITMAP
00
00
00
00
00
00
00
00
00
00
ENDCHAR
STARTCHAR 0021
ENCODING 33
SWIDTH 360 0
DWIDTH 6 0
BBX 5 10 0 -1
BITMAP
20
20
20
20
20
20
00
60
60
00
ENDCHAR
STARTCHAR 0022
ENCODING 34
SWIDTH 360 0
DWIDTH 6 0
BBX 5 10 0 -1
BITMAP
50
50
A0
00
00
00
00
00
00
00
ENDCHAR
STARTCHAR 0023
ENCODING 35
SWIDTH 360 0
DWIDTH 6 0
BBX 5 10 0 -1
BITMAP
50
50
F8
50
50
50
F8
50
50
00
ENDCHAR
STARTCHAR 0024
ENCODING 36
SWIDTH 360 0
DWIDTH 6 0
BBX 5 10 0 -1
BITMAP
20
78
A0
A0
70
28
28
F0
20
00
ENDCHAR
STARTCHAR 0025
ENCODING 37
SWIDTH 360 0
DWIDTH 6 0
BBX 5 10 0 -1
BITMAP
00
C0
C8
10
20
40
98
18
00
00
ENDCHAR
STARTCHAR 0026
ENCODING 38
SWIDTH 360 0
DWIDTH 6 0
BBX 5 10 0 -1
BITMAP
00
40
A0
A0
40
A8
90
90
68
00
ENDCHAR
STARTCHAR 0027
ENCODING 39
SWIDTH 360 0
DWIDTH 6 0
BBX 5 10 0 -1
BITMAP
30
20
40
00
00
00
00
00
00
00
ENDCHAR
STARTCHAR 0028
ENCODING 40
SWIDTH 360 0
DWIDTH 6 0
BBX 5 10 0 -1
BITMAP
08
10
10
20
20
20
10
10
08
00
ENDCHAR
STARTCHAR 0029
ENCODING 41
SWIDTH 360 0
DWIDTH 6 0
BBX 5 10 0 -1
BITMAP
80
40
40
20
20
20
40
40
80
00
ENDCHAR
STARTCHAR 002A
ENCODING 42
SWIDTH 360 0
DWIDTH 6 0
BBX 5 10 0 -1
BITMAP
00
20
A8
70
20
70
A8
20
00
00
ENDCHAR
STARTCHAR 002B
ENCODING 43
SWIDTH 360 0
DWIDTH 6 0
BBX 5 10 0 -1
BITMAP
00
20
20
20
F8
20
20
20
00
00
ENDCHAR
STARTCHAR 002C
ENCODING 44
SWIDTH 360 0
DWIDTH 6 0
BBX 5 10 0 -1
BITMAP
00
00
00
00
00
00
00
60
40
80
ENDCHAR
STARTCHAR 002D
ENCODING 45
SWIDTH 360 0
DWIDTH 6 0
BBX 5 10 0 -1
BITMAP
00
00
00
00
F8
00
00
00
00
00
ENDCHAR
STARTCHAR 002E
ENCODING 46
SWIDTH 360 0
DWIDTH 6 0
BBX 5 10 0 -1
BITMAP
00
00
00
00
00
00
00
60
60
00
ENDCHAR
STARTCHAR 002F
ENCODING 47
SWIDTH 360 0
DWIDTH 6 0
BBX 5 10 0 -1
BITMAP
00
00
08
10
20
40
80
00
00
00
ENDCHAR
STARTCHAR 0030
ENCODING 48
SWIDTH 360 0
DWIDTH 6 0
BBX 5 10 0 -1
BITMAP
00
20
50
88
88
88
88
50
20
00
ENDCHAR
STARTCHAR 0031
ENCODING 49
SWIDTH 360 0
DWIDTH 6 0
BBX 5 10 0 -1
BITMAP
00
20
60
20
20
20
20
20
70
00
ENDCHAR
STARTCHAR 0032
ENCODING 50
SWIDTH 360 0
DWIDTH 6 0
BBX 5 10 0 -1
BITMAP
00
70
88
08
30
40
80
80
F8
00
ENDCHAR
STARTCHAR 0033
ENCODING 51
SWIDTH 360 0
DWIDTH 6 0
BBX 5 10 0 -1
BITMAP
00
70
88
08
70
08
08
88
70
00
ENDCHAR
STARTCHAR 0034
ENCODING 52
SWIDTH 360 0
DWIDTH 6 0
BBX 5 10 0 -1
BITMAP
00
10
30
50
90
F8
10
10
10
00
ENDCHAR
STARTCHAR 0035
ENCODING 53
SWIDTH 360 0
DWIDTH 6 0
BBX 5 10 0 -1
BITMAP
00
F8
80
80
F0
88
08
88
70
00
ENDCHAR
STARTCHAR 0036
ENCODING 54
SWIDTH 360 0
DWIDTH 6 0
BBX 5 10 0 -1
BITMAP
00
70
88
80
F0
88
88
88
70
00
ENDCHAR
STARTCHAR 0037
ENCODING 55
SWIDTH 360 0
DWIDTH 6 0
BBX 5 10 0 -1
BITMAP
00
F8
88
10
10
20
20
20
20
00
ENDCHAR
STARTCHAR 0038
ENCODING 56
SWIDTH 360 0
DWIDTH 6 0
BBX 5 10 0 -1
BITMAP
00
70
88
88
70
88
88
88
70
00
ENDCHAR
STARTCHAR 0039
ENCODING 57
SWIDTH 360 0
DWIDTH 6 0
BBX 5 10 0 -1
BITMAP
00
70
88
88
88
78
08
88
70
00
ENDCHAR
STARTCHAR 003A
ENCODING 58
SWIDTH 360 0
DWIDTH 6 0
BBX 5 10 0 -1
BITMAP
00
00
60
60
00
00
60
60
00
00
ENDCHAR
STARTCHAR 003B
ENCODING 59
SWIDTH 360 0
DWIDTH 6 0
BBX 5 10 0 -1
BITMAP
00
00
60
60
00
00
60
40
80
00
ENDCHAR
STARTCHAR 003C
ENCODING 60
SWIDTH 360 0
DWIDTH 6 0
BBX 5 10 0 -1
BITMAP
00
08
10
20
40
20
10
08
00
00
ENDCHAR
STARTCHAR 003D
ENCODING 61
SWIDTH 360 0
DWIDTH 6 0
BBX 5 10 0 -1
BITMAP
00
00
00
F8
00
F8
00
00
00
00
ENDCHAR
STARTCHAR 003E
ENCODING 62
SWIDTH 360 0
DWIDTH 6 0
BBX 5 10 0 -1
BITMAP
00
80
40
20
10
20
40
80
00
00
ENDCHAR
STARTCHAR 003F
ENCODING 63
SWIDTH 360 0
DWIDTH 6 0
BBX 5 10 0 -1
BITMAP
00
70
88
88
10
20
00
60
60
00
ENDCHAR
STARTCHAR 0040
ENCODING 64
SWIDTH 360 0
DWIDTH 6 0
BBX 5 10 0 -1
BITMAP
00
70
88
68
A8
A8
E8
88
70
00
ENDCHAR
STARTCHAR 0041
ENCODING 65
SWIDTH 360 0
DWIDTH 6 0
BBX 5 10 0 -1
BITMAP
00
20
50
88
88
F8
88
88
88
00
ENDCHAR
STARTCHAR 0042
ENCODING 66
SWIDTH 360 0
DWIDTH 6 0
BBX 5 10 0 -1
BITMAP
00
F0
88
88
F0
88
88
88
F0
00
ENDCHAR
STARTCHAR 0043
ENCODING 67
SWIDTH 360 0
DWIDTH 6 0
BBX 5 10 0 -1
BITMAP
00
30
48
80
80
80
80
48
30
00
ENDCHAR
STARTCHAR 0044
ENCODING 68
SWIDTH 360 0
DWIDTH 6 0
BBX 5 10 0 -1
BITMAP
00
E0
90
88
88
88
88
90
E0
00
ENDCHAR
STARTCHAR 0045
ENCODING 69
SWIDTH 360 0
DWIDTH 6 0
BBX 5 10 0 -1
BITMAP
00
F8
80
80
F0
80
80
80
F8
00
ENDCHAR
STARTCHAR 0046
ENCODING 70
SWIDTH 360 0
DWIDTH 6 0
BBX 5 10 0 -1
BITMAP
00
F8
80
80
F0
80
80
80
80
00
ENDCHAR
STARTCHAR 0047
ENCODING 71
SWIDTH 360 0
DWIDTH 6 0
BBX 5 10 0 -1
BITMAP
00
70
88
80
80
98
88
88
70
00
ENDCHAR
STARTCHAR 0048
ENCODING 72
SWIDTH 360 0
DWIDTH 6 0
BBX 5 10 0 -1
BITMAP
00
88
88
88
F8
88
88
88
88
00
ENDCHAR
STARTCHAR 0049
ENCODING 73
SWIDTH 360 0
DWIDTH 6 0
BBX 5 10 0 -1
BITMAP
00
70
20
20
20
20
20
20
70
00
ENDCHAR
STARTCHAR 004A
ENCODING 74
SWIDTH 360 0
DWIDTH 6 0
BBX 5 10 0 -1
BITMAP
00
08
08
08
08
08
88
88
70
00
ENDCHAR
STARTCHAR 004B
ENCODING 75
SWIDTH 360 0
DWIDTH 6 0
BBX 5 10 0 -1
BITMAP
00
88
90
A0
C0
A0
90
88
88
00
ENDCHAR
STARTCHAR 004C
ENCODING 76
SWIDTH 360 0
DWIDTH 6 0
BBX 5 10 0 -1
BITMAP
00
80
80
80
80
80
80
80
F8
00
ENDCHAR
STARTCHAR 004D
ENCODING 77
SWIDTH 360 0
DWIDTH 6 0
BBX 5 10 0 -1
BITMAP
00
88
D8
D8
A8
A8
88
88
88
00
ENDCHAR
STARTCHAR 004E
ENCODING 78
SWIDTH 360 0
DWIDTH 6 0
BBX 5 10 0 -1
BITMAP
00
88
C8
C8
A8
A8
98
98
88
00
ENDCHAR
STARTCHAR 004F
ENCODING 79
SWIDTH 360 0
DWIDTH 6 0
BBX 5 10 0 -1
BITMAP
00
70
88
88
88
88
88
88
70
00
ENDCHAR
STARTCHAR 0050
ENCODING 80
SWIDTH 360 0
DWIDTH 6 0
BBX 5 10 0 -1
BITMAP
00
F0
88
88
88
F0
80
80
80
00
ENDCHAR
STARTCHAR 0051
ENCODING 81
SWIDTH 360 0
DWIDTH 6 0
BBX 5 10 0 -1
BITMAP
00
70
88
88
88
88
A8
90
68
00
ENDCHAR
STARTCHAR 0052
ENCODING 82
SWIDTH 360 0
DWIDTH 6 0
BBX 5 10 0 -1
BITMAP
00
F0
88
88
88
F0
A0
90
88
00
ENDCHAR
STARTCHAR 0053
ENCODING 83
SWIDTH 360 0
DWIDTH 6 0
BBX 5 10 0 -1
BITMAP
00
70
88
80
70
08
08
88
70
00
ENDCHAR
STARTCHAR 0054
ENCODING 84
SWIDTH 360 0
DWIDTH 6 0
BBX 5 10 0 -1
BITMAP
00
F8
20
20
20
20
20
20
20
00
ENDCHAR
STARTCHAR 0055
ENCODING 85
SWIDTH 360 0
DWIDTH 6 0
BBX 5 10 0 -1
BITMAP
00
88
88
88
88
88
88
88
70
00
ENDCHAR
STARTCHAR 0056
ENCODING 86
SWIDTH 360 0
DWIDTH 6 0
BBX 5 10 0 -1
BITMAP
00
88
88
88
50
50
50
20
20
00
ENDCHAR
STARTCHAR 0057
ENCODING 87
SWIDTH 360 0
DWIDTH 6 0
BBX 5 10 0 -1
BITMAP
00
88
88
88
A8
A8
A8
50
50
00
ENDCHAR
STARTCHAR 0058
ENCODING 88
SWIDTH 360 0
DWIDTH 6 0
BBX 5 10 0 -1
BITMAP
00
88
50
50
20
50
50
88
88
00
ENDCHAR
STARTCHAR 0059
ENCODING 89
SWIDTH 360 0
DWIDTH 6 0
BBX 5 10 0 -1
BITMAP
00
88
88
50
50
20
20
20
20
00
ENDCHAR
STARTCHAR 005A
ENCODING 90
SWIDTH 360 0
DWIDTH 6 0
BBX 5 10 0 -1
BITMAP
00
F8
08
10
20
40
80
80
F8
00
ENDCHAR
STARTCHAR 005B
ENCODING 91
SWIDTH 360 0
DWIDTH 6 0
BBX 5 10 0 -1
BITMAP
38
20
20
20
20
20
20
20
38
00
ENDCHAR
STARTCHAR 005C
ENCODING 92
SWIDTH 360 0
DWIDTH 6 0
BBX 5 10 0 -1
BITMAP
00
88
50
20
F8
20
F8
20
20
00
ENDCHAR
STARTCHAR 005D
ENCODING 93
SWIDTH 360 0
DWIDTH 6 0
BBX 5 10 0 -1
BITMAP
E0
20
20
20
20
20
20
20
E0
00
ENDCHAR
STARTCHAR 005E
ENCODING 94
SWIDTH 360 0
DWIDTH 6 0
BBX 5 10 0 -1
BITMAP
20
50
88
00
00
00
00
00
00
00
ENDCHAR
STARTCHAR 005F
ENCODING 95
SWIDTH 360 0
DWIDTH 6 0
BBX 5 10 0 -1
BITMAP
00
00
00
00
00
00
00
00
F8
00
ENDCHAR
STARTCHAR 0060
ENCODING 96
SWIDTH 360 0
DWIDTH 6 0
BBX 5 10 0 -1
BITMAP
60
20
10
00
00
00
00
00
00
00
ENDCHAR
STARTCHAR 0061
ENCODING 97
SWIDTH 360 0
DWIDTH 6 0
BBX 5 10 0 -1
BITMAP
00
00
00
70
08
78
88
88
78
00
ENDCHAR
STARTCHAR 0062
ENCODING 98
SWIDTH 360 0
DWIDTH 6 0
BBX 5 10 0 -1
BITMAP
00
80
80
F0
88
88
88
88
F0
00
ENDCHAR
STARTCHAR 0063
ENCODING 99
SWIDTH 360 0
DWIDTH 6 0
BBX 5 10 0 -1
BITMAP
00
00
00
70
88
80
80
88
70
00
ENDCHAR
STARTCHAR 0064
ENCODING 100
SWIDTH 360 0
DWIDTH 6 0
BBX 5 10 0 -1
BITMAP
00
08
08
78
88
88
88
88
78
00
ENDCHAR
STARTCHAR 0065
ENCODING 101
SWIDTH 360 0
DWIDTH 6 0
BBX 5 10 0 -1
BITMAP
00
00
00
70
88
F8
80
88
70
00
ENDCHAR
STARTCHAR 0066
ENCODING 102
SWIDTH 360 0
DWIDTH 6 0
BBX 5 10 0 -1
BITMAP
00
18
20
20
F8
20
20
20
20
00
ENDCHAR
STARTCHAR 0067
ENCODING 103
SWIDTH 360 0
DWIDTH 6 0
BBX 5 10 0 -1
BITMAP
00
00
00
78
88
88
88
78
08
70
ENDCHAR
STARTCHAR 0068
ENCODING 104
SWIDTH 360 0
DWIDTH 6 0
BBX 5 10 0 -1
BITMAP
00
80
80
F0
88
88
88
88
88
00
ENDCHAR
STARTCHAR 0069
ENCODING 105
SWIDTH 360 0
DWIDTH 6 0
BBX 5 10 0 -1
BITMAP
00
20
00
20
20
20
20
20
20
00
ENDCHAR
STARTCHAR 006A
ENCODING 106
SWIDTH 360 0
DWIDTH 6 0
BBX 5 10 0 -1
BITMAP
00
08
00
08
08
08
08
88
88
70
ENDCHAR
STARTCHAR 006B
ENCODING 107
SWIDTH 360 0
DWIDTH 6 0
BBX 5 10 0 -1
BITMAP
00
80
80
88
90
A0
E0
90
88
00
ENDCHAR
STARTCHAR 006C
ENCODING 108
SWIDTH 360 0
DWIDTH 6 0
BBX 5 10 0 -1
BITMAP
00
20
20
20
20
20
20
20
30
00
ENDCHAR
STARTCHAR 006D
ENCODING 109
SWIDTH 360 0
DWIDTH 6 0
BBX 5 10 0 -1
BITMAP
00
00
00
F0
A8
A8
A8
A8
A8
00
ENDCHAR
STARTCHAR 006E
ENCODING 110
SWIDTH 360 0
DWIDTH 6 0
BBX 5 10 0 -1
BITMAP
00
00
00
F0
88
88
88
88
88
00
ENDCHAR
STARTCHAR 006F
ENCODING 111
SWIDTH 360 0
DWIDTH 6 0
BBX 5 10 0 -1
BITMAP
00
00
00
70
88
88
88
88
70
00
ENDCHAR
STARTCHAR 0070
ENCODING 112
SWIDTH 360 0
DWIDTH 6 0
BBX 5 10 0 -1
BITMAP
00
00
00
F0
88
88
88
F0
80
80
ENDCHAR
STARTCHAR 0071
ENCODING 113
SWIDTH 360 0
DWIDTH 6 0
BBX 5 10 0 -1
BITMAP
00
00
00
78
88
88
88
78
08
08
ENDCHAR
STARTCHAR 0072
ENCODING 114
SWIDTH 360 0
DWIDTH 6 0
BBX 5 10 0 -1
BITMAP
00
00
00
B0
C8
80
80
80
80
00
ENDCHAR
STARTCHAR 0073
ENCODING 115
SWIDTH 360 0
DWIDTH 6 0
BBX 5 10 0 -1
BITMAP
00
00
00
78
80
70
08
08
F0
00
ENDCHAR
STARTCHAR 0074
ENCODING 116
SWIDTH 360 0
DWIDTH 6 0
BBX 5 10 0 -1
BITMAP
00
20
20
F8
20
20
20
20
18
00
ENDCHAR
STARTCHAR 0075
ENCODING 117
SWIDTH 360 0
DWIDTH 6 0
BBX 5 10 0 -1
BITMAP
00
00
00
88
88
88
88
88
78
00
ENDCHAR
STARTCHAR 0076
ENCODING 118
SWIDTH 360 0
DWIDTH 6 0
BBX 5 10 0 -1
BITMAP
00
00
00
88
88
50
50
20
20
00
ENDCHAR
STARTCHAR 0077
ENCODING 119
SWIDTH 360 0
DWIDTH 6 0
BBX 5 10 0 -1
BITMAP
00
00
00
88
88
A8
A8
A8
50
00
ENDCHAR
STARTCHAR 0078
ENCODING 120
SWIDTH 360 0
DWIDTH 6 0
BBX 5 10 0 -1
BITMAP
00
00
00
88
50
20
20
50
88
00
ENDCHAR
STARTCHAR 0079
ENCODING 121
SWIDTH 360 0
DWIDTH 6 0
BBX 5 10 0 -1
BITMAP
00
00
00
88
88
50
50
20
20
C0
ENDCHAR
STARTCHAR 007A
ENCODING 122
SWIDTH 360 0
DWIDTH 6 0
BBX 5 10 0 -1
BITMAP
00
00
00
F8
10
20
40
80
F8
00
ENDCHAR
STARTCHAR 007B
ENCODING 123
SWIDTH 360 0
DWIDTH 6 0
BBX 5 10 0 -1
BITMAP
18
20
20
20
60
20
20
20
18
00
ENDCHAR
STARTCHAR 007C
ENCODING 124
SWIDTH 360 0
DWIDTH 6 0
BBX 5 10 0 -1
BITMAP
20
20
20
20
00
20
20
20
20
00
ENDCHAR
STARTCHAR 007D
ENCODING 125
SWIDTH 360 0
DWIDTH 6 0
BBX 5 10 0 -1
BITMAP
C0
20
20
20
30
20
20
20
C0
00
ENDCHAR
STARTCHAR 007E
ENCODING 126
SWIDTH 360 0
DWIDTH 6 0
BBX 5 10 0 -1
BITMAP
68
90
00
00
00
00
00
00
00
00
ENDCHAR
STARTCHAR 00A0
ENCODING 160
SWIDTH 300 0
DWIDTH 5 0
BBX 1 1 0 0
BITMAP
00
ENDCHAR
STARTCHAR 00A7
ENCODING 167
SWIDTH 720 0
DWIDTH 12 0
BBX 11 10 0 -1
BITMAP
0E00
1100
0C00
1200
1100
0900
0600
1100
0E00
0000
ENDCHAR
STARTCHAR 00A8
ENCODING 168
SWIDTH 720 0
DWIDTH 12 0
BBX 11 10 0 -1
BITMAP
3180
3180
0000
0000
0000
0000
0000
0000
0000
0000
ENDCHAR
STARTCHAR 00B0
ENCODING 176
SWIDTH 720 0
DWIDTH 12 0
BBX 11 10 0 -1
BITMAP
6000
9000
9000
6000
0000
0000
0000
0000
0000
0000
ENDCHAR
STARTCHAR 00B1
ENCODING 177
SWIDTH 720 0
DWIDTH 12 0
BBX 11 10 0 -1
BITMAP
0400
0400
0400
3F80
0400
0400
0400
0000
3F80
0000
ENDCHAR
STARTCHAR 00B4
ENCODING 180
SWIDTH 720 0
DWIDTH 12 0
BBX 11 10 0 -1
BITMAP
0300
0C00
1000
0000
0000
0000
0000
0000
0000
0000
ENDCHAR
STARTCHAR 00B6
ENCODING 182
SWIDTH 720 0
DWIDTH 12 0
BBX 11 10 0 -1
BITMAP
1F00
3D00
3D00
1D00
0500
0500
0500
0500
0500
0000
ENDCHAR
STARTCHAR 00D7
ENCODING 215
SWIDTH 720 0
DWIDTH 12 0
BBX 11 10 0 -1
BITMAP
0000
2080
1100
0A00
0400
0A00
1100
2080
0000
0000
ENDCHAR
STARTCHAR 00F7
ENCODING 247
SWIDTH 720 0
DWIDTH 12 0
BBX 11 10 0 -1
BITMAP
0000
0C00
0C00
0000
7F80
0000
0C00
0C00
0000
0000
ENDCHAR
STARTCHAR 0391
ENCODING 913
SWIDTH 720 0
DWIDTH 12 0
BBX 11 10 0 -1
BITMAP
0400
0400
0A00
0A00
1100
1F00
2080
2080
71C0
0000
ENDCHAR
STARTCHAR 0392
ENCODING 914
SWIDTH 720 0
DWIDTH 12 0
BBX 11 10 0 -1
BITMAP
7F00
2080
2080
2080
3F00
2080
2080
2080
7F00
0000
ENDCHAR
STARTCHAR 0393
ENCODING 915
SWIDTH 720 0
DWIDTH 12 0
BBX 11 10 0 -1
BITMAP
3F80
1080
1040
1000
1000
1000
1000
1000
3800
0000
ENDCHAR
STARTCHAR 0394
ENCODING 916
SWIDTH 720 0
DWIDTH 12 0
BBX 11 10 0 -1
BITMAP
0400
0400
0A00
0A00
1100
1100
2080
2080
7FC0
0000
ENDCHAR
STARTCHAR 0395
ENCODING 917
SWIDTH 720 0
DWIDTH 12 0
BBX 11 10 0 -1
BITMAP
7F80
2080
2000
2200
3E00
2200
2000
2080
7F80
0000
ENDCHAR
STARTCHAR 0396
ENCODING 918
SWIDTH 720 0
DWIDTH 12 0
BBX 11 10 0 -1
BITMAP
3F80
2080
0100
0200
0400
0800
1000
2080
3F80
0000
ENDCHAR
STARTCHAR 0397
ENCODING 919
SWIDTH 720 0
DWIDTH 12 0
BBX 11 10 0 -1
BITMAP
71C0
2080
2080
2080
3F80
2080
2080
2080
71C0
0000
ENDCHAR
STARTCHAR 0398
ENCODING 920
SWIDTH 720 0
DWIDTH 12 0
BBX 11 10 0 -1
BITMAP
1F00
2080
4040
5140
5F40
5140
4040
2080
1F00
0000
ENDCHAR
STARTCHAR 0399
ENCODING 921
SWIDTH 720 0
DWIDTH 12 0
BBX 11 10 0 -1
BITMAP
1F00
0400
0400
0400
0400
0400
0400
0400
1F00
0000
ENDCHAR
STARTCHAR 039A
ENCODING 922
SWIDTH 720 0
DWIDTH 12 0
BBX 11 10 0 -1
BITMAP
71C0
2100
2200
2400
2C00
3200
2100
2080
71C0
0000
ENDCHAR
STARTCHAR 039B
ENCODING 923
SWIDTH 720 0
DWIDTH 12 0
BBX 11 10 0 -1
BITMAP
0400
0400
0A00
0A00
1100
1100
2080
2080
71C0
0000
ENDCHAR
STARTCHAR 039C
ENCODING 924
SWIDTH 720 0
DWIDTH 12 0
BBX 11 10 0 -1
BITMAP
71C0
2080
3180
3180
2A80
2A80
2480
2480
71C0
0000
ENDCHAR
STARTCHAR 039D
ENCODING 925
SWIDTH 720 0
DWIDTH 12 0
BBX 11 10 0 -1
BITMAP
71C0
2080
3080
2880
2480
2280
2180
2080
71C0
0000
ENDCHAR
STARTCHAR 039E
ENCODING 926
SWIDTH 720 0
DWIDTH 12 0
BBX 11 10 0 -1
BITMAP
3F80
2080
0000
1100
1F00
1100
0000
2080
3F80
0000
ENDCHAR
STARTCHAR 039F
ENCODING 927
SWIDTH 720 0
DWIDTH 12 0
BBX 11 10 0 -1
BITMAP
1F00
2080
2080
2080
2080
2080
2080
2080
1F00
0000
ENDCHAR
STARTCHAR 03A0
ENCODING 928
SWIDTH 720 0
DWIDTH 12 0
BBX 11 10 0 -1
BITMAP
7FC0
2080
2080
2080
2080
2080
2080
2080
71C0
0000
ENDCHAR
STARTCHAR 03A1
ENCODING 929
SWIDTH 720 0
DWIDTH 12 0
BBX 11 10 0 -1
BITMAP
7F00
2080
2080
2080
3F00
2000
2000
2000
7000
0000
ENDCHAR
STARTCHAR 03A3
ENCODING 931
SWIDTH 720 0
DWIDTH 12 0
BBX 11 10 0 -1
BITMAP
7F80
2080
1000
0800
0400
0800
1000
2080
7F80
0000
ENDCHAR
STARTCHAR 03A4
ENCODING 932
SWIDTH 720 0
DWIDTH 12 0
BBX 11 10 0 -1
BITMAP
7FC0
4440
0400
0400
0400
0400
0400
0400
0E00
0000
ENDCHAR
STARTCHAR 03A5
ENCODING 933
SWIDTH 720 0
DWIDTH 12 0
BBX 11 10 0 -1
BITMAP
3180
4A40
4440
0400
0400
0400
0400
0400
0E00
0000
ENDCHAR
STARTCHAR 03A6
ENCODING 934
SWIDTH 720 0
DWIDTH 12 0
BBX 11 10 0 -1
BITMAP
0E00
0400
1F00
2480
2480
2480
1F00
0400
0E00
0000
ENDCHAR
STARTCHAR 03A7
ENCODING 935
SWIDTH 720 0
DWIDTH 12 0
BBX 11 10 0 -1
BITMAP
71C0
2080
1100
0A00
0400
0A00
1100
2080
71C0
0000
ENDCHAR
STARTCHAR 03A8
ENCODING 936
SWIDTH 720 0
DWIDTH 12 0
BBX 11 10 0 -1
BITMAP
0E00
4440
2480
2480
2480
1500
0E00
0400
0E00
0000
ENDCHAR
STARTCHAR 03A9
ENCODING 937
SWIDTH 720 0
DWIDTH 12 0
BBX 11 10 0 -1
BITMAP
0E00
1100
2080
2080
2080
1100
0A00
4A40
7BC0
0000
ENDCHAR
STARTCHAR 03B1
ENCODING 945
SWIDTH 720 0
DWIDTH 12 0
BBX 11 10 0 -1
BITMAP
0000
0000
0080
0E80
1100
2100
2100
2300
1CC0
0000
ENDCHAR
STARTCHAR 03B2
ENCODING 946
SWIDTH 720 0
DWIDTH 12 0
BBX 11 10 0 -1
BITMAP
0700
0880
1080
1080
2700
2100
2080
5080
4F00
0000
ENDCHAR
STARTCHAR 03B3
ENCODING 947
SWIDTH 720 0
DWIDTH 12 0
BBX 11 10 0 -1
BITMAP
0000
0000
0000
31C0
4A00
0400
0400
0C00
0800
0000
ENDCHAR
STARTCHAR 03B4
ENCODING 948
SWIDTH 720 0
DWIDTH 12 0
BBX 11 10 0 -1
BITMAP
0600
0900
0880
0C00
1200
2100
2100
2200
1C00
0000
ENDCHAR
STARTCHAR 03B5
ENCODING 949
SWIDTH 720 0
DWIDTH 12 0
BBX 11 10 0 -1
BITMAP
0000
0000
0F00
1080
1000
1F00
2000
2080
1F00
0000
ENDCHAR
STARTCHAR 03B6
ENCODING 950
SWIDTH 720 0
DWIDTH 12 0
BBX 11 10 0 -1
BITMAP
1000
1180
0F00
0800
1000
2000
2000
1F00
0080
0300
ENDCHAR
STARTCHAR 03B7
ENCODING 951
SWIDTH 720 0
DWIDTH 12 0
BBX 11 10 0 -1
BITMAP
0000
0000
0000
2700
5880
1080
2100
2100
0200
0200
ENDCHAR
STARTCHAR 03B8
ENCODING 952
SWIDTH 720 0
DWIDTH 12 0
BBX 11 10 0 -1
BITMAP
0700
0880
1080
1080
3F80
2100
2100
2200
1C00
0000
ENDCHAR
STARTCHAR 03B9
ENCODING 953
SWIDTH 720 0
DWIDTH 12 0
BBX 11 10 0 -1
BITMAP
0000
0000
0000
0800
0800
1000
1000
1100
0E00
0000
ENDCHAR
STARTCHAR 03BA
ENCODING 954
SWIDTH 720 0
DWIDTH 12 0
BBX 11 10 0 -1
BITMAP
0000
0000
0000
1180
1600
1800
2400
2480
4300
0000
ENDCHAR
STARTCHAR 03BB
ENCODING 955
SWIDTH 720 0
DWIDTH 12 0
BBX 11 10 0 -1
BITMAP
1800
0400
0400
0400
0C00
1400
1400
2200
2180
0000
ENDCHAR
STARTCHAR 03BC
ENCODING 956
SWIDTH 720 0
DWIDTH 12 0
BBX 11 10 0 -1
BITMAP
0000
0000
0000
1100
1100
1100
2200
3200
4D80
4000
ENDCHAR
STARTCHAR 03BD
ENCODING 957
SWIDTH 720 0
DWIDTH 12 0
BBX 11 10 0 -1
BITMAP
0000
0000
0000
3080
1080
1100
1200
1C00
3000
0000
ENDCHAR
STARTCHAR 03BE
ENCODING 958
SWIDTH 720 0
DWIDTH 12 0
BBX 11 10 0 -1
BITMAP
1000
1380
0C00
1000
1F00
2000
2000
1F00
0080
0300
ENDCHAR
STARTCHAR 03BF
ENCODING 959
SWIDTH 720 0
DWIDTH 12 0
BBX 11 10 0 -1
BITMAP
0000
0000
0000
0F00
1080
2080
2080
2100
1E00
0000
ENDCHAR
STARTCHAR 03C0
ENCODING 960
SWIDTH 720 0
DWIDTH 12 0
BBX 11 10 0 -1
BITMAP
0000
0000
0040
3F80
4900
0A00
1200
1200
6180
0000
ENDCHAR
STARTCHAR 03C1
ENCODING 961
SWIDTH 720 0
DWIDTH 12 0
BBX 11 10 0 -1
BITMAP
0000
0000
0000
0F00
1080
2080
2080
3100
4E00
4000
ENDCHAR
STARTCHAR 03C3
ENCODING 963
SWIDTH 720 0
DWIDTH 12 0
BBX 11 10 0 -1
BITMAP
0000
0000
0020
0FC0
1100
2080
2080
2100
1E00
0000
ENDCHAR
STARTCHAR 03C4
ENCODING 964
SWIDTH 720 0
DWIDTH 12 0
BBX 11 10 0 -1
BITMAP
0000
0000
0080
3F00
4800
1000
1000
1200
0C00
0000
ENDCHAR
STARTCHAR 03C5
ENCODING 965
SWIDTH 720 0
DWIDTH 12 0
BBX 11 10 0 -1
BITMAP
0000
0000
0000
3100
1080
2080
2100
2200
1C00
0000
ENDCHAR
STARTCHAR 03C6
ENCODING 966
SWIDTH 720 0
DWIDTH 12 0
BBX 11 10 0 -1
BITMAP
0200
0200
0200
1F00
2480
2480
2480
1F00
0800
0800
ENDCHAR
STARTCHAR 03C7
ENCODING 967
SWIDTH 720 0
DWIDTH 12 0
BBX 11 10 0 -1
BITMAP
0000
1800
2480
0500
0600
0400
0C00
1480
2300
0000
ENDCHAR
STARTCHAR 03C8
ENCODING 968
SWIDTH 720 0
DWIDTH 12 0
BBX 11 10 0 -1
BITMAP
0200
0200
0200
3500
5480
2480
2500
1E00
0800
0800
ENDCHAR
STARTCHAR 03C9
ENCODING 969
SWIDTH 720 0
DWIDTH 12 0
BBX 11 10 0 -1
BITMAP
0000
0000
0000
1100
2480
4480
4880
4900
3600
0000
ENDCHAR
STARTCHAR 0401
ENCODING 1025
SWIDTH 720 0
DWIDTH 12 0
BBX 11 10 0 -1
BITMAP
1B00
7F80
2080
2200
3E00
2200
2000
2080
7F80
0000
ENDCHAR
STARTCHAR 0410
ENCODING 1040
SWIDTH 720 0
DWIDTH 12 0
BBX 11 10 0 -1
BITMAP
0400
0400
0A00
0A00
1100
1F00
2080
2080
71C0
0000
ENDCHAR
STARTCHAR 0411
ENCODING 1041
SWIDTH 720 0
DWIDTH 12 0
BBX 11 10 0 -1
BITMAP
7F00
2100
2080
2000
3F00
2080
2080
2080
7F00
0000
ENDCHAR
STARTCHAR 0412
ENCODING 1042
SWIDTH 720 0
DWIDTH 12 0
BBX 11 10 0 -1
BITMAP
7F00
2080
2080
2080
3F00
2080
2080
2080
7F00
0000
ENDCHAR
STARTCHAR 0413
ENCODING 1043
SWIDTH 720 0
DWIDTH 12 0
BBX 11 10 0 -1
BITMAP
3F80
1080
1040
1000
1000
1000
1000
1000
3800
0000
ENDCHAR
STARTCHAR 0414
ENCODING 1044
SWIDTH 720 0
DWIDTH 12 0
BBX 11 10 0 -1
BITMAP
3F80
1100
1100
1100
1100
1100
2100
2100
3FC0
4040
ENDCHAR
STARTCHAR 0415
ENCODING 1045
SWIDTH 720 0
DWIDTH 12 0
BBX 11 10 0 -1
BITMAP
7F80
2080
2000
2200
3E00
2200
2000
2080
7F80
0000
ENDCHAR
STARTCHAR 0416
ENCODING 1046
SWIDTH 720 0
DWIDTH 12 0
BBX 11 10 0 -1
BITMAP
6EC0
2480
2480
1500
0E00
1500
2480
4440
4E40
0000
ENDCHAR
STARTCHAR 0417
ENCODING 1047
SWIDTH 720 0
DWIDTH 12 0
BBX 11 10 0 -1
BITMAP
1F00
2080
0080
0100
0E00
0100
0080
2080
1F00
0000
ENDCHAR
STARTCHAR 0418
ENCODING 1048
SWIDTH 720 0
DWIDTH 12 0
BBX 11 10 0 -1
BITMAP
71C0
2080
2180
2280
2480
2880
3080
2080
71C0
0000
ENDCHAR
STARTCHAR 0419
ENCODING 1049
SWIDTH 720 0
DWIDTH 12 0
BBX 11 10 0 -1
BITMAP
1B00
6EC0
2180
2280
2480
2880
3080
2080
71C0
0000
ENDCHAR
STARTCHAR 041A
ENCODING 1050
SWIDTH 720 0
DWIDTH 12 0
BBX 11 10 0 -1
BITMAP
71C0
2200
2200
2400
3C00
2200
2100
2080
71C0
0000
ENDCHAR
STARTCHAR 041B
ENCODING 1051
SWIDTH 720 0
DWIDTH 12 0
BBX 11 10 0 -1
BITMAP
3F80
1100
1100
1100
1100
1100
A100
A100
4380
0000
ENDCHAR
STARTCHAR 041C
ENCODING 1052
SWIDTH 720 0
DWIDTH 12 0
BBX 11 10 0 -1
BITMAP
71C0
2080
3180
3180
2A80
2A80
2480
2480
71C0
0000
ENDCHAR
STARTCHAR 041D
ENCODING 1053
SWIDTH 720 0
DWIDTH 12 0
BBX 11 10 0 -1
BITMAP
71C0
2080
2080
2080
3F80
2080
2080
2080
71C0
0000
ENDCHAR
STARTCHAR 041E
ENCODING 1054
SWIDTH 720 0
DWIDTH 12 0
BBX 11 10 0 -1
BITMAP
1F00
2080
2080
2080
2080
2080
2080
2080
1F00
0000
ENDCHAR
STARTCHAR 041F
ENCODING 1055
SWIDTH 720 0
DWIDTH 12 0
BBX 11 10 0 -1
BITMAP
7FC0
2080
2080
2080
2080
2080
2080
2080
71C0
0000
ENDCHAR
STARTCHAR 0420
ENCODING 1056
SWIDTH 720 0
DWIDTH 12 0
BBX 11 10 0 -1
BITMAP
7F00
2080
2080
2080
3F00
2000
2000
2000
7000
0000
ENDCHAR
STARTCHAR 0421
ENCODING 1057
SWIDTH 720 0
DWIDTH 12 0
BBX 11 10 0 -1
BITMAP
0F00
1080
2000
2000
2000
2000
2040
10C0
0F00
0000
ENDCHAR
STARTCHAR 0422
ENCODING 1058
SWIDTH 720 0
DWIDTH 12 0
BBX 11 10 0 -1
BITMAP
7FC0
4440
0400
0400
0400
0400
0400
0400
0E00
0000
ENDCHAR
STARTCHAR 0423
ENCODING 1059
SWIDTH 720 0
DWIDTH 12 0
BBX 11 10 0 -1
BITMAP
71C0
2080
1100
1100
0A00
0A00
0400
0400
6800
3000
ENDCHAR
STARTCHAR 0424
ENCODING 1060
SWIDTH 720 0
DWIDTH 12 0
BBX 11 10 0 -1
BITMAP
0E00
0400
1F00
2480
2480
2480
1F00
0400
0E00
0000
ENDCHAR
STARTCHAR 0425
ENCODING 1061
SWIDTH 720 0
DWIDTH 12 0
BBX 11 10 0 -1
BITMAP
71C0
2080
1100
0A00
0400
0A00
1100
2080
71C0
0000
ENDCHAR
STARTCHAR 0426
ENCODING 1062
SWIDTH 720 0
DWIDTH 12 0
BBX 11 10 0 -1
BITMAP
7380
2100
2100
2100
2100
2100
2100
2100
7F80
00C0
ENDCHAR
STARTCHAR 0427
ENCODING 1063
SWIDTH 720 0
DWIDTH 12 0
BBX 11 10 0 -1
BITMAP
71C0
2080
2080
2080
2080
1F80
0080
0080
01C0
0000
ENDCHAR
STARTCHAR 0428
ENCODING 1064
SWIDTH 720 0
DWIDTH 12 0
BBX 11 10 0 -1
BITMAP
6EC0
2480
2480
2480
2480
2480
2480
2480
7FC0
0000
ENDCHAR
STARTCHAR 0429
ENCODING 1065
SWIDTH 720 0
DWIDTH 12 0
BBX 11 10 0 -1
BITMAP
6EC0
2480
2480
2480
2480
2480
2480
2480
7FC0
0060
ENDCHAR
STARTCHAR 042A
ENCODING 1066
SWIDTH 720 0
DWIDTH 12 0
BBX 11 10 0 -1
BITMAP
7000
5000
9000
1E00
1100
1080
1080
1100
3E00
0000
ENDCHAR
STARTCHAR 042B
ENCODING 1067
SWIDTH 720 0
DWIDTH 12 0
BBX 11 10 0 -1
BITMAP
71C0
2080
2080
3C80
2280
2180
2180
2280
7DC0
0000
ENDCHAR
STARTCHAR 042C
ENCODING 1068
SWIDTH 720 0
DWIDTH 12 0
BBX 11 10 0 -1
BITMAP
7000
2000
2000
3E00
2100
2080
2080
2100
7E00
0000
ENDCHAR
STARTCHAR 042D
ENCODING 1069
SWIDTH 720 0
DWIDTH 12 0
BBX 11 10 0 -1
BITMAP
1E00
2100
4080
0E80
1180
0080
4080
2100
1E00
0000
ENDCHAR
STARTCHAR 042E
ENCODING 1070
SWIDTH 720 0
DWIDTH 12 0
BBX 11 10 0 -1
BITMAP
7300
2480
2840
2840
3840
2840
2840
2480
7300
0000
ENDCHAR
STARTCHAR 042F
ENCODING 1071
SWIDTH 720 0
DWIDTH 12 0
BBX 11 10 0 -1
BITMAP
1FC0
2080
2080
2080
1F80
0880
1080
2080
71C0
0000
ENDCHAR
STARTCHAR 0430
ENCODING 1072
SWIDTH 720 0
DWIDTH 12 0
BBX 11 10 0 -1
BITMAP
0000
0000
0000
1F00
0080
1F80
2080
2080
1F40
0000
ENDCHAR
STARTCHAR 0431
ENCODING 1073
SWIDTH 720 0
DWIDTH 12 0
BBX 11 10 0 -1
BITMAP
0100
1E00
2000
3E00
2100
2100
2100
1100
0E00
0000
ENDCHAR
STARTCHAR 0432
ENCODING 1074
SWIDTH 720 0
DWIDTH 12 0
BBX 11 10 0 -1
BITMAP
0000
0000
0000
7E00
2100
3F00
2080
2080
7F00
0000
ENDCHAR
STARTCHAR 0433
ENCODING 1075
SWIDTH 720 0
DWIDTH 12 0
BBX 11 10 0 -1
BITMAP
0000
0000
0000
3F00
1100
1080
1000
1000
3800
0000
ENDCHAR
STARTCHAR 0434
ENCODING 1076
SWIDTH 720 0
DWIDTH 12 0
BBX 11 10 0 -1
BITMAP
0000
0000
0000
3F80
1100
1100
1100
2100
3F80
4080
ENDCHAR
STARTCHAR 0435
ENCODING 1077
SWIDTH 720 0
DWIDTH 12 0
BBX 11 10 0 -1
BITMAP
0000
0000
0000
1F00
2080
3F80
2000
2080
1F00
0000
ENDCHAR
STARTCHAR 0436
ENCODING 1078
SWIDTH 720 0
DWIDTH 12 0
BBX 11 10 0 -1
BITMAP
0000
0000
0000
6EC0
1500
1F00
1500
2480
2E80
0000
ENDCHAR
STARTCHAR 0437
ENCODING 1079
SWIDTH 720 0
DWIDTH 12 0
BBX 11 10 0 -1
BITMAP
0000
0000
0000
1F00
2080
0F00
0080
2080
1F00
0000
ENDCHAR
STARTCHAR 0438
ENCODING 1080
SWIDTH 720 0
DWIDTH 12 0
BBX 11 10 0 -1
BITMAP
0000
0000
0000
71C0
2280
2480
2880
3080
71C0
0000
ENDCHAR
STARTCHAR 0439
ENCODING 1081
SWIDTH 720 0
DWIDTH 12 0
BBX 11 10 0 -1
BITMAP
0000
1B00
0E00
71C0
2280
2480
2880
3080
71C0
0000
ENDCHAR
STARTCHAR 043A
ENCODING 1082
SWIDTH 720 0
DWIDTH 12 0
BBX 11 10 0 -1
BITMAP
0000
0000
0000
7380
2400
3C00
2200
2100
71C0
0000
ENDCHAR
STARTCHAR 043B
ENCODING 1083
SWIDTH 720 0
DWIDTH 12 0
BBX 11 10 0 -1
BITMAP
0000
0000
0000
3F80
1100
1100
1100
A100
4380
0000
ENDCHAR
STARTCHAR 043C
ENCODING 1084
SWIDTH 720 0
DWIDTH 12 0
BBX 11 10 0 -1
BITMAP
0000
0000
0000
71C0
3180
2A80
2480
2480
71C0
0000
ENDCHAR
STARTCHAR 043D
ENCODING 1085
SWIDTH 720 0
DWIDTH 12 0
BBX 11 10 0 -1
BITMAP
0000
0000
0000
71C0
2080
3F80
2080
2080
71C0
0000
ENDCHAR
STARTCHAR 043E
ENCODING 1086
SWIDTH 720 0
DWIDTH 12 0
BBX 11 10 0 -1
BITMAP
0000
0000
0000
1F00
2080
2080
2080
2080
1F00
0000
ENDCHAR
STARTCHAR 043F
ENCODING 1087
SWIDTH 720 0
DWIDTH 12 0
BBX 11 10 0 -1
BITMAP
0000
0000
0000
7F80
2100
2100
2100
2100
7380
0000
ENDCHAR
STARTCHAR 0440
ENCODING 1088
SWIDTH 720 0
DWIDTH 12 0
BBX 11 10 0 -1
BITMAP
0000
0000
0000
6F00
3080
2080
3080
2F00
2000
7000
ENDCHAR
STARTCHAR 0441
ENCODING 1089
SWIDTH 720 0
DWIDTH 12 0
BBX 11 10 0 -1
BITMAP
0000
0000
0000
1F00
2080
2000
2000
20C0
1F80
0000
ENDCHAR
STARTCHAR 0442
ENCODING 1090
SWIDTH 720 0
DWIDTH 12 0
BBX 11 10 0 -1
BITMAP
0000
0000
0000
7FC0
4440
0400
0400
0400
0E00
0000
ENDCHAR
STARTCHAR 0443
ENCODING 1091
SWIDTH 720 0
DWIDTH 12 0
BBX 11 10 0 -1
BITMAP
0000
0000
0000
71C0
2080
1100
0A00
0400
6800
3000
ENDCHAR
STARTCHAR 0444
ENCODING 1092
SWIDTH 720 0
DWIDTH 12 0
BBX 11 10 0 -1
BITMAP
0400
0400
1500
2E80
2480
2480
2E80
1500
0400
0E00
ENDCHAR
STARTCHAR 0445
ENCODING 1093
SWIDTH 720 0
DWIDTH 12 0
BBX 11 10 0 -1
BITMAP
0000
0000
0000
71C0
1100
0E00
1100
2080
71C0
0000
ENDCHAR
STARTCHAR 0446
ENCODING 1094
SWIDTH 720 0
DWIDTH 12 0
BBX 11 10 0 -1
BITMAP
0000
0000
0000
7380
2100
2100
2100
2100
3F80
00C0
ENDCHAR
STARTCHAR 0447
ENCODING 1095
SWIDTH 720 0
DWIDTH 12 0
BBX 11 10 0 -1
BITMAP
0000
0000
0000
71C0
2080
2080
1F80
0080
01C0
0000
ENDCHAR
STARTCHAR 0448
ENCODING 1096
SWIDTH 720 0
DWIDTH 12 0
BBX 11 10 0 -1
BITMAP
0000
0000
0000
6EC0
2480
2480
2480
2480
7FC0
0000
ENDCHAR
STARTCHAR 0449
ENCODING 1097
SWIDTH 720 0
DWIDTH 12 0
BBX 11 10 0 -1
BITMAP
0000
0000
0000
6EC0
2480
2480
2480
2480
7FC0
0060
ENDCHAR
STARTCHAR 044A
ENCODING 1098
SWIDTH 720 0
DWIDTH 12 0
BBX 11 10 0 -1
BITMAP
0000
0000
0000
7000
5000
9F00
1080
1080
3F00
0000
ENDCHAR
STARTCHAR 044B
ENCODING 1099
SWIDTH 720 0
DWIDTH 12 0
BBX 11 10 0 -1
BITMAP
0000
0000
0000
71C0
2080
3E80
2180
2280
7DC0
0000
ENDCHAR
STARTCHAR 044C
ENCODING 1100
SWIDTH 720 0
DWIDTH 12 0
BBX 11 10 0 -1
BITMAP
0000
0000
0000
7000
2000
3F00
2080
2080
7F00
0000
ENDCHAR
STARTCHAR 044D
ENCODING 1101
SWIDTH 720 0
DWIDTH 12 0
BBX 11 10 0 -1
BITMAP
0000
0000
0000
1F00
2080
0680
0980
6080
3F00
0000
ENDCHAR
STARTCHAR 044E
ENCODING 1102
SWIDTH 720 0
DWIDTH 12 0
BBX 11 10 0 -1
BITMAP
0000
0000
0000
7300
2480
3840
2840
2480
7300
0000
ENDCHAR
STARTCHAR 044F
ENCODING 1103
SWIDTH 720 0
DWIDTH 12 0
BBX 11 10 0 -1
BITMAP
0000
0000
0000
1FC0
2080
1080
0F80
1080
21C0
0000
ENDCHAR
STARTCHAR 0451
ENCODING 1105
SWIDTH 720 0
DWIDTH 12 0
BBX 11 10 0 -1
BITMAP
0000
1B00
0000
1F00
2080
3F80
2000
2080
1F00
0000
ENDCHAR
STARTCHAR 2000
ENCODING 8192
SWIDTH 600 0
DWIDTH 10 0
BBX 1 1 0 0
BITMAP
00
ENDCHAR
STARTCHAR 2001
ENCODING 8193
SWIDTH 600 0
DWIDTH 10 0
BBX 1 1 0 0
BITMAP
00
ENDCHAR
STARTCHAR 2002
ENCODING 8194
SWIDTH 600 0
DWIDTH 10 0
BBX 1 1 0 0
BITMAP
00
ENDCHAR
STARTCHAR 2003
ENCODING 8195
SWIDTH 600 0
DWIDTH 10 0
BBX 1 1 0 0
BITMAP
00
ENDCHAR
STARTCHAR 2004
ENCODING 8196
SWIDTH 600 0
DWIDTH 10 0
BBX 1 1 0 0
BITMAP
00
ENDCHAR
STARTCHAR 2005
ENCODING 8197
SWIDTH 600 0
DWIDTH 10 0
BBX 1 1 0 0
BITMAP
00
ENDCHAR
STARTCHAR 2006
ENCODING 8198
SWIDTH 600 0
DWIDTH 10 0
BBX 1 1 0 0
BITMAP
00
ENDCHAR
STARTCHAR 2007
ENCODING 8199
SWIDTH 600 0
DWIDTH 10 0
BBX 1 1 0 0
BITMAP
00
ENDCHAR
STARTCHAR 2008
ENCODING 8200
SWIDTH 600 0
DWIDTH 10 0
BBX 1 1 0 0
BITMAP
00
ENDCHAR
STARTCHAR 2009
ENCODING 8201
SWIDTH 600 0
DWIDTH 10 0
BBX 1 1 0 0
BITMAP
00
ENDCHAR
STARTCHAR 200A
ENCODING 8202
SWIDTH 600 0
DWIDTH 10 0
BBX 1 1 0 0
BITMAP
00
ENDCHAR
STARTCHAR 200B
ENCODING 8203
SWIDTH 300 0
DWIDTH 5 0
BBX 1 1 0 0
BITMAP
00
ENDCHAR
STARTCHAR 200C
ENCODING 8204
SWIDTH 300 0
DWIDTH 5 0
BBX 1 1 0 0
BITMAP
00
ENDCHAR
STARTCHAR 200D
ENCODING 8205
SWIDTH 300 0
DWIDTH 5 0
BBX 1 1 0 0
BITMAP
00
ENDCHAR
STARTCHAR 200E
ENCODING 8206
SWIDTH 300 0
DWIDTH 5 0
BBX 1 1 0 0
BITMAP
00
ENDCHAR
STARTCHAR 200F
ENCODING 8207
SWIDTH 300 0
DWIDTH 5 0
BBX 1 1 0 0
BITMAP
00
ENDCHAR
STARTCHAR 2010
ENCODING 8208
SWIDTH 720 0
DWIDTH 12 0
BBX 12 10 0 -1
BITMAP
0000
0000
0000
0000
0E00
0000
0000
0000
0000
0000
ENDCHAR
STARTCHAR 2014
ENCODING 8212
SWIDTH 720 0
DWIDTH 12 0
BBX 12 10 0 -1
BITMAP
0000
0000
0000
0000
FFE0
0000
0000
0000
0000
0000
ENDCHAR
STARTCHAR 2015
ENCODING 8213
SWIDTH 720 0
DWIDTH 12 0
BBX 12 10 0 -1
BITMAP
0000
0000
0000
0000
FFE0
0000
0000
0000
0000
0000
ENDCHAR
STARTCHAR 2016
ENCODING 8214
SWIDTH 720 0
DWIDTH 12 0
BBX 12 10 0 -1
BITMAP
0A00
0A00
0A00
0A00
0A00
0A00
0A00
0A00
0A00
0000
ENDCHAR
STARTCHAR 2018
ENCODING 8216
SWIDTH 720 0
DWIDTH 12 0
BBX 12 10 0 -1
BITMAP
0080
0100
0300
0300
0000
0000
0000
0000
0000
0000
ENDCHAR
STARTCHAR 2019
ENCODING 8217
SWIDTH 720 0
DWIDTH 12 0
BBX 12 10 0 -1
BITMAP
1800
1800
1000
2000
0000
0000
0000
0000
0000
0000
ENDCHAR
STARTCHAR 201C
ENCODING 8220
SWIDTH 720 0
DWIDTH 12 0
BBX 12 10 0 -1
BITMAP
0440
0880
1980
1980
0000
0000
0000
0000
0000
0000
ENDCHAR
STARTCHAR 201D
ENCODING 8221
SWIDTH 720 0
DWIDTH 12 0
BBX 12 10 0 -1
BITMAP
3300
3300
2200
4400
0000
0000
0000
0000
0000
0000
ENDCHAR
STARTCHAR 2020
ENCODING 8224
SWIDTH 720 0
DWIDTH 12 0
BBX 12 10 0 -1
BITMAP
0E00
2480
3F80
2480
0E00
0400
0400
0400
0400
0000
ENDCHAR
STARTCHAR 2021
ENCODING 8225
SWIDTH 720 0
DWIDTH 12 0
BBX 12 10 0 -1
BITMAP
0E00
2480
3F80
2480
0E00
2480
3F80
2480
0E00
0000
ENDCHAR
STARTCHAR 2025
ENCODING 8229
SWIDTH 720 0
DWIDTH 12 0
BBX 12 10 0 -1
BITMAP
0000
0000
0000
3180
3180
0000
0000
0000
0000
0000
ENDCHAR
STARTCHAR 2026
ENCODING 8230
SWIDTH 720 0
DWIDTH 12 0
BBX 12 10 0 -1
BITMAP
0000
0000
0000
CCC0
CCC0
0000
0000
0000
0000
0000
ENDCHAR
STARTCHAR 2030
ENCODING 8240
SWIDTH 720 0
DWIDTH 12 0
BBX 12 10 0 -1
BITMAP
6080
9100
9200
6400
0800
1240
25A0
45A0
8240
0000
ENDCHAR
STARTCHAR 2032
ENCODING 8242
SWIDTH 720 0
DWIDTH 12 0
BBX 12 10 0 -1
BITMAP
1000
1000
2000
4000
0000
0000
0000
0000
0000
0000
ENDCHAR
STARTCHAR 2033
ENCODING 8243
SWIDTH 720 0
DWIDTH 12 0
BBX 12 10 0 -1
BITMAP
2400
2400
4800
9000
0000
0000
0000
0000
0000
0000
ENDCHAR
STARTCHAR 203B
ENCODING 8251
SWIDTH 720 0
DWIDTH 12 0
BBX 12 10 0 -1
BITMAP
4440
2080
1100
0A00
4440
0A00
1100
2080
4440
0000
ENDCHAR
STARTCHAR 203E
ENCODING 8254
SWIDTH 720 0
DWIDTH 12 0
BBX 12 10 0 -1
BITMAP
FFE0
0000
0000
0000
0000
0000
0000
0000
0000
0000
ENDCHAR
STARTCHAR 2103
ENCODING 8451
SWIDTH 720 0
DWIDTH 12 0
BBX 12 10 0 -1
BITMAP
6700
9880
9040
6000
2000
2000
1040
08C0
0700
0000
ENDCHAR
STARTCHAR 2116
ENCODING 8470
SWIDTH 720 0
DWIDTH 12 0
BBX 12 10 0 -1
BITMAP
8800
8800
C800
C980
AA40
9A40
9A40
8A60
89A0
0000
ENDCHAR
STARTCHAR 2121
ENCODING 8481
SWIDTH 720 0
DWIDTH 12 0
BBX 12 10 0 -1
BITMAP
F800
2000
2E80
2880
2880
2E80
2880
2880
2EE0
0000
ENDCHAR
STARTCHAR 212B
ENCODING 8491
SWIDTH 720 0
DWIDTH 12 0
BBX 12 10 0 -1
BITMAP
0E00
1100
1100
0E00
0A00
1100
1F00
2080
71C0
0000
ENDCHAR
STARTCHAR 2160
ENCODING 8544
SWIDTH 720 0
DWIDTH 12 0
BBX 12 10 0 -1
BITMAP
1F00
0400
0400
0400
0400
0400
0400
0400
1F00
0000
ENDCHAR
STARTCHAR 2161
ENCODING 8545
SWIDTH 720 0
DWIDTH 12 0
BBX 12 10 0 -1
BITMAP
3F80
1100
1100
1100
1100
1100
1100
1100
3F80
0000
ENDCHAR
STARTCHAR 2162
ENCODING 8546
SWIDTH 720 0
DWIDTH 12 0
BBX 12 10 0 -1
BITMAP
7FC0
2480
2480
2480
2480
2480
2480
2480
7FC0
0000
ENDCHAR
STARTCHAR 2163
ENCODING 8547
SWIDTH 720 0
DWIDTH 12 0
BBX 12 10 0 -1
BITMAP
F8E0
5040
5040
4880
4880
4500
4500
4200
E200
0000
ENDCHAR
STARTCHAR 2164
ENCODING 8548
SWIDTH 720 0
DWIDTH 12 0
BBX 12 10 0 -1
BITMAP
71C0
2080
2080
1100
1100
0A00
0A00
0400
0400
0000
ENDCHAR
STARTCHAR 2165
ENCODING 8549
SWIDTH 720 0
DWIDTH 12 0
BBX 12 10 0 -1
BITMAP
E3E0
4140
4140
2240
2240
1440
1440
0840
08E0
0000
ENDCHAR
STARTCHAR 2166
ENCODING 8550
SWIDTH 720 0
DWIDTH 12 0
BBX 12 10 0 -1
BITMAP
EFE0
4540
4540
2940
2940
2940
1140
1140
13E0
0000
ENDCHAR
STARTCHAR 2167
ENCODING 8551
SWIDTH 720 0
DWIDTH 12 0
BBX 12 10 0 -1
BITMAP
DFE0
8D40
8D40
5540
5540
5540
2540
2540
2FE0
0000
ENDCHAR
STARTCHAR 2168
ENCODING 8552
SWIDTH 720 0
DWIDTH 12 0
BBX 12 10 0 -1
BITMAP
F8E0
5040
4880
4500
4200
4500
4880
5040
F8E0
0000
ENDCHAR
STARTCHAR 2169
ENCODING 8553
SWIDTH 720 0
DWIDTH 12 0
BBX 12 10 0 -1
BITMAP
71C0
2080
1100
0A00
0400
0A00
1100
2080
71C0
0000
ENDCHAR
STARTCHAR 2190
ENCODING 8592
SWIDTH 720 0
DWIDTH 12 0
BBX 12 10 0 -1
BITMAP
0000
0000
2000
4000
FFE0
4000
2000
0000
0000
0000
ENDCHAR
STARTCHAR 2191
ENCODING 8593
SWIDTH 720 0
DWIDTH 12 0
BBX 12 10 0 -1
BITMAP
0400
0E00
1500
0400
0400
0400
0400
0400
0400
0000
ENDCHAR
STARTCHAR 2192
ENCODING 8594
SWIDTH 720 0
DWIDTH 12 0
BBX 12 10 0 -1
BITMAP
0000
0000
0080
0040
FFE0
0040
0080
0000
0000
0000
ENDCHAR
STARTCHAR 2193
ENCODING 8595
SWIDTH 720 0
DWIDTH 12 0
BBX 12 10 0 -1
BITMAP
0400
0400
0400
0400
0400
0400
1500
0E00
0400
0000
ENDCHAR
STARTCHAR 21D2
ENCODING 8658
SWIDTH 720 0
DWIDTH 12 0
BBX 12 10 0 -1
BITMAP
0000
0100
0080
FFC0
0020
FFC0
0080
0100
0000
0000
ENDCHAR
STARTCHAR 21D4
ENCODING 8660
SWIDTH 720 0
DWIDTH 12 0
BBX 12 10 0 -1
BITMAP
0000
1100
2080
7FC0
8020
7FC0
2080
1100
0000
0000
ENDCHAR
STARTCHAR 2200
ENCODING 8704
SWIDTH 720 0
DWIDTH 12 0
BBX 12 10 0 -1
BITMAP
4040
2080
2080
1F00
1100
0A00
0A00
0400
0400
0000
ENDCHAR
STARTCHAR 2202
ENCODING 8706
SWIDTH 720 0
DWIDTH 12 0
BBX 12 10 0 -1
BITMAP
0700
0880
0080
0E80
1180
2100
2100
2200
1C00
0000
ENDCHAR
STARTCHAR 2203
ENCODING 8707
SWIDTH 720 0
DWIDTH 12 0
BBX 12 10 0 -1
BITMAP
3F80
0080
0080
0080
3F80
0080
0080
0080
3F80
0000
ENDCHAR
STARTCHAR 2207
ENCODING 8711
SWIDTH 720 0
DWIDTH 12 0
BBX 12 10 0 -1
BITMAP
7FC0
2040
2080
1080
1100
0900
0A00
0600
0400
0000
ENDCHAR
STARTCHAR 2208
ENCODING 8712
SWIDTH 720 0
DWIDTH 12 0
BBX 12 10 0 -1
BITMAP
0000
1FC0
2000
4000
7FC0
4000
2000
1FC0
0000
0000
ENDCHAR
STARTCHAR 220B
ENCODING 8715
SWIDTH 720 0
DWIDTH 12 0
BBX 12 10 0 -1
BITMAP
0000
7F00
0080
0040
7FC0
0040
0080
7F00
0000
0000
ENDCHAR
STARTCHAR 2211
ENCODING 8721
SWIDTH 720 0
DWIDTH 12 0
BBX 12 10 0 -1
BITMAP
7F80
2080
1000
0800
0400
0800
1000
2080
7F80
0000
ENDCHAR
STARTCHAR 2212
ENCODING 8722
SWIDTH 720 0
DWIDTH 12 0
BBX 12 10 0 -1
BITMAP
0000
0000
0000
0000
3F80
0000
0000
0000
0000
0000
ENDCHAR
STARTCHAR 221A
ENCODING 8730
SWIDTH 720 0
DWIDTH 12 0
BBX 12 10 0 -1
BITMAP
07E0
0400
0400
0800
0800
0800
5000
B000
1000
0000
ENDCHAR
STARTCHAR 221D
ENCODING 8733
SWIDTH 720 0
DWIDTH 12 0
BBX 12 10 0 -1
BITMAP
0000
0000
71C0
8A00
8400
8A00
71C0
0000
0000
0000
ENDCHAR
STARTCHAR 221E
ENCODING 8734
SWIDTH 720 0
DWIDTH 12 0
BBX 12 10 0 -1
BITMAP
0000
0000
71C0
8A20
8420
8A20
71C0
0000
0000
0000
ENDCHAR
STARTCHAR 221F
ENCODING 8735
SWIDTH 720 0
DWIDTH 12 0
BBX 12 10 0 -1
BITMAP
4000
4000
4000
4000
4000
4000
4000
4000
7FC0
0000
ENDCHAR
STARTCHAR 2220
ENCODING 8736
SWIDTH 720 0
DWIDTH 12 0
BBX 12 10 0 -1
BITMAP
0040
0080
0100
0200
0400
0800
1000
2000
7FC0
0000
ENDCHAR
STARTCHAR 2225
ENCODING 8741
SWIDTH 720 0
DWIDTH 12 0
BBX 12 10 0 -1
BITMAP
0A00
0A00
0A00
0A00
0A00
0A00
0A00
0A00
0A00
0000
ENDCHAR
STARTCHAR 2227
ENCODING 8743
SWIDTH 720 0
DWIDTH 12 0
BBX 12 10 0 -1
BITMAP
0400
0A00
0A00
1100
1100
2080
2080
4040
0000
0000
ENDCHAR
STARTCHAR 2228
ENCODING 8744
SWIDTH 720 0
DWIDTH 12 0
BBX 12 10 0 -1
BITMAP
0000
4040
2080
2080
1100
1100
0A00
0A00
0400
0000
ENDCHAR
STARTCHAR 2229
ENCODING 8745
SWIDTH 720 0
DWIDTH 12 0
BBX 12 10 0 -1
BITMAP
0E00
1100
2080
2080
2080
2080
2080
2080
2080
0000
ENDCHAR
STARTCHAR 222A
ENCODING 8746
SWIDTH 720 0
DWIDTH 12 0
BBX 12 10 0 -1
BITMAP
2080
2080
2080
2080
2080
2080
2080
1100
0E00
0000
ENDCHAR
STARTCHAR 222B
ENCODING 8747
SWIDTH 720 0
DWIDTH 12 0
BBX 12 10 0 -1
BITMAP
0600
0A00
0800
0400
0400
0200
0200
0A00
0C00
0000
ENDCHAR
STARTCHAR 222C
ENCODING 8748
SWIDTH 720 0
DWIDTH 12 0
BBX 12 10 0 -1
BITMAP
1980
2A80
2200
1100
1100
0880
0880
2A80
3300
0000
ENDCHAR
STARTCHAR 222E
ENCODING 8750
SWIDTH 720 0
DWIDTH 12 0
BBX 12 10 0 -1
BITMAP
0600
0A00
0800
1F00
2480
1F00
0200
0A00
0C00
0000
ENDCHAR
STARTCHAR 2234
ENCODING 8756
SWIDTH 720 0
DWIDTH 12 0
BBX 12 10 0 -1
BITMAP
0000
0600
0600
0000
0000
0000
30C0
30C0
0000
0000
ENDCHAR
STARTCHAR 2235
ENCODING 8757
SWIDTH 720 0
DWIDTH 12 0
BBX 12 10 0 -1
BITMAP
0000
30C0
30C0
0000
0000
0000
0600
0600
0000
0000
ENDCHAR
STARTCHAR 223D
ENCODING 8765
SWIDTH 720 0
DWIDTH 12 0
BBX 12 10 0 -1
BITMAP
0000
0000
71C0
8220
8420
8820
71C0
0000
0000
0000
ENDCHAR
STARTCHAR 2252
ENCODING 8786
SWIDTH 720 0
DWIDTH 12 0
BBX 12 10 0 -1
BITMAP
3000
3000
0000
7FC0
0000
7FC0
0000
0180
0180
0000
ENDCHAR
STARTCHAR 2260
ENCODING 8800
SWIDTH 720 0
DWIDTH 12 0
BBX 12 10 0 -1
BITMAP
0000
0100
0200
7FC0
0400
0800
7FC0
1000
2000
0000
ENDCHAR
STARTCHAR 2261
ENCODING 8801
SWIDTH 720 0
DWIDTH 12 0
BBX 12 10 0 -1
BITMAP
0000
0000
7FC0
0000
7FC0
0000
7FC0
0000
0000
0000
ENDCHAR
STARTCHAR 2266
ENCODING 8806
SWIDTH 720 0
DWIDTH 12 0
BBX 12 10 0 -1
BITMAP
01C0
0E00
7000
0E00
01C0
0000
7FC0
0000
7FC0
0000
ENDCHAR
STARTCHAR 2267
ENCODING 8807
SWIDTH 720 0
DWIDTH 12 0
BBX 12 10 0 -1
BITMAP
7000
0E00
01C0
0E00
7000
0000
7FC0
0000
7FC0
0000
ENDCHAR
STARTCHAR 226A
ENCODING 8810
SWIDTH 720 0
DWIDTH 12 0
BBX 12 10 0 -1
BITMAP
0440
0880
1100
2200
4400
2200
1100
0880
0440
0000
ENDCHAR
STARTCHAR 226B
ENCODING 8811
SWIDTH 720 0
DWIDTH 12 0
BBX 12 10 0 -1
BITMAP
4400
2200
1100
0880
0440
0880
1100
2200
4400
0000
ENDCHAR
STARTCHAR 2282
ENCODING 8834
SWIDTH 720 0
DWIDTH 12 0
BBX 12 10 0 -1
BITMAP
0000
1FC0
2000
4000
4000
4000
2000
1FC0
0000
0000
ENDCHAR
STARTCHAR 2283
ENCODING 8835
SWIDTH 720 0
DWIDTH 12 0
BBX 12 10 0 -1
BITMAP
0000
7F00
0080
0040
0040
0040
0080
7F00
0000
0000
ENDCHAR
STARTCHAR 2286
ENCODING 8838
SWIDTH 720 0
DWIDTH 12 0
BBX 12 10 0 -1
BITMAP
0000
3FC0
4000
4000
4000
3FC0
0000
0000
7FC0
0000
ENDCHAR
STARTCHAR 2287
ENCODING 8839
SWIDTH 720 0
DWIDTH 12 0
BBX 12 10 0 -1
BITMAP
0000
7F80
0040
0040
0040
7F80
0000
0000
7FC0
0000
ENDCHAR
STARTCHAR 22A5
ENCODING 8869
SWIDTH 720 0
DWIDTH 12 0
BBX 12 10 0 -1
BITMAP
0400
0400
0400
0400
0400
0400
0400
0400
7FC0
0000
ENDCHAR
STARTCHAR 22BF
ENCODING 8895
SWIDTH 720 0
DWIDTH 12 0
BBX 12 10 0 -1
BITMAP
0040
00C0
0140
0240
0440
0840
1040
2040
7FC0
0000
ENDCHAR
STARTCHAR 2312
ENCODING 8978
SWIDTH 720 0
DWIDTH 12 0
BBX 12 10 0 -1
BITMAP
1F00
60C0
8020
0000
0000
0000
0000
0000
0000
0000
ENDCHAR
STARTCHAR 2460
ENCODING 9312
SWIDTH 720 0
DWIDTH 12 0
BBX 12 10 0 -1
BITMAP
3F80
4040
8C20
8420
8420
8420
8420
4040
3F80
0000
ENDCHAR
STARTCHAR 2461
ENCODING 9313
SWIDTH 720 0
DWIDTH 12 0
BBX 12 10 0 -1
BITMAP
3F80
4040
9E20
8120
8E20
9020
9F20
4040
3F80
0000
ENDCHAR
STARTCHAR 2462
ENCODING 9314
SWIDTH 720 0
DWIDTH 12 0
BBX 12 10 0 -1
BITMAP
3F80
4040
9E20
8120
8E20
8120
9E20
4040
3F80
0000
ENDCHAR
STARTCHAR 2463
ENCODING 9315
SWIDTH 720 0
DWIDTH 12 0
BBX 12 10 0 -1
BITMAP
3F80
4040
8620
8A20
9220
9F20
8220
4040
3F80
0000
ENDCHAR
STARTCHAR 2464
ENCODING 9316
SWIDTH 720 0
DWIDTH 12 0
BBX 12 10 0 -1
BITMAP
3F80
4040
9F20
9020
9E20
8120
9E20
4040
3F80
0000
ENDCHAR
STARTCHAR 2465
ENCODING 9317
SWIDTH 720 0
DWIDTH 12 0
BBX 12 10 0 -1
BITMAP
3F80
4040
8E20
9020
9E20
9120
8E20
4040
3F80
0000
ENDCHAR
STARTCHAR 2466
ENCODING 9318
SWIDTH 720 0
DWIDTH 12 0
BBX 12 10 0 -1
BITMAP
3F80
4040
9F20
9120
8220
8420
8420
4040
3F80
0000
ENDCHAR
STARTCHAR 2467
ENCODING 9319
SWIDTH 720 0
DWIDTH 12 0
BBX 12 10 0 -1
BITMAP
3F80
4040
8E20
9120
8E20
9120
8E20
4040
3F80
0000
ENDCHAR
STARTCHAR 2468
ENCODING 9320
SWIDTH 720 0
DWIDTH 12 0
BBX 12 10 0 -1
BITMAP
3F80
4040
8E20
9120
8F20
8120
9E20
4040
3F80
0000
ENDCHAR
STARTCHAR 2469
ENCODING 9321
SWIDTH 720 0
DWIDTH 12 0
BBX 12 10 0 -1
BITMAP
3F80
4040
B320
94A0
94A0
94A0
9320
4040
3F80
0000
ENDCHAR
STARTCHAR 246A
ENCODING 9322
SWIDTH 720 0
DWIDTH 12 0
BBX 12 10 0 -1
BITMAP
3F80
4040
B320
9120
9120
9120
9120
4040
3F80
0000
ENDCHAR
STARTCHAR 246B
ENCODING 9323
SWIDTH 720 0
DWIDTH 12 0
BBX 12 10 0 -1
BITMAP
3F80
4040
B720
90A0
9320
9420
97A0
4040
3F80
0000
ENDCHAR
STARTCHAR 246C
ENCODING 9324
SWIDTH 720 0
DWIDTH 12 0
BBX 12 10 0 -1
BITMAP
3F80
4040
B720
90A0
9720
90A0
9720
4040
3F80
0000
ENDCHAR
STARTCHAR 246D
ENCODING 9325
SWIDTH 720 0
DWIDTH 12 0
BBX 12 10 0 -1
BITMAP
3F80
4040
B120
9320
9520
97A0
9120
4040
3F80
0000
ENDCHAR
STARTCHAR 246E
ENCODING 9326
SWIDTH 720 0
DWIDTH 12 0
BBX 12 10 0 -1
BITMAP
3F80
4040
B7A0
9420
9720
90A0
9720
4040
3F80
0000
ENDCHAR
STARTCHAR 246F
ENCODING 9327
SWIDTH 720 0
DWIDTH 12 0
BBX 12 10 0 -1
BITMAP
3F80
4040
B320
9420
9720
94A0
9320
4040
3F80
0000
ENDCHAR
STARTCHAR 2470
ENCODING 9328
SWIDTH 720 0
DWIDTH 12 0
BBX 12 10 0 -1
BITMAP
3F80
4040
B7A0
94A0
9120
9120
9120
4040
3F80
0000
ENDCHAR
STARTCHAR 2471
ENCODING 9329
SWIDTH 720 0
DWIDTH 12 0
BBX 12 10 0 -1
BITMAP
3F80
4040
B320
94A0
9320
94A0
9320
4040
3F80
0000
ENDCHAR
STARTCHAR 2472
ENCODING 9330
SWIDTH 720 0
DWIDTH 12 0
BBX 12 10 0 -1
BITMAP
3F80
4040
B320
94A0
93A0
90A0
9720
4040
3F80
0000
ENDCHAR
STARTCHAR 2473
ENCODING 9331
SWIDTH 720 0
DWIDTH 12 0
BBX 12 10 0 -1
BITMAP
3F80
4040
B120
8AA0
9AA0
A2A0
B920
4040
3F80
0000
ENDCHAR
STARTCHAR 2500
ENCODING 9472
SWIDTH 720 0
DWIDTH 12 0
BBX 12 10 0 -1
BITMAP
0000
0000
0000
0000
FFF0
0000
0000
0000
0000
0000
ENDCHAR
STARTCHAR 2501
ENCODING 9473
SWIDTH 720 0
DWIDTH 12 0
BBX 12 10 0 -1
BITMAP
0000
0000
0000
0000
FFF0
FFF0
0000
0000
0000
0000
ENDCHAR
STARTCHAR 2502
ENCODING 9474
SWIDTH 720 0
DWIDTH 12 0
BBX 12 10 0 -1
BITMAP
0400
0400
0400
0400
0400
0400
0400
0400
0400
0400
ENDCHAR
STARTCHAR 2503
ENCODING 9475
SWIDTH 720 0
DWIDTH 12 0
BBX 12 10 0 -1
BITMAP
0600
0600
0600
0600
0600
0600
0600
0600
0600
0600
ENDCHAR
STARTCHAR 250C
ENCODING 9484
SWIDTH 720 0
DWIDTH 12 0
BBX 12 10 0 -1
BITMAP
0000
0000
0000
0000
07F0
0400
0400
0400
0400
0400
ENDCHAR
STARTCHAR 250F
ENCODING 9487
SWIDTH 720 0
DWIDTH 12 0
BBX 12 10 0 -1
BITMAP
0000
0000
0000
0000
07F0
07F0
0600
0600
0600
0600
ENDCHAR
STARTCHAR 2510
ENCODING 9488
SWIDTH 720 0
DWIDTH 12 0
BBX 12 10 0 -1
BITMAP
0000
0000
0000
0000
FC00
0400
0400
0400
0400
0400
ENDCHAR
STARTCHAR 2513
ENCODING 9491
SWIDTH 720 0
DWIDTH 12 0
BBX 12 10 0 -1
BITMAP
0000
0000
0000
0000
FE00
FE00
0600
0600
0600
0600
ENDCHAR
STARTCHAR 2514
ENCODING 9492
SWIDTH 720 0
DWIDTH 12 0
BBX 12 10 0 -1
BITMAP
0400
0400
0400
0400
07F0
0000
0000
0000
0000
0000
ENDCHAR
STARTCHAR 2517
ENCODING 9495
SWIDTH 720 0
DWIDTH 12 0
BBX 12 10 0 -1
BITMAP
0600
0600
0600
0600
07F0
07F0
0000
0000
0000
0000
ENDCHAR
STARTCHAR 2518
ENCODING 9496
SWIDTH 720 0
DWIDTH 12 0
BBX 12 10 0 -1
BITMAP
0400
0400
0400
0400
FC00
0000
0000
0000
0000
0000
ENDCHAR
STARTCHAR 251B
ENCODING 9499
SWIDTH 720 0
DWIDTH 12 0
BBX 12 10 0 -1
BITMAP
0600
0600
0600
0600
FE00
FE00
0000
0000
0000
0000
ENDCHAR
STARTCHAR 251C
ENCODING 9500
SWIDTH 720 0
DWIDTH 12 0
BBX 12 10 0 -1
BITMAP
0400
0400
0400
0400
07F0
0400
0400
0400
0400
0400
ENDCHAR
STARTCHAR 251D
ENCODING 9501
SWIDTH 720 0
DWIDTH 12 0
BBX 12 10 0 -1
BITMAP
0400
0400
0400
0400
07F0
07F0
0400
0400
0400
0400
ENDCHAR
STARTCHAR 2520
ENCODING 9504
SWIDTH 720 0
DWIDTH 12 0
BBX 12 10 0 -1
BITMAP
0600
0600
0600
0600
07F0
0600
0600
0600
0600
0600
ENDCHAR
STARTCHAR 2523
ENCODING 9507
SWIDTH 720 0
DWIDTH 12 0
BBX 12 10 0 -1
BITMAP
0600
0600
0600
0600
07F0
07F0
0600
0600
0600
0600
ENDCHAR
STARTCHAR 2524
ENCODING 9508
SWIDTH 720 0
DWIDTH 12 0
BBX 12 10 0 -1
BITMAP
0400
0400
0400
0400
FC00
0400
0400
0400
0400
0400
ENDCHAR
STARTCHAR 2525
ENCODING 9509
SWIDTH 720 0
DWIDTH 12 0
BBX 12 10 0 -1
BITMAP
0400
0400
0400
0400
FC00
FC00
0400
0400
0400
0400
ENDCHAR
STARTCHAR 2528
ENCODING 9512
SWIDTH 720 0
DWIDTH 12 0
BBX 12 10 0 -1
BITMAP
0600
0600
0600
0600
FE00
0600
0600
0600
0600
0600
ENDCHAR
STARTCHAR 252B
ENCODING 9515
SWIDTH 720 0
DWIDTH 12 0
BBX 12 10 0 -1
BITMAP
0600
0600
0600
0600
FE00
FE00
0600
0600
0600
0600
ENDCHAR
STARTCHAR 252C
ENCODING 9516
SWIDTH 720 0
DWIDTH 12 0
BBX 12 10 0 -1
BITMAP
0000
0000
0000
0000
FFF0
0400
0400
0400
0400
0400
ENDCHAR
STARTCHAR 252F
ENCODING 9519
SWIDTH 720 0
DWIDTH 12 0
BBX 12 10 0 -1
BITMAP
0000
0000
0000
0000
FFF0
FFF0
0400
0400
0400
0400
ENDCHAR
STARTCHAR 2530
ENCODING 9520
SWIDTH 720 0
DWIDTH 12 0
BBX 12 10 0 -1
BITMAP
0000
0000
0000
0000
FFF0
0600
0600
0600
0600
0600
ENDCHAR
STARTCHAR 2533
ENCODING 9523
SWIDTH 720 0
DWIDTH 12 0
BBX 12 10 0 -1
BITMAP
0000
0000
0000
0000
FFF0
FFF0
0600
0600
0600
0600
ENDCHAR
STARTCHAR 2534
ENCODING 9524
SWIDTH 720 0
DWIDTH 12 0
BBX 12 10 0 -1
BITMAP
0400
0400
0400
0400
FFF0
0000
0000
0000
0000
0000
ENDCHAR
STARTCHAR 2537
ENCODING 9527
SWIDTH 720 0
DWIDTH 12 0
BBX 12 10 0 -1
BITMAP
0400
0400
0400
0400
FFF0
FFF0
0000
0000
0000
0000
ENDCHAR
STARTCHAR 2538
ENCODING 9528
SWIDTH 720 0
DWIDTH 12 0
BBX 12 10 0 -1
BITMAP
0600
0600
0600
0600
FFF0
0000
0000
0000
0000
0000
ENDCHAR
STARTCHAR 253B
ENCODING 9531
SWIDTH 720 0
DWIDTH 12 0
BBX 12 10 0 -1
BITMAP
0600
0600
0600
0600
FFF0
FFF0
0000
0000
0000
0000
ENDCHAR
STARTCHAR 253C
ENCODING 9532
SWIDTH 720 0
DWIDTH 12 0
BBX 12 10 0 -1
BITMAP
0400
0400
0400
0400
FFF0
0400
0400
0400
0400
0400
ENDCHAR
STARTCHAR 253F
ENCODING 9535
SWIDTH 720 0
DWIDTH 12 0
BBX 12 10 0 -1
BITMAP
0400
0400
0400
0400
FFF0
FFF0
0400
0400
0400
0400
ENDCHAR
STARTCHAR 2542
ENCODING 9538
SWIDTH 720 0
DWIDTH 12 0
BBX 12 10 0 -1
BITMAP
0600
0600
0600
0600
FFF0
0600
0600
0600
0600
0600
ENDCHAR
STARTCHAR 254B
ENCODING 9547
SWIDTH 720 0
DWIDTH 12 0
BBX 12 10 0 -1
BITMAP
0600
0600
0600
0600
FFF0
FFF0
0600
0600
0600
0600
ENDCHAR
STARTCHAR 25A0
ENCODING 9632
SWIDTH 720 0
DWIDTH 12 0
BBX 12 10 0 -1
BITMAP
7FC0
7FC0
7FC0
7FC0
7FC0
7FC0
7FC0
7FC0
7FC0
0000
ENDCHAR
STARTCHAR 25A1
ENCODING 9633
SWIDTH 720 0
DWIDTH 12 0
BBX 12 10 0 -1
BITMAP
7FC0
4040
4040
4040
4040
4040
4040
4040
7FC0
0000
ENDCHAR
STARTCHAR 25B2
ENCODING 9650
SWIDTH 720 0
DWIDTH 12 0
BBX 12 10 0 -1
BITMAP
0400
0E00
0E00
1F00
1F00
3F80
3F80
7FC0
7FC0
0000
ENDCHAR
STARTCHAR 25B3
ENCODING 9651
SWIDTH 720 0
DWIDTH 12 0
BBX 12 10 0 -1
BITMAP
0400
0A00
0A00
1100
1100
2080
2080
4040
7FC0
0000
ENDCHAR
STARTCHAR 25BC
ENCODING 9660
SWIDTH 720 0
DWIDTH 12 0
BBX 12 10 0 -1
BITMAP
7FC0
7FC0
3F80
3F80
1F00
1F00
0E00
0E00
0400
0000
ENDCHAR
STARTCHAR 25BD
ENCODING 9661
SWIDTH 720 0
DWIDTH 12 0
BBX 12 10 0 -1
BITMAP
7FC0
4040
2080
2080
1100
1100
0A00
0A00
0400
0000
ENDCHAR
STARTCHAR 25C6
ENCODING 9670
SWIDTH 720 0
DWIDTH 12 0
BBX 12 10 0 -1
BITMAP
0400
0E00
1F00
3F80
7FC0
3F80
1F00
0E00
0400
0000
ENDCHAR
STARTCHAR 25C7
ENCODING 9671
SWIDTH 720 0
DWIDTH 12 0
BBX 12 10 0 -1
BITMAP
0400
0A00
1100
2080
4040
2080
1100
0A00
0400
0000
ENDCHAR
STARTCHAR 25CB
ENCODING 9675
SWIDTH 720 0
DWIDTH 12 0
BBX 12 10 0 -1
BITMAP
0E00
1100
2080
4040
4040
4040
2080
1100
0E00
0000
ENDCHAR
STARTCHAR 25CE
ENCODING 9678
SWIDTH 720 0
DWIDTH 12 0
BBX 12 10 0 -1
BITMAP
0E00
1100
2E80
5140
5140
5140
2E80
1100
0E00
0000
ENDCHAR
STARTCHAR 25CF
ENCODING 9679
SWIDTH 720 0
DWIDTH 12 0
BBX 12 10 0 -1
BITMAP
0E00
1F00
3F80
7FC0
7FC0
7FC0
3F80
1F00
0E00
0000
ENDCHAR
STARTCHAR 25EF
ENCODING 9711
SWIDTH 720 0
DWIDTH 12 0
BBX 12 10 0 -1
BITMAP
1F00
2080
4040
4040
4040
4040
4040
2080
1F00
0000
ENDCHAR
STARTCHAR 2605
ENCODING 9733
SWIDTH 720 0
DWIDTH 12 0
BBX 12 10 0 -1
BITMAP
0400
0400
0E00
FFE0
3F80
1F00
3F80
3180
4040
0000
ENDCHAR
STARTCHAR 2606
ENCODING 9734
SWIDTH 720 0
DWIDTH 12 0
BBX 12 10 0 -1
BITMAP
0400
0400
0A00
F1E0
4040
2080
2E80
3180
4040
0000
ENDCHAR
STARTCHAR 2640
ENCODING 9792
SWIDTH 720 0
DWIDTH 12 0
BBX 12 10 0 -1
BITMAP
0E00
1100
1100
1100
0E00
0400
3F80
0400
0400
0000
ENDCHAR
STARTCHAR 2642
ENCODING 9794
SWIDTH 720 0
DWIDTH 12 0
BBX 12 10 0 -1
BITMAP
07C0
00C0
0140
0240
3C40
4400
4400
4400
3800
0000
ENDCHAR
STARTCHAR 266A
ENCODING 9834
SWIDTH 720 0
DWIDTH 12 0
BBX 12 10 0 -1
BITMAP
0600
0700
0580
0480
0480
0480
1D00
3C00
3800
0000
ENDCHAR
STARTCHAR 266D
ENCODING 9837
SWIDTH 720 0
DWIDTH 12 0
BBX 12 10 0 -1
BITMAP
1000
1000
1000
1700
1880
1080
1100
1600
1800
0000
ENDCHAR
STARTCHAR 266F
ENCODING 9839
SWIDTH 720 0
DWIDTH 12 0
BBX 12 10 0 -1
BITMAP
0900
09C0
0F00
3900
0900
09C0
0F00
3900
0900
0000
ENDCHAR
STARTCHAR 3000
ENCODING 12288
SWIDTH 720 0
DWIDTH 12 0
BBX 12 10 0 -1
BITMAP
0000
0000
0000
0000
0000
0000
0000
0000
0000
0000
ENDCHAR
STARTCHAR 3001
ENCODING 12289
SWIDTH 720 0
DWIDTH 12 0
BBX 12 10 0 -1
BITMAP
0000
0000
0000
0000
0000
0000
4000
2000
1000
0000
ENDCHAR
STARTCHAR 3002
ENCODING 12290
SWIDTH 720 0
DWIDTH 12 0
BBX 12 10 0 -1
BITMAP
0000
0000
0000
0000
0000
0000
3000
4800
3000
0000
ENDCHAR
STARTCHAR 3003
ENCODING 12291
SWIDTH 720 0
DWIDTH 12 0
BBX 12 10 0 -1
BITMAP
0000
0000
0880
0880
1100
1100
2200
0000
0000
0000
ENDCHAR
STARTCHAR 3005
ENCODING 12293
SWIDTH 720 0
DWIDTH 12 0
BBX 12 10 0 -1
BITMAP
0000
0800
0800
0FC0
1040
2080
4D00
0200
0100
0000
ENDCHAR
STARTCHAR 3006
ENCODING 12294
SWIDTH 720 0
DWIDTH 12 0
BBX 12 10 0 -1
BITMAP
0040
0080
0100
1A00
2400
2A00
5000
6000
4000
0000
ENDCHAR
STARTCHAR 3007
ENCODING 12295
SWIDTH 720 0
DWIDTH 12 0
BBX 12 10 0 -1
BITMAP
0000
1F00
2080
4040
4040
4040
2080
1F00
0000
0000
ENDCHAR
STARTCHAR 3008
ENCODING 12296
SWIDTH 720 0
DWIDTH 12 0
BBX 12 10 0 -1
BITMAP
0080
0080
0100
0100
0200
0100
0100
0080
0080
0000
ENDCHAR
STARTCHAR 3009
ENCODING 12297
SWIDTH 720 0
DWIDTH 12 0
BBX 12 10 0 -1
BITMAP
2000
2000
1000
1000
0800
1000
1000
2000
2000
0000
ENDCHAR
STARTCHAR 300A
ENCODING 12298
SWIDTH 720 0
DWIDTH 12 0
BBX 12 10 0 -1
BITMAP
0240
0240
0480
0480
0900
0480
0480
0240
0240
0000
ENDCHAR
STARTCHAR 300B
ENCODING 12299
SWIDTH 720 0
DWIDTH 12 0
BBX 12 10 0 -1
BITMAP
4800
4800
2400
2400
1200
2400
2400
4800
4800
0000
ENDCHAR
STARTCHAR 300C
ENCODING 12300
SWIDTH 720 0
DWIDTH 12 0
BBX 12 10 0 -1
BITMAP
03C0
0200
0200
0200
0200
0200
0000
0000
0000
0000
ENDCHAR
STARTCHAR 300D
ENCODING 12301
SWIDTH 720 0
DWIDTH 12 0
BBX 12 10 0 -1
BITMAP
0000
0000
0000
0800
0800
0800
0800
0800
7800
0000
ENDCHAR
STARTCHAR 300E
ENCODING 12302
SWIDTH 720 0
DWIDTH 12 0
BBX 12 10 0 -1
BITMAP
07E0
0420
05E0
0500
0500
0500
0700
0000
0000
0000
ENDCHAR
STARTCHAR 300F
ENCODING 12303
SWIDTH 720 0
DWIDTH 12 0
BBX 12 10 0 -1
BITMAP
0000
0000
1C00
1400
1400
1400
F400
8400
FC00
0000
ENDCHAR
STARTCHAR 3010
ENCODING 12304
SWIDTH 720 0
DWIDTH 12 0
BBX 12 10 0 -1
BITMAP
03C0
0380
0300
0200
0200
0200
0300
0380
03C0
0000
ENDCHAR
STARTCHAR 3011
ENCODING 12305
SWIDTH 720 0
DWIDTH 12 0
BBX 12 10 0 -1
BITMAP
7800
3800
1800
0800
0800
0800
1800
3800
7800
0000
ENDCHAR
STARTCHAR 3012
ENCODING 12306
SWIDTH 720 0
DWIDTH 12 0
BBX 12 10 0 -1
BITMAP
7FC0
0000
0000
FFE0
0400
0400
0400
0400
0400
0000
ENDCHAR
STARTCHAR 3013
ENCODING 12307
SWIDTH 720 0
DWIDTH 12 0
BBX 12 10 0 -1
BITMAP
7FC0
7FC0
7FC0
0000
0000
0000
7FC0
7FC0
7FC0
0000
ENDCHAR
STARTCHAR 3014
ENCODING 12308
SWIDTH 720 0
DWIDTH 12 0
BBX 12 10 0 -1
BITMAP
0080
0300
0200
0200
0200
0200
0200
0300
0080
0000
ENDCHAR
STARTCHAR 3015
ENCODING 12309
SWIDTH 720 0
DWIDTH 12 0
BBX 12 10 0 -1
BITMAP
2000
1800
0800
0800
0800
0800
0800
1800
2000
0000
ENDCHAR
STARTCHAR 301C
ENCODING 12316
SWIDTH 720 0
DWIDTH 12 0
BBX 12 10 0 -1
BITMAP
0000
0000
0000
3820
4440
8380
0000
0000
0000
0000
ENDCHAR
STARTCHAR 301D
ENCODING 12317
SWIDTH 720 0
DWIDTH 12 0
BBX 12 10 0 -1
BITMAP
0240
0240
0480
0000
0000
0000
0000
0000
0000
0000
ENDCHAR
STARTCHAR 301F
ENCODING 12319
SWIDTH 720 0
DWIDTH 12 0
BBX 12 10 0 -1
BITMAP
0000
0000
0000
0000
0000
0000
2400
2400
4800
0000
ENDCHAR
STARTCHAR 3041
ENCODING 12353
SWIDTH 720 0
DWIDTH 12 0
BBX 12 10 0 -1
BITMAP
0000
0000
0800
3F00
0800
1F00
2A80
2C80
1900
0000
ENDCHAR
STARTCHAR 3042
ENCODING 12354
SWIDTH 720 0
DWIDTH 12 0
BBX 12 10 0 -1
BITMAP
1000
7F00
1000
1F80
3240
5220
9420
9840
7380
0000
ENDCHAR
STARTCHAR 3043
ENCODING 12355
SWIDTH 720 0
DWIDTH 12 0
BBX 12 10 0 -1
BITMAP
0000
0000
0000
2080
2040
2040
2040
1400
0800
0000
ENDCHAR
STARTCHAR 3044
ENCODING 12356
SWIDTH 720 0
DWIDTH 12 0
BBX 12 10 0 -1
BITMAP
0000
4000
4080
4040
4020
4020
2020
2800
1000
0000
ENDCHAR
STARTCHAR 3045
ENCODING 12357
SWIDTH 720 0
DWIDTH 12 0
BBX 12 10 0 -1
BITMAP
0000
0000
1E00
0000
0F00
3080
0080
0100
0E00
0000
ENDCHAR
STARTCHAR 3046
ENCODING 12358
SWIDTH 720 0
DWIDTH 12 0
BBX 12 10 0 -1
BITMAP
1F00
0000
1F80
6040
0040
0040
0080
0300
0C00
0000
ENDCHAR
STARTCHAR 3047
ENCODING 12359
SWIDTH 720 0
DWIDTH 12 0
BBX 12 10 0 -1
BITMAP
0000
0000
0E00
0000
1F00
0400
0C00
1200
2180
0000
ENDCHAR
STARTCHAR 3048
ENCODING 12360
SWIDTH 720 0
DWIDTH 12 0
BBX 12 10 0 -1
BITMAP
1E00
0000
3F00
0200
0400
0C00
1200
2200
41C0
0000
ENDCHAR
STARTCHAR 3049
ENCODING 12361
SWIDTH 720 0
DWIDTH 12 0
BBX 12 10 0 -1
BITMAP
0000
0000
0800
3C80
0840
0F00
1880
2880
1900
0000
ENDCHAR
STARTCHAR 304A
ENCODING 12362
SWIDTH 720 0
DWIDTH 12 0
BBX 12 10 0 -1
BITMAP
1000
7E40
1020
1F20
3080
5040
9040
9040
7180
0000
ENDCHAR
STARTCHAR 304B
ENCODING 12363
SWIDTH 720 0
DWIDTH 12 0
BBX 12 10 0 -1
BITMAP
0800
0880
7E40
1120
1120
2100
2100
4900
4600
0000
ENDCHAR
STARTCHAR 304C
ENCODING 12364
SWIDTH 720 0
DWIDTH 12 0
BBX 12 10 0 -1
BITMAP
0820
0850
7EA0
1140
1120
2120
2100
4900
4600
0000
ENDCHAR
STARTCHAR 304D
ENCODING 12365
SWIDTH 720 0
DWIDTH 12 0
BBX 12 10 0 -1
BITMAP
0400
3F80
0200
7FC0
0100
1F00
2080
2000
1F00
0000
ENDCHAR
STARTCHAR 304E
ENCODING 12366
SWIDTH 720 0
DWIDTH 12 0
BBX 12 10 0 -1
BITMAP
0420
3F90
0240
7F80
0100
1F00
2080
2000
1F00
0000
ENDCHAR
STARTCHAR 304F
ENCODING 12367
SWIDTH 720 0
DWIDTH 12 0
BBX 12 10 0 -1
BITMAP
0200
0400
0800
1000
2000
1800
0400
0200
0100
0000
ENDCHAR
STARTCHAR 3050
ENCODING 12368
SWIDTH 720 0
DWIDTH 12 0
BBX 12 10 0 -1
BITMAP
0200
0440
0920
1080
2000
1800
0400
0200
0100
0000
ENDCHAR
STARTCHAR 3051
ENCODING 12369
SWIDTH 720 0
DWIDTH 12 0
BBX 12 10 0 -1
BITMAP
2080
2080
47E0
4080
4080
4080
4080
4080
2100
0000
ENDCHAR
STARTCHAR 3052
ENCODING 12370
SWIDTH 720 0
DWIDTH 12 0
BBX 12 10 0 -1
BITMAP
4120
4190
8FC0
8100
8100
8100
8100
8100
4200
0000
ENDCHAR
STARTCHAR 3053
ENCODING 12371
SWIDTH 720 0
DWIDTH 12 0
BBX 12 10 0 -1
BITMAP
0000
3F00
0080
0000
0000
0000
4000
4040
3F80
0000
ENDCHAR
STARTCHAR 3054
ENCODING 12372
SWIDTH 720 0
DWIDTH 12 0
BBX 12 10 0 -1
BITMAP
0020
3E90
0140
0000
0000
0000
4000
4040
3F80
0000
ENDCHAR
STARTCHAR 3055
ENCODING 12373
SWIDTH 720 0
DWIDTH 12 0
BBX 12 10 0 -1
BITMAP
0400
7F80
0200
0100
3F00
4080
4000
2000
1F00
0000
ENDCHAR
STARTCHAR 3056
ENCODING 12374
SWIDTH 720 0
DWIDTH 12 0
BBX 12 10 0 -1
BITMAP
0420
7F90
0240
0100
3F00
4080
4000
2000
1F00
0000
ENDCHAR
STARTCHAR 3057
ENCODING 12375
SWIDTH 720 0
DWIDTH 12 0
BBX 12 10 0 -1
BITMAP
2000
2000
2000
2000
2000
2000
2040
1180
0E00
0000
ENDCHAR
STARTCHAR 3058
ENCODING 12376
SWIDTH 720 0
DWIDTH 12 0
BBX 12 10 0 -1
BITMAP
2080
2240
2100
2000
2000
2000
2040
1180
0E00
0000
ENDCHAR
STARTCHAR 3059
ENCODING 12377
SWIDTH 720 0
DWIDTH 12 0
BBX 12 10 0 -1
BITMAP
0200
FFE0
0E00
1200
1200
0E00
0200
0400
0800
0000
ENDCHAR
STARTCHAR 305A
ENCODING 12378
SWIDTH 720 0
DWIDTH 12 0
BBX 12 10 0 -1
BITMAP
0220
FFD0
0E40
1220
1200
0E00
0200
0400
0800
0000
ENDCHAR
STARTCHAR 305B
ENCODING 12379
SWIDTH 720 0
DWIDTH 12 0
BBX 12 10 0 -1
BITMAP
2100
2100
FFE0
2100
2100
2300
2000
2000
1F80
0000
ENDCHAR
STARTCHAR 305C
ENCODING 12380
SWIDTH 720 0
DWIDTH 12 0
BBX 12 10 0 -1
BITMAP
2120
2110
FFC0
2120
2100
2300
2000
2000
1F80
0000
ENDCHAR
STARTCHAR 305D
ENCODING 12381
SWIDTH 720 0
DWIDTH 12 0
BBX 12 10 0 -1
BITMAP
1F80
0200
0C00
7FE0
0400
0800
0800
0400
0380
0000
ENDCHAR
STARTCHAR 305E
ENCODING 12382
SWIDTH 720 0
DWIDTH 12 0
BBX 12 10 0 -1
BITMAP
1FA0
0290
0C40
7FE0
0400
0800
0800
0400
0380
0000
ENDCHAR
STARTCHAR 305F
ENCODING 12383
SWIDTH 720 0
DWIDTH 12 0
BBX 12 10 0 -1
BITMAP
1000
7E00
1000
1000
23C0
2000
2000
4400
43E0
0000
ENDCHAR
STARTCHAR 3060
ENCODING 12384
SWIDTH 720 0
DWIDTH 12 0
BBX 12 10 0 -1
BITMAP
1020
7E90
1040
1000
23C0
2000
2000
4400
43E0
0000
ENDCHAR
STARTCHAR 3061
ENCODING 12385
SWIDTH 720 0
DWIDTH 12 0
BBX 12 10 0 -1
BITMAP
0400
7F80
0800
1000
1F80
2040
0040
0080
0700
0000
ENDCHAR
STARTCHAR 3062
ENCODING 12386
SWIDTH 720 0
DWIDTH 12 0
BBX 12 10 0 -1
BITMAP
0420
7F90
0840
1000
1F80
2040
0040
0080
0700
0000
ENDCHAR
STARTCHAR 3063
ENCODING 12387
SWIDTH 720 0
DWIDTH 12 0
BBX 12 10 0 -1
BITMAP
0000
0000
0000
0F80
7040
0040
0080
0100
0600
0000
ENDCHAR
STARTCHAR 3064
ENCODING 12388
SWIDTH 720 0
DWIDTH 12 0
BBX 12 10 0 -1
BITMAP
0000
1F80
E040
0020
0020
0040
0180
0E00
0000
0000
ENDCHAR
STARTCHAR 3065
ENCODING 12389
SWIDTH 720 0
DWIDTH 12 0
BBX 12 10 0 -1
BITMAP
00A0
1F50
E080
0040
0040
0080
0300
1C00
0000
0000
ENDCHAR
STARTCHAR 3066
ENCODING 12390
SWIDTH 720 0
DWIDTH 12 0
BBX 12 10 0 -1
BITMAP
00C0
FF00
0200
0400
0800
0800
0800
0400
0300
0000
ENDCHAR
STARTCHAR 3067
ENCODING 12391
SWIDTH 720 0
DWIDTH 12 0
BBX 12 10 0 -1
BITMAP
00C0
FF20
0290
0440
0800
0800
0800
0400
0300
0000
ENDCHAR
STARTCHAR 3068
ENCODING 12392
SWIDTH 720 0
DWIDTH 12 0
BBX 12 10 0 -1
BITMAP
1000
1000
0B80
1C00
2000
4000
4000
2000
1F80
0000
ENDCHAR
STARTCHAR 3069
ENCODING 12393
SWIDTH 720 0
DWIDTH 12 0
BBX 12 10 0 -1
BITMAP
1020
1090
0B40
1C00
2000
4000
4000
2000
1F80
0000
ENDCHAR
STARTCHAR 306A
ENCODING 12394
SWIDTH 720 0
DWIDTH 12 0
BBX 12 10 0 -1
BITMAP
1000
FC00
21C0
2020
4100
4100
8FC0
9120
0E00
0000
ENDCHAR
STARTCHAR 306B
ENCODING 12395
SWIDTH 720 0
DWIDTH 12 0
BBX 12 10 0 -1
BITMAP
2000
27C0
4000
4000
4000
4000
4400
4400
23E0
0000
ENDCHAR
STARTCHAR 306C
ENCODING 12396
SWIDTH 720 0
DWIDTH 12 0
BBX 12 10 0 -1
BITMAP
0200
2200
2F80
3440
6420
A820
91A0
AA40
41A0
0000
ENDCHAR
STARTCHAR 306D
ENCODING 12397
SWIDTH 720 0
DWIDTH 12 0
BBX 12 10 0 -1
BITMAP
2000
2000
FB80
2C40
3040
2040
63C0
A460
2380
0000
ENDCHAR
STARTCHAR 306E
ENCODING 12398
SWIDTH 720 0
DWIDTH 12 0
BBX 12 10 0 -1
BITMAP
0000
1F80
2440
4420
8820
8820
9020
6040
0180
0000
ENDCHAR
STARTCHAR 306F
ENCODING 12399
SWIDTH 720 0
DWIDTH 12 0
BBX 12 10 0 -1
BITMAP
2080
2080
4FE0
4080
4080
4080
4780
48C0
2720
0000
ENDCHAR
STARTCHAR 3070
ENCODING 12400
SWIDTH 720 0
DWIDTH 12 0
BBX 12 10 0 -1
BITMAP
4120
4110
9FC0
8120
8100
8100
8F00
9180
4E40
0000
ENDCHAR
STARTCHAR 3071
ENCODING 12401
SWIDTH 720 0
DWIDTH 12 0
BBX 12 10 0 -1
BITMAP
4160
4190
9FE0
8100
8100
8100
8F00
9180
4E40
0000
ENDCHAR
STARTCHAR 3072
ENCODING 12402
SWIDTH 720 0
DWIDTH 12 0
BBX 12 10 0 -1
BITMAP
0200
3100
E180
2140
4120
4100
4100
2200
1C00
0000
ENDCHAR
STARTCHAR 3073
ENCODING 12403
SWIDTH 720 0
DWIDTH 12 0
BBX 12 10 0 -1
BITMAP
0220
3190
E140
2180
4140
4100
4100
2200
1C00
0000
ENDCHAR
STARTCHAR 3074
ENCODING 12404
SWIDTH 720 0
DWIDTH 12 0
BBX 12 10 0 -1
BITMAP
0260
3190
E160
2180
4140
4100
4100
2200
1C00
0000
ENDCHAR
STARTCHAR 3075
ENCODING 12405
SWIDTH 720 0
DWIDTH 12 0
BBX 12 10 0 -1
BITMAP
0C00
0200
0000
0400
2480
2240
4220
9220
0C00
0000
ENDCHAR
STARTCHAR 3076
ENCODING 12406
SWIDTH 720 0
DWIDTH 12 0
BBX 12 10 0 -1
BITMAP
0840
0520
0080
0400
2480
2240
4220
9220
0C00
0000
ENDCHAR
STARTCHAR 3077
ENCODING 12407
SWIDTH 720 0
DWIDTH 12 0
BBX 12 10 0 -1
BITMAP
0CC0
0320
00C0
0400
2480
2240
4220
9220
0C00
0000
ENDCHAR
STARTCHAR 3078
ENCODING 12408
SWIDTH 720 0
DWIDTH 12 0
BBX 12 10 0 -1
BITMAP
0000
0000
0C00
1200
2100
C080
0040
0020
0000
0000
ENDCHAR
STARTCHAR 3079
ENCODING 12409
SWIDTH 720 0
DWIDTH 12 0
BBX 12 10 0 -1
BITMAP
0040
0120
0C80
1200
2100
C080
0040
0020
0000
0000
ENDCHAR
STARTCHAR 307A
ENCODING 12410
SWIDTH 720 0
DWIDTH 12 0
BBX 12 10 0 -1
BITMAP
00C0
0120
0CC0
1200
2100
C080
0040
0020
0000
0000
ENDCHAR
STARTCHAR 307B
ENCODING 12411
SWIDTH 720 0
DWIDTH 12 0
BBX 12 10 0 -1
BITMAP
2000
2FE0
4080
47E0
4080
4080
4780
48C0
2720
0000
ENDCHAR
STARTCHAR 307C
ENCODING 12412
SWIDTH 720 0
DWIDTH 12 0
BBX 12 10 0 -1
BITMAP
40A0
5FD0
8100
8FE0
8100
8100
8F00
B1C0
4E20
0000
ENDCHAR
STARTCHAR 307D
ENCODING 12413
SWIDTH 720 0
DWIDTH 12 0
BBX 12 10 0 -1
BITMAP
4060
5F90
8160
8FC0
8100
8100
8F00
91C0
4E20
0000
ENDCHAR
STARTCHAR 307E
ENCODING 12414
SWIDTH 720 0
DWIDTH 12 0
BBX 12 10 0 -1
BITMAP
0400
7FC0
0400
3F80
0400
0400
3E00
4580
3840
0000
ENDCHAR
STARTCHAR 307F
ENCODING 12415
SWIDTH 720 0
DWIDTH 12 0
BBX 12 10 0 -1
BITMAP
1E00
0200
0200
0440
3F40
48C0
90A0
6100
0200
0000
ENDCHAR
STARTCHAR 3080
ENCODING 12416
SWIDTH 720 0
DWIDTH 12 0
BBX 12 10 0 -1
BITMAP
1000
10C0
FC20
1000
7000
9040
6040
2040
1F80
0000
ENDCHAR
STARTCHAR 3081
ENCODING 12417
SWIDTH 720 0
DWIDTH 12 0
BBX 12 10 0 -1
BITMAP
0200
2200
2F80
3440
6420
A820
9020
A840
4180
0000
ENDCHAR
STARTCHAR 3082
ENCODING 12418
SWIDTH 720 0
DWIDTH 12 0
BBX 12 10 0 -1
BITMAP
1000
1000
FE00
2000
2080
FE40
2040
1080
0F00
0000
ENDCHAR
STARTCHAR 3083
ENCODING 12419
SWIDTH 720 0
DWIDTH 12 0
BBX 12 10 0 -1
BITMAP
0000
0000
0200
1200
1780
7840
0980
0400
0400
0000
ENDCHAR
STARTCHAR 3084
ENCODING 12420
SWIDTH 720 0
DWIDTH 12 0
BBX 12 10 0 -1
BITMAP
0200
2200
23C0
1C20
F020
08C0
0800
0400
0400
0000
ENDCHAR
STARTCHAR 3085
ENCODING 12421
SWIDTH 720 0
DWIDTH 12 0
BBX 12 10 0 -1
BITMAP
0000
0000
0400
2200
2F00
3280
2A80
2700
0400
0000
ENDCHAR
STARTCHAR 3086
ENCODING 12422
SWIDTH 720 0
DWIDTH 12 0
BBX 12 10 0 -1
BITMAP
0400
4780
4A40
5220
6220
4A40
4780
0400
0800
0000
ENDCHAR
STARTCHAR 3087
ENCODING 12423
SWIDTH 720 0
DWIDTH 12 0
BBX 12 10 0 -1
BITMAP
0000
0000
0400
0400
0780
0400
1E00
2500
1880
0000
ENDCHAR
STARTCHAR 3088
ENCODING 12424
SWIDTH 720 0
DWIDTH 12 0
BBX 12 10 0 -1
BITMAP
0400
0400
07C0
0400
0400
0400
3E00
4580
3840
0000
ENDCHAR
STARTCHAR 3089
ENCODING 12425
SWIDTH 720 0
DWIDTH 12 0
BBX 12 10 0 -1
BITMAP
1800
0600
2000
4000
4F80
7040
4040
0180
0E00
0000
ENDCHAR
STARTCHAR 308A
ENCODING 12426
SWIDTH 720 0
DWIDTH 12 0
BBX 12 10 0 -1
BITMAP
2080
2080
2080
2080
2880
1080
0100
0100
0200
0000
ENDCHAR
STARTCHAR 308B
ENCODING 12427
SWIDTH 720 0
DWIDTH 12 0
BBX 12 10 0 -1
BITMAP
3F00
0400
0800
1F80
3040
4040
0E40
1180
0F00
0000
ENDCHAR
STARTCHAR 308C
ENCODING 12428
SWIDTH 720 0
DWIDTH 12 0
BBX 12 10 0 -1
BITMAP
2000
2300
FC80
2880
3080
2080
60A0
A0A0
2040
0000
ENDCHAR
STARTCHAR 308D
ENCODING 12429
SWIDTH 720 0
DWIDTH 12 0
BBX 12 10 0 -1
BITMAP
3F00
0400
0800
1F80
3040
4040
0040
0180
0E00
0000
ENDCHAR
STARTCHAR 308E
ENCODING 12430
SWIDTH 720 0
DWIDTH 12 0
BBX 12 10 0 -1
BITMAP
0000
0000
0000
1000
7F00
1880
1080
3080
5300
0000
ENDCHAR
STARTCHAR 308F
ENCODING 12431
SWIDTH 720 0
DWIDTH 12 0
BBX 12 10 0 -1
BITMAP
2000
2000
FB80
2C40
3020
2020
6020
A040
2180
0000
ENDCHAR
STARTCHAR 3090
ENCODING 12432
SWIDTH 720 0
DWIDTH 12 0
BBX 12 10 0 -1
BITMAP
3E00
0400
0400
0F80
3840
4820
9320
A4C0
4380
0000
ENDCHAR
STARTCHAR 3091
ENCODING 12433
SWIDTH 720 0
DWIDTH 12 0
BBX 12 10 0 -1
BITMAP
1F00
0200
0F00
1080
2680
0900
1600
39C0
4620
0000
ENDCHAR
STARTCHAR 3092
ENCODING 12434
SWIDTH 720 0
DWIDTH 12 0
BBX 12 10 0 -1
BITMAP
0800
7F00
1000
3800
47C0
8C00
1400
2000
1F80
0000
ENDCHAR
STARTCHAR 3093
ENCODING 12435
SWIDTH 720 0
DWIDTH 12 0
BBX 12 10 0 -1
BITMAP
0400
0800
0800
1000
1C00
2200
4220
4240
8180
0000
ENDCHAR
STARTCHAR 309B
ENCODING 12443
SWIDTH 720 0
DWIDTH 12 0
BBX 12 10 0 -1
BITMAP
2000
9000
4000
0000
0000
0000
0000
0000
0000
0000
ENDCHAR
STARTCHAR 309C
ENCODING 12444
SWIDTH 720 0
DWIDTH 12 0
BBX 12 10 0 -1
BITMAP
6000
9000
6000
0000
0000
0000
0000
0000
0000
0000
ENDCHAR
STARTCHAR 309D
ENCODING 12445
SWIDTH 720 0
DWIDTH 12 0
BBX 12 10 0 -1
BITMAP
0000
0000
0000
3000
0C00
0200
0300
0400
0000
0000
ENDCHAR
STARTCHAR 309E
ENCODING 12446
SWIDTH 720 0
DWIDTH 12 0
BBX 12 10 0 -1
BITMAP
0000
0080
0240
3100
0C00
0200
0300
0400
0000
0000
ENDCHAR
STARTCHAR 30A1
ENCODING 12449
SWIDTH 720 0
DWIDTH 12 0
BBX 12 10 0 -1
BITMAP
0000
0000
0000
3F80
0100
0600
0400
0400
0800
0000
ENDCHAR
STARTCHAR 30A2
ENCODING 12450
SWIDTH 720 0
DWIDTH 12 0
BBX 12 10 0 -1
BITMAP
0000
7FC0
0040
0480
0500
0400
0800
0800
1000
0000
ENDCHAR
STARTCHAR 30A3
ENCODING 12451
SWIDTH 720 0
DWIDTH 12 0
BBX 12 10 0 -1
BITMAP
0000
0000
0100
0600
1C00
6400
0400
0400
0400
0000
ENDCHAR
STARTCHAR 30A4
ENCODING 12452
SWIDTH 720 0
DWIDTH 12 0
BBX 12 10 0 -1
BITMAP
0040
0080
0300
0E00
7200
0200
0200
0200
0200
0000
ENDCHAR
STARTCHAR 30A5
ENCODING 12453
SWIDTH 720 0
DWIDTH 12 0
BBX 12 10 0 -1
BITMAP
0000
0000
0400
3F80
2080
2080
0100
0200
0C00
0000
ENDCHAR
STARTCHAR 30A6
ENCODING 12454
SWIDTH 720 0
DWIDTH 12 0
BBX 12 10 0 -1
BITMAP
0400
0400
7FC0
4040
4040
0080
0100
0200
0C00
0000
ENDCHAR
STARTCHAR 30A7
ENCODING 12455
SWIDTH 720 0
DWIDTH 12 0
BBX 12 10 0 -1
BITMAP
0000
0000
0000
0000
3F80
0400
0400
0400
7FC0
0000
ENDCHAR
STARTCHAR 30A8
ENCODING 12456
SWIDTH 720 0
DWIDTH 12 0
BBX 12 10 0 -1
BITMAP
0000
7FC0
0400
0400
0400
0400
0400
FFE0
0000
0000
ENDCHAR
STARTCHAR 30A9
ENCODING 12457
SWIDTH 720 0
DWIDTH 12 0
BBX 12 10 0 -1
BITMAP
0000
0000
0200
7F80
0600
0A00
1200
6200
0600
0000
ENDCHAR
STARTCHAR 30AA
ENCODING 12458
SWIDTH 720 0
DWIDTH 12 0
BBX 12 10 0 -1
BITMAP
0100
0100
FFE0
0300
0500
0900
3100
C100
0300
0000
ENDCHAR
STARTCHAR 30AB
ENCODING 12459
SWIDTH 720 0
DWIDTH 12 0
BBX 12 10 0 -1
BITMAP
0800
0800
FFE0
0820
0820
1020
1040
2140
4080
0000
ENDCHAR
STARTCHAR 30AC
ENCODING 12460
SWIDTH 720 0
DWIDTH 12 0
BBX 12 10 0 -1
BITMAP
0820
0890
FFC0
0840
0840
1040
1080
2280
4100
0000
ENDCHAR
STARTCHAR 30AD
ENCODING 12461
SWIDTH 720 0
DWIDTH 12 0
BBX 12 10 0 -1
BITMAP
0800
0800
7F80
0400
0400
FFE0
0200
0200
0200
0000
ENDCHAR
STARTCHAR 30AE
ENCODING 12462
SWIDTH 720 0
DWIDTH 12 0
BBX 12 10 0 -1
BITMAP
0820
0890
7FC0
0400
0400
FFE0
0200
0200
0200
0000
ENDCHAR
STARTCHAR 30AF
ENCODING 12463
SWIDTH 720 0
DWIDTH 12 0
BBX 12 10 0 -1
BITMAP
1000
1F80
1080
2080
4100
0100
0200
0C00
7000
0000
ENDCHAR
STARTCHAR 30B0
ENCODING 12464
SWIDTH 720 0
DWIDTH 12 0
BBX 12 10 0 -1
BITMAP
1020
1F90
10C0
2080
4100
0100
0200
0C00
7000
0000
ENDCHAR
STARTCHAR 30B1
ENCODING 12465
SWIDTH 720 0
DWIDTH 12 0
BBX 12 10 0 -1
BITMAP
2000
2000
3FE0
2100
4100
8100
0200
0200
0400
0000
ENDCHAR
STARTCHAR 30B2
ENCODING 12466
SWIDTH 720 0
DWIDTH 12 0
BBX 12 10 0 -1
BITMAP
2020
2090
3FC0
2200
4200
8200
0400
0400
0800
0000
ENDCHAR
STARTCHAR 30B3
ENCODING 12467
SWIDTH 720 0
DWIDTH 12 0
BBX 12 10 0 -1
BITMAP
0000
7FC0
0040
0040
0040
0040
0040
7FC0
0040
0000
ENDCHAR
STARTCHAR 30B4
ENCODING 12468
SWIDTH 720 0
DWIDTH 12 0
BBX 12 10 0 -1
BITMAP
00A0
7FD0
0040
0040
0040
0040
0040
7FC0
0040
0000
ENDCHAR
STARTCHAR 30B5
ENCODING 12469
SWIDTH 720 0
DWIDTH 12 0
BBX 12 10 0 -1
BITMAP
1080
1080
FFE0
1080
1080
0100
0100
0200
0400
0000
ENDCHAR
STARTCHAR 30B6
ENCODING 12470
SWIDTH 720 0
DWIDTH 12 0
BBX 12 10 0 -1
BITMAP
1120
1190
FFC0
1100
1100
0200
0200
0400
0800
0000
ENDCHAR
STARTCHAR 30B7
ENCODING 12471
SWIDTH 720 0
DWIDTH 12 0
BBX 12 10 0 -1
BITMAP
3000
0800
0000
6020
1040
0080
0100
0600
3800
0000
ENDCHAR
STARTCHAR 30B8
ENCODING 12472
SWIDTH 720 0
DWIDTH 12 0
BBX 12 10 0 -1
BITMAP
3040
0920
0080
6020
1040
0080
0100
0600
3800
0000
ENDCHAR
STARTCHAR 30B9
ENCODING 12473
SWIDTH 720 0
DWIDTH 12 0
BBX 12 10 0 -1
BITMAP
0000
7F80
0080
0100
0200
0600
0900
1080
6040
0000
ENDCHAR
STARTCHAR 30BA
ENCODING 12474
SWIDTH 720 0
DWIDTH 12 0
BBX 12 10 0 -1
BITMAP
0020
7F90
00C0
0100
0200
0600
0900
1080
6040
0000
ENDCHAR
STARTCHAR 30BB
ENCODING 12475
SWIDTH 720 0
DWIDTH 12 0
BBX 12 10 0 -1
BITMAP
1000
1000
13E0
FC40
1080
1100
1000
1000
0FC0
0000
ENDCHAR
STARTCHAR 30BC
ENCODING 12476
SWIDTH 720 0
DWIDTH 12 0
BBX 12 10 0 -1
BITMAP
1020
1090
13C0
FC40
1080
1100
1000
1000
0FC0
0000
ENDCHAR
STARTCHAR 30BD
ENCODING 12477
SWIDTH 720 0
DWIDTH 12 0
BBX 12 10 0 -1
BITMAP
0000
4040
2040
1080
1080
0100
0200
0400
1800
0000
ENDCHAR
STARTCHAR 30BE
ENCODING 12478
SWIDTH 720 0
DWIDTH 12 0
BBX 12 10 0 -1
BITMAP
0020
4090
20C0
1100
1100
0200
0400
0800
3000
0000
ENDCHAR
STARTCHAR 30BF
ENCODING 12479
SWIDTH 720 0
DWIDTH 12 0
BBX 12 10 0 -1
BITMAP
1000
1F80
1080
3080
4D00
0300
0200
0C00
7000
0000
ENDCHAR
STARTCHAR 30C0
ENCODING 12480
SWIDTH 720 0
DWIDTH 12 0
BBX 12 10 0 -1
BITMAP
1020
1F90
10C0
3080
4D00
0300
0200
0C00
7000
0000
ENDCHAR
STARTCHAR 30C1
ENCODING 12481
SWIDTH 720 0
DWIDTH 12 0
BBX 12 10 0 -1
BITMAP
0180
3E00
0200
0200
FFE0
0200
0400
0400
0800
0000
ENDCHAR
STARTCHAR 30C2
ENCODING 12482
SWIDTH 720 0
DWIDTH 12 0
BBX 12 10 0 -1
BITMAP
0320
3C90
0440
0400
FFC0
0400
0800
0800
1000
0000
ENDCHAR
STARTCHAR 30C3
ENCODING 12483
SWIDTH 720 0
DWIDTH 12 0
BBX 12 10 0 -1
BITMAP
0000
0000
0000
0800
4480
2480
2100
0200
0C00
0000
ENDCHAR
STARTCHAR 30C4
ENCODING 12484
SWIDTH 720 0
DWIDTH 12 0
BBX 12 10 0 -1
BITMAP
1000
9040
8840
4880
4080
0100
0200
0400
1800
0000
ENDCHAR
STARTCHAR 30C5
ENCODING 12485
SWIDTH 720 0
DWIDTH 12 0
BBX 12 10 0 -1
BITMAP
1020
9090
88C0
4880
4100
0100
0200
0400
1800
0000
ENDCHAR
STARTCHAR 30C6
ENCODING 12486
SWIDTH 720 0
DWIDTH 12 0
BBX 12 10 0 -1
BITMAP
3F80
0000
0000
FFE0
0200
0200
0400
0400
0800
0000
ENDCHAR
STARTCHAR 30C7
ENCODING 12487
SWIDTH 720 0
DWIDTH 12 0
BBX 12 10 0 -1
BITMAP
7F20
0090
0040
FFC0
0400
0400
0800
0800
1000
0000
ENDCHAR
STARTCHAR 30C8
ENCODING 12488
SWIDTH 720 0
DWIDTH 12 0
BBX 12 10 0 -1
BITMAP
0800
0800
0800
0E00
0900
0880
0800
0800
0800
0000
ENDCHAR
STARTCHAR 30C9
ENCODING 12489
SWIDTH 720 0
DWIDTH 12 0
BBX 12 10 0 -1
BITMAP
0840
0920
0880
0E00
0900
0880
0800
0800
0800
0000
ENDCHAR
STARTCHAR 30CA
ENCODING 12490
SWIDTH 720 0
DWIDTH 12 0
BBX 12 10 0 -1
BITMAP
0200
0200
7FE0
0200
0200
0400
0400
0800
1000
0000
ENDCHAR
STARTCHAR 30CB
ENCODING 12491
SWIDTH 720 0
DWIDTH 12 0
BBX 12 10 0 -1
BITMAP
0000
3F80
0000
0000
0000
0000
0000
FFE0
0000
0000
ENDCHAR
STARTCHAR 30CC
ENCODING 12492
SWIDTH 720 0
DWIDTH 12 0
BBX 12 10 0 -1
BITMAP
0000
3FC0
0040
0080
0D00
0300
0480
1840
6000
0000
ENDCHAR
STARTCHAR 30CD
ENCODING 12493
SWIDTH 720 0
DWIDTH 12 0
BBX 12 10 0 -1
BITMAP
0400
3F80
0080
0100
0600
1D80
E460
0400
0400
0000
ENDCHAR
STARTCHAR 30CE
ENCODING 12494
SWIDTH 720 0
DWIDTH 12 0
BBX 12 10 0 -1
BITMAP
0080
0080
0080
0100
0100
0200
0400
1800
6000
0000
ENDCHAR
STARTCHAR 30CF
ENCODING 12495
SWIDTH 720 0
DWIDTH 12 0
BBX 12 10 0 -1
BITMAP
0000
0000
1100
1080
2040
2040
4020
8020
0000
0000
ENDCHAR
STARTCHAR 30D0
ENCODING 12496
SWIDTH 720 0
DWIDTH 12 0
BBX 12 10 0 -1
BITMAP
0020
0090
1240
1100
2080
2080
4040
8040
0000
0000
ENDCHAR
STARTCHAR 30D1
ENCODING 12497
SWIDTH 720 0
DWIDTH 12 0
BBX 12 10 0 -1
BITMAP
0060
0090
1260
1100
2080
2080
4040
8040
0000
0000
ENDCHAR
STARTCHAR 30D2
ENCODING 12498
SWIDTH 720 0
DWIDTH 12 0
BBX 12 10 0 -1
BITMAP
4000
4000
4380
7C00
4000
4000
4000
2000
1FC0
0000
ENDCHAR
STARTCHAR 30D3
ENCODING 12499
SWIDTH 720 0
DWIDTH 12 0
BBX 12 10 0 -1
BITMAP
4020
4090
4340
7C00
4000
4000
4000
2000
1F80
0000
ENDCHAR
STARTCHAR 30D4
ENCODING 12500
SWIDTH 720 0
DWIDTH 12 0
BBX 12 10 0 -1
BITMAP
4060
4090
4360
7C00
4000
4000
4000
2000
1F80
0000
ENDCHAR
STARTCHAR 30D5
ENCODING 12501
SWIDTH 720 0
DWIDTH 12 0
BBX 12 10 0 -1
BITMAP
0000
7FC0
0040
0080
0080
0100
0200
0C00
3000
0000
ENDCHAR
STARTCHAR 30D6
ENCODING 12502
SWIDTH 720 0
DWIDTH 12 0
BBX 12 10 0 -1
BITMAP
0020
7F90
0040
00A0
0080
0100
0200
0C00
3000
0000
ENDCHAR
STARTCHAR 30D7
ENCODING 12503
SWIDTH 720 0
DWIDTH 12 0
BBX 12 10 0 -1
BITMAP
0060
7F90
00E0
0080
0080
0100
0200
0C00
3000
0000
ENDCHAR
STARTCHAR 30D8
ENCODING 12504
SWIDTH 720 0
DWIDTH 12 0
BBX 12 10 0 -1
BITMAP
0000
0800
1400
2200
4100
8080
0040
0020
0000
0000
ENDCHAR
STARTCHAR 30D9
ENCODING 12505
SWIDTH 720 0
DWIDTH 12 0
BBX 12 10 0 -1
BITMAP
0040
0920
1480
2200
4100
8080
0040
0020
0000
0000
ENDCHAR
STARTCHAR 30DA
ENCODING 12506
SWIDTH 720 0
DWIDTH 12 0
BBX 12 10 0 -1
BITMAP
00C0
0920
14C0
2200
4100
8080
0040
0020
0000
0000
ENDCHAR
STARTCHAR 30DB
ENCODING 12507
SWIDTH 720 0
DWIDTH 12 0
BBX 12 10 0 -1
BITMAP
0400
0400
FFE0
0400
2480
2440
4420
8420
0400
0000
ENDCHAR
STARTCHAR 30DC
ENCODING 12508
SWIDTH 720 0
DWIDTH 12 0
BBX 12 10 0 -1
BITMAP
0420
0490
FFC0
0400
2480
2440
4420
8420
0400
0000
ENDCHAR
STARTCHAR 30DD
ENCODING 12509
SWIDTH 720 0
DWIDTH 12 0
BBX 12 10 0 -1
BITMAP
0460
0490
FFE0
0400
2480
2440
4420
8420
0400
0000
ENDCHAR
STARTCHAR 30DE
ENCODING 12510
SWIDTH 720 0
DWIDTH 12 0
BBX 12 10 0 -1
BITMAP
0000
FFE0
0020
0040
0080
1900
0600
0200
0100
0000
ENDCHAR
STARTCHAR 30DF
ENCODING 12511
SWIDTH 720 0
DWIDTH 12 0
BBX 12 10 0 -1
BITMAP
1C00
0300
00C0
3800
0600
0180
7000
0E00
01C0
0000
ENDCHAR
STARTCHAR 30E0
ENCODING 12512
SWIDTH 720 0
DWIDTH 12 0
BBX 12 10 0 -1
BITMAP
0400
0400
0800
0800
1080
1040
2040
23E0
FC20
0000
ENDCHAR
STARTCHAR 30E1
ENCODING 12513
SWIDTH 720 0
DWIDTH 12 0
BBX 12 10 0 -1
BITMAP
0080
0080
0080
1D00
0300
0280
0440
1800
6000
0000
ENDCHAR
STARTCHAR 30E2
ENCODING 12514
SWIDTH 720 0
DWIDTH 12 0
BBX 12 10 0 -1
BITMAP
0000
7F80
0800
0800
FFE0
0800
0800
0800
07C0
0000
ENDCHAR
STARTCHAR 30E3
ENCODING 12515
SWIDTH 720 0
DWIDTH 12 0
BBX 12 10 0 -1
BITMAP
0000
0000
1000
17C0
7840
0880
0800
0400
0400
0000
ENDCHAR
STARTCHAR 30E4
ENCODING 12516
SWIDTH 720 0
DWIDTH 12 0
BBX 12 10 0 -1
BITMAP
1000
17E0
F820
0840
0880
0800
0400
0400
0400
0000
ENDCHAR
STARTCHAR 30E5
ENCODING 12517
SWIDTH 720 0
DWIDTH 12 0
BBX 12 10 0 -1
BITMAP
0000
0000
0000
3F00
0100
0100
0200
0200
7FC0
0000
ENDCHAR
STARTCHAR 30E6
ENCODING 12518
SWIDTH 720 0
DWIDTH 12 0
BBX 12 10 0 -1
BITMAP
0000
3F00
0100
0100
0200
0200
0200
FFE0
0000
0000
ENDCHAR
STARTCHAR 30E7
ENCODING 12519
SWIDTH 720 0
DWIDTH 12 0
BBX 12 10 0 -1
BITMAP
0000
0000
0000
3F00
0100
3F00
0100
3F00
0100
0000
ENDCHAR
STARTCHAR 30E8
ENCODING 12520
SWIDTH 720 0
DWIDTH 12 0
BBX 12 10 0 -1
BITMAP
0000
7FC0
0040
0040
7FC0
0040
0040
7FC0
0040
0000
ENDCHAR
STARTCHAR 30E9
ENCODING 12521
SWIDTH 720 0
DWIDTH 12 0
BBX 12 10 0 -1
BITMAP
3F80
0000
0000
7FC0
0040
0080
0100
0600
1800
0000
ENDCHAR
STARTCHAR 30EA
ENCODING 12522
SWIDTH 720 0
DWIDTH 12 0
BBX 12 10 0 -1
BITMAP
2080
2080
2080
2080
2080
0100
0100
0200
0400
0000
ENDCHAR
STARTCHAR 30EB
ENCODING 12523
SWIDTH 720 0
DWIDTH 12 0
BBX 12 10 0 -1
BITMAP
0200
1200
1200
1200
1220
2220
2240
4280
8300
0000
ENDCHAR
STARTCHAR 30EC
ENCODING 12524
SWIDTH 720 0
DWIDTH 12 0
BBX 12 10 0 -1
BITMAP
2000
2000
2000
2000
2040
2080
2100
2600
3800
0000
ENDCHAR
STARTCHAR 30ED
ENCODING 12525
SWIDTH 720 0
DWIDTH 12 0
BBX 12 10 0 -1
BITMAP
0000
7FC0
4040
4040
4040
4040
4040
7FC0
0000
0000
ENDCHAR
STARTCHAR 30EE
ENCODING 12526
SWIDTH 720 0
DWIDTH 12 0
BBX 12 10 0 -1
BITMAP
0000
0000
0000
3F80
2080
2080
0100
0200
0C00
0000
ENDCHAR
STARTCHAR 30EF
ENCODING 12527
SWIDTH 720 0
DWIDTH 12 0
BBX 12 10 0 -1
BITMAP
0000
7FC0
4040
4040
0080
0080
0100
0200
0C00
0000
ENDCHAR
STARTCHAR 30F0
ENCODING 12528
SWIDTH 720 0
DWIDTH 12 0
BBX 12 10 0 -1
BITMAP
0200
0200
7FC0
1200
1200
1200
FFE0
0200
0200
0000
ENDCHAR
STARTCHAR 30F1
ENCODING 12529
SWIDTH 720 0
DWIDTH 12 0
BBX 12 10 0 -1
BITMAP
0000
7FC0
0080
0100
0600
0400
0400
FFE0
0000
0000
ENDCHAR
STARTCHAR 30F2
ENCODING 12530
SWIDTH 720 0
DWIDTH 12 0
BBX 12 10 0 -1
BITMAP
0000
7FC0
0040
0040
3F80
0080
0100
0600
3800
0000
ENDCHAR
STARTCHAR 30F3
ENCODING 12531
SWIDTH 720 0
DWIDTH 12 0
BBX 12 10 0 -1
BITMAP
0000
7000
0820
0020
0040
0080
0100
0600
3800
0000
ENDCHAR
STARTCHAR 30F4
ENCODING 12532
SWIDTH 720 0
DWIDTH 12 0
BBX 12 10 0 -1
BITMAP
0820
0810
FFC0
80A0
8080
0100
0200
0400
1800
0000
ENDCHAR
STARTCHAR 30F5
ENCODING 12533
SWIDTH 720 0
DWIDTH 12 0
BBX 12 10 0 -1
BITMAP
0000
0000
0400
0400
3F80
0880
0880
1500
2300
0000
ENDCHAR
STARTCHAR 30F6
ENCODING 12534
SWIDTH 720 0
DWIDTH 12 0
BBX 12 10 0 -1
BITMAP
0000
0000
0800
0800
0FC0
1100
2100
0200
0400
0000
ENDCHAR
STARTCHAR 30FB
ENCODING 12539
SWIDTH 720 0
DWIDTH 12 0
BBX 12 10 0 -1
BITMAP
0000
0000
0000
0C00
0C00
0000
0000
0000
0000
0000
ENDCHAR
STARTCHAR 30FC
ENCODING 12540
SWIDTH 720 0
DWIDTH 12 0
BBX 12 10 0 -1
BITMAP
0000
0000
0000
8000
7FC0
0000
0000
0000
0000
0000
ENDCHAR
STARTCHAR 30FD
ENCODING 12541
SWIDTH 720 0
DWIDTH 12 0
BBX 12 10 0 -1
BITMAP
0000
0000
0000
3000
0C00
0200
0100
0000
0000
0000
ENDCHAR
STARTCHAR 30FE
ENCODING 12542
SWIDTH 720 0
DWIDTH 12 0
BBX 12 10 0 -1
BITMAP
0000
0080
0240
3100
0C00
0200
0100
0000
0000
0000
ENDCHAR
STARTCHAR 3231
ENCODING 12849
SWIDTH 720 0
DWIDTH 12 0
BBX 12 10 0 -1
BITMAP
4040
9320
FBE0
9520
B7E0
DBA0
D560
9120
4040
0000
ENDCHAR
STARTCHAR 3232
ENCODING 12850
SWIDTH 720 0
DWIDTH 12 0
BBX 12 10 0 -1
BITMAP
4040
8820
BFA0
8820
9F20
A920
8F20
8920
4040
0000
ENDCHAR
STARTCHAR 3239
ENCODING 12857
SWIDTH 720 0
DWIDTH 12 0
BBX 12 10 0 -1
BITMAP
4040
9320
92A0
BFE0
D220
92A0
91A0
90A0
4040
0000
ENDCHAR
STARTCHAR 32A4
ENCODING 12964
SWIDTH 720 0
DWIDTH 12 0
BBX 12 10 0 -1
BITMAP
3F80
4040
8420
8420
8720
8420
BFA0
4040
3F80
0000
ENDCHAR
STARTCHAR 32A5
ENCODING 12965
SWIDTH 720 0
DWIDTH 12 0
BBX 12 10 0 -1
BITMAP
3F80
4040
8420
BFA0
A4A0
BFA0
8420
4040
3F80
0000
ENDCHAR
STARTCHAR 32A6
ENCODING 12966
SWIDTH 720 0
DWIDTH 12 0
BBX 12 10 0 -1
BITMAP
3F80
4040
BFA0
8420
8620
8520
8420
4040
3F80
0000
ENDCHAR
STARTCHAR 32A7
ENCODING 12967
SWIDTH 720 0
DWIDTH 12 0
BBX 12 10 0 -1
BITMAP
3F80
4840
BFA0
9020
9F20
A220
8FA0
4040
3F80
0000
ENDCHAR
STARTCHAR 32A8
ENCODING 12968
SWIDTH 720 0
DWIDTH 12 0
BBX 12 10 0 -1
BITMAP
3F80
4840
BFA0
9020
9F20
A920
8F20
4040
3F80
0000
ENDCHAR
STARTCHAR 3303
ENCODING 13059
SWIDTH 720 0
DWIDTH 12 0
BBX 12 10 0 -1
BITMAP
FC00
2800
11E0
1000
2000
0A00
0A00
0A80
1300
0000
ENDCHAR
STARTCHAR 330D
ENCODING 13069
SWIDTH 720 0
DWIDTH 12 0
BBX 12 10 0 -1
BITMAP
4000
FBC0
4A40
9BC0
0000
4800
4BC0
0800
1000
0000
ENDCHAR
STARTCHAR 3314
ENCODING 13076
SWIDTH 720 0
DWIDTH 12 0
BBX 12 10 0 -1
BITMAP
2000
FC00
2000
FC00
1000
13E0
0220
0220
03E0
0000
ENDCHAR
STARTCHAR 3318
ENCODING 13080
SWIDTH 720 0
DWIDTH 12 0
BBX 12 10 0 -1
BITMAP
2AC0
7800
89E0
1020
60C0
0400
0900
1300
1C80
0000
ENDCHAR
STARTCHAR 3322
ENCODING 13090
SWIDTH 720 0
DWIDTH 12 0
BBX 12 10 0 -1
BITMAP
5A00
E920
4040
3B80
0600
0C00
3F00
0400
0800
0000
ENDCHAR
STARTCHAR 3323
ENCODING 13091
SWIDTH 720 0
DWIDTH 12 0
BBX 12 10 0 -1
BITMAP
5A00
E920
4040
3B80
0000
0800
0E00
0900
0800
0000
ENDCHAR
STARTCHAR 3326
ENCODING 13094
SWIDTH 720 0
DWIDTH 12 0
BBX 12 10 0 -1
BITMAP
5400
4000
7000
4800
4280
0280
02A0
04A0
04C0
0000
ENDCHAR
STARTCHAR 3327
ENCODING 13095
SWIDTH 720 0
DWIDTH 12 0
BBX 12 10 0 -1
BITMAP
4000
4000
7000
4800
4200
0120
0020
0040
0380
0000
ENDCHAR
STARTCHAR 332B
ENCODING 13099
SWIDTH 720 0
DWIDTH 12 0
BBX 12 10 0 -1
BITMAP
4C00
5400
89E0
8800
4080
7C80
D1C0
42A0
2C80
0000
ENDCHAR
STARTCHAR 3336
ENCODING 13110
SWIDTH 720 0
DWIDTH 12 0
BBX 12 10 0 -1
BITMAP
61C0
9240
0880
0300
0000
7140
DF40
2160
C240
0000
ENDCHAR
STARTCHAR 333B
ENCODING 13115
SWIDTH 720 0
DWIDTH 12 0
BBX 12 10 0 -1
BITMAP
2C00
5400
89E0
0400
3140
0000
3200
0400
3800
0000
ENDCHAR
STARTCHAR 3349
ENCODING 13129
SWIDTH 720 0
DWIDTH 12 0
BBX 12 10 0 -1
BITMAP
6000
1800
6000
1A20
C220
3A20
0020
0040
0180
0000
ENDCHAR
STARTCHAR 334A
ENCODING 13130
SWIDTH 720 0
DWIDTH 12 0
BBX 12 10 0 -1
BITMAP
7A40
7240
8080
7900
1400
A140
AF40
9160
9240
0000
ENDCHAR
STARTCHAR 334D
ENCODING 13133
SWIDTH 720 0
DWIDTH 12 0
BBX 12 10 0 -1
BITMAP
0800
2800
13C0
2800
C000
4280
7280
42A0
44C0
0000
ENDCHAR
STARTCHAR 3351
ENCODING 13137
SWIDTH 720 0
DWIDTH 12 0
BBX 12 10 0 -1
BITMAP
9000
9000
1540
2480
4100
4280
6280
52A0
44C0
0000
ENDCHAR
STARTCHAR 3357
ENCODING 13143
SWIDTH 720 0
DWIDTH 12 0
BBX 12 10 0 -1
BITMAP
F800
8800
0AA0
1240
2880
0800
0E00
0900
0800
0000
ENDCHAR
STARTCHAR 337B
ENCODING 13179
SWIDTH 720 0
DWIDTH 12 0
BBX 12 10 0 -1
BITMAP
F8A0
27E0
AC80
74A0
27A0
FD40
2540
26A0
2920
0000
ENDCHAR
STARTCHAR 337C
ENCODING 13180
SWIDTH 720 0
DWIDTH 12 0
BBX 12 10 0 -1
BITMAP
3B00
1AE0
EFA0
AAA0
E7A0
BBA0
EAA0
2AE0
3A00
0000
ENDCHAR
STARTCHAR 337D
ENCODING 13181
SWIDTH 720 0
DWIDTH 12 0
BBX 12 10 0 -1
BITMAP
23E0
2080
F880
2080
22E0
5280
5280
8A80
8FE0
0000
ENDCHAR
STARTCHAR 337E
ENCODING 13182
SWIDTH 720 0
DWIDTH 12 0
BBX 12 10 0 -1
BITMAP
3840
EC80
BB20
EDE0
BA00
E9E0
2B20
4B20
5DE0
0000
ENDCHAR
STARTCHAR 338E
ENCODING 13198
SWIDTH 720 0
DWIDTH 12 0
BBX 12 10 0 -1
BITMAP
0000
0000
0000
F1A0
AA40
AA80
A9C0
AA20
AA20
01C0
ENDCHAR
STARTCHAR 338F
ENCODING 13199
SWIDTH 720 0
DWIDTH 12 0
BBX 12 10 0 -1
BITMAP
8000
8000
8000
89A0
9240
A280
E1C0
9220
8A20
01C0
ENDCHAR
STARTCHAR 339C
ENCODING 13212
SWIDTH 720 0
DWIDTH 12 0
BBX 12 10 0 -1
BITMAP
0000
0000
0000
F7C0
AAA0
AAA0
AAA0
AAA0
AAA0
0000
ENDCHAR
STARTCHAR 339D
ENCODING 13213
SWIDTH 720 0
DWIDTH 12 0
BBX 12 10 0 -1
BITMAP
0000
0000
0000
77C0
8AA0
82A0
82A0
8AA0
72A0
0000
ENDCHAR
STARTCHAR 339E
ENCODING 13214
SWIDTH 720 0
DWIDTH 12 0
BBX 12 10 0 -1
BITMAP
8000
8000
8000
8BC0
92A0
A2A0
E2A0
92A0
8AA0
0000
ENDCHAR
STARTCHAR 33A1
ENCODING 13217
SWIDTH 720 0
DWIDTH 12 0
BBX 12 10 0 -1
BITMAP
00C0
0120
0040
FC80
93E0
9200
9200
9200
9200
0000
ENDCHAR
STARTCHAR 33C4
ENCODING 13252
SWIDTH 720 0
DWIDTH 12 0
BBX 12 10 0 -1
BITMAP
0000
0000
0000
71C0
8A20
8200
8200
8A20
71C0
0000
ENDCHAR
STARTCHAR 33CD
ENCODING 13261
SWIDTH 720 0
DWIDTH 12 0
BBX 12 10 0 -1
BITMAP
9240
A280
A280
C300
8200
C300
A280
AAA0
9A60
0000
ENDCHAR
STARTCHAR 4E00
ENCODING 19968
SWIDTH 720 0
DWIDTH 12 0
BBX 12 10 0 -1
BITMAP
0000
0000
0000
0040
FFE0
0000
0000
0000
0000
0000
ENDCHAR
STARTCHAR 4E01
ENCODING 19969
SWIDTH 720 0
DWIDTH 12 0
BBX 12 10 0 -1
BITMAP
0000
FFE0
0400
0400
0400
0400
0400
0400
1C00
0000
ENDCHAR
STARTCHAR 4E03
ENCODING 19971
SWIDTH 720 0
DWIDTH 12 0
BBX 12 10 0 -1
BITMAP
1000
1000
11E0
1E00
F000
1000
1020
1020
0FE0
0000
ENDCHAR
STARTCHAR 4E07
ENCODING 19975
SWIDTH 720 0
DWIDTH 12 0
BBX 12 10 0 -1
BITMAP
FFE0
0800
0800
0FC0
0840
1040
1040
2040
4380
0000
ENDCHAR
STARTCHAR 4E08
ENCODING 19976
SWIDTH 720 0
DWIDTH 12 0
BBX 12 10 0 -1
BITMAP
0400
0400
FFE0
0400
2400
1800
0C00
1300
E0E0
0000
ENDCHAR
STARTCHAR 4E09
ENCODING 19977
SWIDTH 720 0
DWIDTH 12 0
BBX 12 10 0 -1
BITMAP
0000
7FC0
0000
0000
3F80
0000
0000
FFE0
0000
0000
ENDCHAR
STARTCHAR 4E0A
ENCODING 19978
SWIDTH 720 0
DWIDTH 12 0
BBX 12 10 0 -1
BITMAP
0400
0400
0400
07C0
0400
0400
0400
0400
FFE0
0000
ENDCHAR
STARTCHAR 4E0B
ENCODING 19979
SWIDTH 720 0
DWIDTH 12 0
BBX 12 10 0 -1
BITMAP
FFE0
0400
0400
0400
0700
0480
0400
0400
0400
0000
ENDCHAR
STARTCHAR 4E0D
ENCODING 19981
SWIDTH 720 0
DWIDTH 12 0
BBX 12 10 0 -1
BITMAP
FFE0
0200
0400
0D80
3440
C420
0400
0400
0400
0000
ENDCHAR
STARTCHAR 4E0E
ENCODING 19982
SWIDTH 720 0
DWIDTH 12 0
BBX 12 10 0 -1
BITMAP
1000
1F80
2000
3F80
0080
FFE0
0080
0100
0E00
0000
ENDCHAR
STARTCHAR 4E10
ENCODING 19984
SWIDTH 720 0
DWIDTH 12 0
BBX 12 10 0 -1
BITMAP
FFE0
0400
2780
2400
3FC0
4040
0040
0040
0380
0000
ENDCHAR
STARTCHAR 4E11
ENCODING 19985
SWIDTH 720 0
DWIDTH 12 0
BBX 12 10 0 -1
BITMAP
7F00
1100
1100
1100
FFE0
1100
1100
1100
FFE0
0000
ENDCHAR
STARTCHAR 4E14
ENCODING 19988
SWIDTH 720 0
DWIDTH 12 0
BBX 12 10 0 -1
BITMAP
3F80
2080
2080
3F80
2080
3F80
2080
2080
FFE0
0000
ENDCHAR
STARTCHAR 4E15
ENCODING 19989
SWIDTH 720 0
DWIDTH 12 0
BBX 12 10 0 -1
BITMAP
7FC0
0400
0C00
3580
C460
0400
0400
0400
FFE0
0000
ENDCHAR
STARTCHAR 4E16
ENCODING 19990
SWIDTH 720 0
DWIDTH 12 0
BBX 12 10 0 -1
BITMAP
2480
2480
FFE0
2480
2480
2780
2000
2000
3FC0
0000
ENDCHAR
STARTCHAR 4E17
ENCODING 19991
SWIDTH 720 0
DWIDTH 12 0
BBX 12 10 0 -1
BITMAP
2480
2480
2480
FFE0
2480
2480
2480
2480
3F80
0000
ENDCHAR
STARTCHAR 4E18
ENCODING 19992
SWIDTH 720 0
DWIDTH 12 0
BBX 12 10 0 -1
BITMAP
0100
0600
3800
2000
3FC0
2100
2100
2100
FFE0
0000
ENDCHAR
STARTCHAR 4E19
ENCODING 19993
SWIDTH 720 0
DWIDTH 12 0
BBX 12 10 0 -1
BITMAP
FFE0
0400
7FC0
4440
4A40
5140
60C0
4040
41C0
0000
ENDCHAR
STARTCHAR 4E1E
ENCODING 19998
SWIDTH 720 0
DWIDTH 12 0
BBX 12 10 0 -1
BITMAP
3F80
0100
0660
F580
1500
2480
C460
0C00
7FC0
0000
ENDCHAR
STARTCHAR 4E21
ENCODING 20001
SWIDTH 720 0
DWIDTH 12 0
BBX 12 10 0 -1
BITMAP
FFE0
0400
FFE0
8420
A4A0
A4A0
BFA0
8020
80E0
0000
ENDCHAR
STARTCHAR 4E26
ENCODING 20006
SWIDTH 720 0
DWIDTH 12 0
BBX 12 10 0 -1
BITMAP
2080
1100
7FC0
0A00
4A40
2A40
2A80
0A00
FFE0
0000
ENDCHAR
STARTCHAR 4E2A
ENCODING 20010
SWIDTH 720 0
DWIDTH 12 0
BBX 12 10 0 -1
BITMAP
0400
0A00
1100
2480
C460
0400
0400
0400
0400
0000
ENDCHAR
STARTCHAR 4E2D
ENCODING 20013
SWIDTH 720 0
DWIDTH 12 0
BBX 12 10 0 -1
BITMAP
0400
0400
FFE0
8420
8420
FFE0
0400
0400
0400
0000
ENDCHAR
STARTCHAR 4E31
ENCODING 20017
SWIDTH 720 0
DWIDTH 12 0
BBX 12 10 0 -1
BITMAP
0900
0900
8920
8920
8920
F1E0
1100
2100
4100
0000
ENDCHAR
STARTCHAR 4E32
ENCODING 20018
SWIDTH 720 0
DWIDTH 12 0
BBX 12 10 0 -1
BITMAP
0400
7FC0
4440
7FC0
0400
FFE0
8420
FFE0
0400
0000
ENDCHAR
STARTCHAR 4E36
ENCODING 20022
SWIDTH 720 0
DWIDTH 12 0
BBX 12 10 0 -1
BITMAP
0000
0000
0000
0800
0400
0200
0200
0000
0000
0000
ENDCHAR
STARTCHAR 4E38
ENCODING 20024
SWIDTH 720 0
DWIDTH 12 0
BBX 12 10 0 -1
BITMAP
0800
7F00
0900
0900
6900
1900
1500
2120
C0E0
0000
ENDCHAR
STARTCHAR 4E39
ENCODING 20025
SWIDTH 720 0
DWIDTH 12 0
BBX 12 10 0 -1
BITMAP
3F80
2080
2880
2480
FFE0
2080
2080
4080
8380
0000
ENDCHAR
STARTCHAR 4E3B
ENCODING 20027
SWIDTH 720 0
DWIDTH 12 0
BBX 12 10 0 -1
BITMAP
0800
0400
7FC0
0400
0400
3F80
0400
0400
FFE0
0000
ENDCHAR
STARTCHAR 4E3C
ENCODING 20028
SWIDTH 720 0
DWIDTH 12 0
BBX 12 10 0 -1
BITMAP
1100
1100
FFC0
1500
1300
FFE0
2100
2100
4100
0000
ENDCHAR
STARTCHAR 4E3F
ENCODING 20031
SWIDTH 720 0
DWIDTH 12 0
BBX 12 10 0 -1
BITMAP
0200
0200
0200
0200
0200
0400
0400
0800
3000
0000
ENDCHAR
STARTCHAR 4E42
ENCODING 20034
SWIDTH 720 0
DWIDTH 12 0
BBX 12 10 0 -1
BITMAP
2080
6080
1100
1100
0A00
0400
0A00
3180
C060
0000
ENDCHAR
STARTCHAR 4E43
ENCODING 20035
SWIDTH 720 0
DWIDTH 12 0
BBX 12 10 0 -1
BITMAP
FF00
1100
1100
11E0
1120
2020
2020
4020
80C0
0000
ENDCHAR
STARTCHAR 4E45
ENCODING 20037
SWIDTH 720 0
DWIDTH 12 0
BBX 12 10 0 -1
BITMAP
1000
1F00
1100
2100
C200
0400
0A00
3180
C060
0000
ENDCHAR
STARTCHAR 4E4B
ENCODING 20043
SWIDTH 720 0
DWIDTH 12 0
BBX 12 10 0 -1
BITMAP
0400
7FC0
0040
0080
0100
4600
5800
6000
9FE0
0000
ENDCHAR
STARTCHAR 4E4D
ENCODING 20045
SWIDTH 720 0
DWIDTH 12 0
BBX 12 10 0 -1
BITMAP
2000
2000
3FE0
4400
87C0
0400
07C0
0400
0400
0000
ENDCHAR
STARTCHAR 4E4E
ENCODING 20046
SWIDTH 720 0
DWIDTH 12 0
BBX 12 10 0 -1
BITMAP
03C0
7C00
0440
2440
1480
FFE0
0400
0400
1C00
0000
ENDCHAR
STARTCHAR 4E4F
ENCODING 20047
SWIDTH 720 0
DWIDTH 12 0
BBX 12 10 0 -1
BITMAP
0180
7E00
0400
7FC0
0080
4300
4C00
7000
8FE0
0000
ENDCHAR
STARTCHAR 4E55
ENCODING 20053
SWIDTH 720 0
DWIDTH 12 0
BBX 12 10 0 -1
BITMAP
01C0
7E00
4200
7FE0
4200
5FC0
5240
9240
92C0
0000
ENDCHAR
STARTCHAR 4E56
ENCODING 20054
SWIDTH 720 0
DWIDTH 12 0
BBX 12 10 0 -1
BITMAP
0380
3C00
0400
FFE0
1500
F5E0
1500
3520
D4E0
0000
ENDCHAR
STARTCHAR 4E57
ENCODING 20055
SWIDTH 720 0
DWIDTH 12 0
BBX 12 10 0 -1
BITMAP
0380
7C00
0400
FFE0
2480
FFE0
1500
2480
C460
0000
ENDCHAR
STARTCHAR 4E58
ENCODING 20056
SWIDTH 720 0
DWIDTH 12 0
BBX 12 10 0 -1
BITMAP
0780
3C00
FFC0
F5E0
1500
F520
1EE0
3580
C460
0000
ENDCHAR
STARTCHAR 4E59
ENCODING 20057
SWIDTH 720 0
DWIDTH 12 0
BBX 12 10 0 -1
BITMAP
0000
7F80
0600
1800
2000
4000
8020
8020
7FC0
0000
ENDCHAR
STARTCHAR 4E5D
ENCODING 20061
SWIDTH 720 0
DWIDTH 12 0
BBX 12 10 0 -1
BITMAP
1000
1000
FF00
1100
1100
2100
2120
4120
80E0
0000
ENDCHAR
STARTCHAR 4E5E
ENCODING 20062
SWIDTH 720 0
DWIDTH 12 0
BBX 12 10 0 -1
BITMAP
2000
3FC0
4000
BF80
0600
1800
2020
4020
3FE0
0000
ENDCHAR
STARTCHAR 4E5F
ENCODING 20063
SWIDTH 720 0
DWIDTH 12 0
BBX 12 10 0 -1
BITMAP
0400
4400
47C0
7C40
C440
45C0
4400
4020
3FE0
0000
ENDCHAR
STARTCHAR 4E62
ENCODING 20066
SWIDTH 720 0
DWIDTH 12 0
BBX 12 10 0 -1
BITMAP
2200
2200
2200
AA00
AA00
AA00
AA20
FA20
01E0
0000
ENDCHAR
STARTCHAR 4E71
ENCODING 20081
SWIDTH 720 0
DWIDTH 12 0
BBX 12 10 0 -1
BITMAP
0A00
F200
2200
FA00
2200
FA00
8A20
8A20
F9E0
0000
ENDCHAR
STARTCHAR 4E73
ENCODING 20083
SWIDTH 720 0
DWIDTH 12 0
BBX 12 10 0 -1
BITMAP
1A00
E600
AA00
7A00
1200
3E00
E200
2220
61E0
0000
ENDCHAR
STARTCHAR 4E7E
ENCODING 20094
SWIDTH 720 0
DWIDTH 12 0
BBX 12 10 0 -1
BITMAP
2400
F7E0
2800
F7C0
9180
F200
2400
F420
23E0
0000
ENDCHAR
STARTCHAR 4E80
ENCODING 20096
SWIDTH 720 0
DWIDTH 12 0
BBX 12 10 0 -1
BITMAP
1F00
6200
3F80
2480
7FC0
4440
7FC0
0420
07E0
0000
ENDCHAR
STARTCHAR 4E82
ENCODING 20098
SWIDTH 720 0
DWIDTH 12 0
BBX 12 10 0 -1
BITMAP
3D00
6900
BD00
1100
ED00
BD00
F520
9520
ECE0
0000
ENDCHAR
STARTCHAR 4E85
ENCODING 20101
SWIDTH 720 0
DWIDTH 12 0
BBX 12 10 0 -1
BITMAP
0400
0400
0400
0400
0400
0400
0400
1400
0C00
0000
ENDCHAR
STARTCHAR 4E86
ENCODING 20102
SWIDTH 720 0
DWIDTH 12 0
BBX 12 10 0 -1
BITMAP
7FC0
0080
0100
0600
0400
0400
0400
0400
1C00
0000
ENDCHAR
STARTCHAR 4E88
ENCODING 20104
SWIDTH 720 0
DWIDTH 12 0
BBX 12 10 0 -1
BITMAP
3F80
0100
0600
FFE0
0420
0440
0400
0400
1C00
0000
ENDCHAR
STARTCHAR 4E89
ENCODING 20105
SWIDTH 720 0
DWIDTH 12 0
BBX 12 10 0 -1
BITMAP
1E00
2200
7F80
0480
FFE0
0480
7F80
0400
1C00
0000
ENDCHAR
STARTCHAR 4E8A
ENCODING 20106
SWIDTH 720 0
DWIDTH 12 0
BBX 12 10 0 -1
BITMAP
0400
FFE0
2480
1500
FFE0
0440
7FC0
0400
0C00
0000
ENDCHAR
STARTCHAR 4E8B
ENCODING 20107
SWIDTH 720 0
DWIDTH 12 0
BBX 12 10 0 -1
BITMAP
0400
FFE0
2480
3F80
0400
FFE0
0440
7FC0
0C00
0000
ENDCHAR
STARTCHAR 4E8C
ENCODING 20108
SWIDTH 720 0
DWIDTH 12 0
BBX 12 10 0 -1
BITMAP
0000
7FC0
0000
0000
0000
0000
0000
FFE0
0000
0000
ENDCHAR
STARTCHAR 4E8E
ENCODING 20110
SWIDTH 720 0
DWIDTH 12 0
BBX 12 10 0 -1
BITMAP
7FC0
0400
0400
0400
FFE0
0400
0400
0400
1C00
0000
ENDCHAR
STARTCHAR 4E91
ENCODING 20113
SWIDTH 720 0
DWIDTH 12 0
BBX 12 10 0 -1
BITMAP
3F80
0000
0000
FFE0
0800
1000
1080
23C0
7C40
0000
ENDCHAR
STARTCHAR 4E92
ENCODING 20114
SWIDTH 720 0
DWIDTH 12 0
BBX 12 10 0 -1
BITMAP
7FC0
1000
1F80
2080
2080
3F00
0100
0100
FFE0
0000
ENDCHAR
STARTCHAR 4E94
ENCODING 20116
SWIDTH 720 0
DWIDTH 12 0
BBX 12 10 0 -1
BITMAP
7FC0
0800
0800
0800
7F80
1080
1080
1080
FFE0
0000
ENDCHAR
STARTCHAR 4E95
ENCODING 20117
SWIDTH 720 0
DWIDTH 12 0
BBX 12 10 0 -1
BITMAP
1100
1100
FFC0
1100
1100
FFE0
2100
2100
4100
0000
ENDCHAR
STARTCHAR 4E98
ENCODING 20120
SWIDTH 720 0
DWIDTH 12 0
BBX 12 10 0 -1
BITMAP
7FC0
0000
3F80
2080
3F80
2080
3F80
0000
FFE0
0000
ENDCHAR
STARTCHAR 4E99
ENCODING 20121
SWIDTH 720 0
DWIDTH 12 0
BBX 12 10 0 -1
BITMAP
7FC0
1000
1F80
1480
2280
2880
2500
0100
FFE0
0000
ENDCHAR
STARTCHAR 4E9B
ENCODING 20123
SWIDTH 720 0
DWIDTH 12 0
BBX 12 10 0 -1
BITMAP
1100
5DC0
5100
5D20
E0E0
0000
3F80
0000
FFE0
0000
ENDCHAR
STARTCHAR 4E9C
ENCODING 20124
SWIDTH 720 0
DWIDTH 12 0
BBX 12 10 0 -1
BITMAP
FFE0
1100
7FC0
5140
5140
7FC0
1100
1100
FFE0
0000
ENDCHAR
STARTCHAR 4E9E
ENCODING 20126
SWIDTH 720 0
DWIDTH 12 0
BBX 12 10 0 -1
BITMAP
FFE0
1100
71C0
4040
4040
71C0
1100
1100
FFE0
0000
ENDCHAR
STARTCHAR 4E9F
ENCODING 20127
SWIDTH 720 0
DWIDTH 12 0
BBX 12 10 0 -1
BITMAP
7FC0
0800
1DC0
E540
A540
A480
E560
1800
FFE0
0000
ENDCHAR
STARTCHAR 4EA0
ENCODING 20128
SWIDTH 720 0
DWIDTH 12 0
BBX 12 10 0 -1
BITMAP
0000
0000
0400
0400
FFE0
0000
0000
0000
0000
0000
ENDCHAR
STARTCHAR 4EA1
ENCODING 20129
SWIDTH 720 0
DWIDTH 12 0
BBX 12 10 0 -1
BITMAP
0400
0400
FFE0
2000
2000
2000
2000
2000
1FC0
0000
ENDCHAR
STARTCHAR 4EA2
ENCODING 20130
SWIDTH 720 0
DWIDTH 12 0
BBX 12 10 0 -1
BITMAP
0400
FFE0
0000
1F00
1100
1100
1120
2120
C1E0
0000
ENDCHAR
STARTCHAR 4EA4
ENCODING 20132
SWIDTH 720 0
DWIDTH 12 0
BBX 12 10 0 -1
BITMAP
0400
FFE0
1100
2080
D160
0A00
0400
1B00
E0E0
0000
ENDCHAR
STARTCHAR 4EA5
ENCODING 20133
SWIDTH 720 0
DWIDTH 12 0
BBX 12 10 0 -1
BITMAP
0400
FFE0
0880
3100
0E00
1880
6100
0680
7840
0000
ENDCHAR
STARTCHAR 4EA6
ENCODING 20134
SWIDTH 720 0
DWIDTH 12 0
BBX 12 10 0 -1
BITMAP
0400
FFE0
0900
0900
4940
4920
9120
1100
2700
0000
ENDCHAR
STARTCHAR 4EA8
ENCODING 20136
SWIDTH 720 0
DWIDTH 12 0
BBX 12 10 0 -1
BITMAP
0400
FFE0
2080
3F80
0000
FFE0
0300
0400
1C00
0000
ENDCHAR
STARTCHAR 4EAB
ENCODING 20139
SWIDTH 720 0
DWIDTH 12 0
BBX 12 10 0 -1
BITMAP
0400
FFE0
2080
3F80
1F00
0200
FFE0
0400
1C00
0000
ENDCHAR
STARTCHAR 4EAC
ENCODING 20140
SWIDTH 720 0
DWIDTH 12 0
BBX 12 10 0 -1
BITMAP
0400
FFE0
0000
3F80
2080
3F80
0400
24C0
CC20
0000
ENDCHAR
STARTCHAR 4EAD
ENCODING 20141
SWIDTH 720 0
DWIDTH 12 0
BBX 12 10 0 -1
BITMAP
0400
FFE0
3F80
2080
FFE0
8020
3F80
0400
1C00
0000
ENDCHAR
STARTCHAR 4EAE
ENCODING 20142
SWIDTH 720 0
DWIDTH 12 0
BBX 12 10 0 -1
BITMAP
0400
FFE0
3F80
2080
FFE0
8A20
0A00
1220
E1E0
0000
ENDCHAR
STARTCHAR 4EB0
ENCODING 20144
SWIDTH 720 0
DWIDTH 12 0
BBX 12 10 0 -1
BITMAP
0400
FFE0
2080
3F80
2080
3F80
0400
24C0
CC20
0000
ENDCHAR
STARTCHAR 4EB3
ENCODING 20147
SWIDTH 720 0
DWIDTH 12 0
BBX 12 10 0 -1
BITMAP
0400
FFE0
2080
FFE0
BFA0
0400
7FC0
0420
07E0
0000
ENDCHAR
STARTCHAR 4EB6
ENCODING 20150
SWIDTH 720 0
DWIDTH 12 0
BBX 12 10 0 -1
BITMAP
0400
FFE0
5140
5F40
7FC0
2080
3F80
2080
FFE0
0000
ENDCHAR
STARTCHAR 4EBA
ENCODING 20154
SWIDTH 720 0
DWIDTH 12 0
BBX 12 10 0 -1
BITMAP
0400
0400
0400
0400
0A00
0A00
1100
2080
C060
0000
ENDCHAR
STARTCHAR 4EC0
ENCODING 20160
SWIDTH 720 0
DWIDTH 12 0
BBX 12 10 0 -1
BITMAP
1100
1100
2100
6FE0
A100
2100
2100
2100
2100
0000
ENDCHAR
STARTCHAR 4EC1
ENCODING 20161
SWIDTH 720 0
DWIDTH 12 0
BBX 12 10 0 -1
BITMAP
1000
17C0
2000
6000
A000
2000
2000
2000
2FE0
0000
ENDCHAR
STARTCHAR 4EC2
ENCODING 20162
SWIDTH 720 0
DWIDTH 12 0
BBX 12 10 0 -1
BITMAP
1100
1100
2FE0
6120
A120
2220
2220
2420
28C0
0000
ENDCHAR
STARTCHAR 4EC4
ENCODING 20164
SWIDTH 720 0
DWIDTH 12 0
BBX 12 10 0 -1
BITMAP
7FE0
4000
4200
4200
4200
4500
4500
8880
B060
0000
ENDCHAR
STARTCHAR 4EC6
ENCODING 20166
SWIDTH 720 0
DWIDTH 12 0
BBX 12 10 0 -1
BITMAP
1200
1200
2200
6380
A240
2220
2200
2200
2200
0000
ENDCHAR
STARTCHAR 4EC7
ENCODING 20167
SWIDTH 720 0
DWIDTH 12 0
BBX 12 10 0 -1
BITMAP
1200
1200
2FC0
6240
A240
2240
2440
2440
2860
0000
ENDCHAR
STARTCHAR 4ECA
ENCODING 20170
SWIDTH 720 0
DWIDTH 12 0
BBX 12 10 0 -1
BITMAP
0400
0A00
3180
DF60
0000
3F80
0080
0100
0600
0000
ENDCHAR
STARTCHAR 4ECB
ENCODING 20171
SWIDTH 720 0
DWIDTH 12 0
BBX 12 10 0 -1
BITMAP
0400
0A00
3180
C060
1100
1100
1100
2100
2100
0000
ENDCHAR
STARTCHAR 4ECD
ENCODING 20173
SWIDTH 720 0
DWIDTH 12 0
BBX 12 10 0 -1
BITMAP
17C0
1240
2240
62E0
A220
2220
2420
2420
28C0
0000
ENDCHAR
STARTCHAR 4ECE
ENCODING 20174
SWIDTH 720 0
DWIDTH 12 0
BBX 12 10 0 -1
BITMAP
2080
2080
2080
2080
2080
5140
4940
8220
8420
0000
ENDCHAR
STARTCHAR 4ECF
ENCODING 20175
SWIDTH 720 0
DWIDTH 12 0
BBX 12 10 0 -1
BITMAP
1100
1100
2100
6200
A200
2200
2440
24C0
2F20
0000
ENDCHAR
STARTCHAR 4ED4
ENCODING 20180
SWIDTH 720 0
DWIDTH 12 0
BBX 12 10 0 -1
BITMAP
17C0
1080
2100
6100
AFE0
2100
2100
2100
2300
0000
ENDCHAR
STARTCHAR 4ED5
ENCODING 20181
SWIDTH 720 0
DWIDTH 12 0
BBX 12 10 0 -1
BITMAP
1100
1100
2100
6FE0
A100
2100
2100
2100
27C0
0000
ENDCHAR
STARTCHAR 4ED6
ENCODING 20182
SWIDTH 720 0
DWIDTH 12 0
BBX 12 10 0 -1
BITMAP
1100
1500
25E0
6720
AD20
2560
2500
2420
23E0
0000
ENDCHAR
STARTCHAR 4ED7
ENCODING 20183
SWIDTH 720 0
DWIDTH 12 0
BBX 12 10 0 -1
BITMAP
1080
1080
2FE0
6080
A280
2100
2100
2280
2C60
0000
ENDCHAR
STARTCHAR 4ED8
ENCODING 20184
SWIDTH 720 0
DWIDTH 12 0
BBX 12 10 0 -1
BITMAP
1040
1040
27E0
6040
A440
2240
2040
2040
21C0
0000
ENDCHAR
STARTCHAR 4ED9
ENCODING 20185
SWIDTH 720 0
DWIDTH 12 0
BBX 12 10 0 -1
BITMAP
1100
1100
2100
6920
A920
2920
2920
2920
2FE0
0000
ENDCHAR
STARTCHAR 4EDD
ENCODING 20189
SWIDTH 720 0
DWIDTH 12 0
BBX 12 10 0 -1
BITMAP
0400
0A00
3180
C060
1F00
0400
0400
0400
7FC0
0000
ENDCHAR
STARTCHAR 4EDE
ENCODING 20190
SWIDTH 720 0
DWIDTH 12 0
BBX 12 10 0 -1
BITMAP
17E0
1120
2520
6520
A920
2220
2220
2420
28C0
0000
ENDCHAR
STARTCHAR 4EDF
ENCODING 20191
SWIDTH 720 0
DWIDTH 12 0
BBX 12 10 0 -1
BITMAP
10C0
1700
2100
6100
AFE0
2100
2100
2100
2100
0000
ENDCHAR
STARTCHAR 4EE3
ENCODING 20195
SWIDTH 720 0
DWIDTH 12 0
BBX 12 10 0 -1
BITMAP
1280
1240
2200
6FE0
A200
2100
2100
20A0
2060
0000
ENDCHAR
STARTCHAR 4EE4
ENCODING 20196
SWIDTH 720 0
DWIDTH 12 0
BBX 12 10 0 -1
BITMAP
0400
0A00
3180
DF60
0000
3F80
0880
0980
0800
0000
ENDCHAR
STARTCHAR 4EE5
ENCODING 20197
SWIDTH 720 0
DWIDTH 12 0
BBX 12 10 0 -1
BITMAP
4040
4C40
4240
4040
4080
4880
7140
C220
0C20
0000
ENDCHAR
STARTCHAR 4EED
ENCODING 20205
SWIDTH 720 0
DWIDTH 12 0
BBX 12 10 0 -1
BITMAP
17C0
1240
2A40
6640
A240
2340
24C0
2460
2980
0000
ENDCHAR
STARTCHAR 4EEE
ENCODING 20206
SWIDTH 720 0
DWIDTH 12 0
BBX 12 10 0 -1
BITMAP
17E0
1400
2400
67E0
A620
2540
2880
2940
3620
0000
ENDCHAR
STARTCHAR 4EF0
ENCODING 20208
SWIDTH 720 0
DWIDTH 12 0
BBX 12 10 0 -1
BITMAP
1200
1DE0
2920
6920
A920
2920
2F20
3940
2100
0000
ENDCHAR
STARTCHAR 4EF2
ENCODING 20210
SWIDTH 720 0
DWIDTH 12 0
BBX 12 10 0 -1
BITMAP
1100
1100
2FE0
6920
A920
2FE0
2100
2100
2100
0000
ENDCHAR
STARTCHAR 4EF6
ENCODING 20214
SWIDTH 720 0
DWIDTH 12 0
BBX 12 10 0 -1
BITMAP
1500
1500
27E0
6900
A100
2FE0
2100
2100
2100
0000
ENDCHAR
STARTCHAR 4EF7
ENCODING 20215
SWIDTH 720 0
DWIDTH 12 0
BBX 12 10 0 -1
BITMAP
1100
1280
2440
6AA0
A280
2280
2480
2480
2880
0000
ENDCHAR
STARTCHAR 4EFB
ENCODING 20219
SWIDTH 720 0
DWIDTH 12 0
BBX 12 10 0 -1
BITMAP
10C0
1700
2100
6100
AFE0
2100
2100
2100
27C0
0000
ENDCHAR
STARTCHAR 4F01
ENCODING 20225
SWIDTH 720 0
DWIDTH 12 0
BBX 12 10 0 -1
BITMAP
0400
0A00
3580
C460
0400
2780
2400
2400
FFE0
0000
ENDCHAR
STARTCHAR 4F09
ENCODING 20233
SWIDTH 720 0
DWIDTH 12 0
BBX 12 10 0 -1
BITMAP
1100
1FE0
2000
6780
A480
2480
2480
28A0
30E0
0000
ENDCHAR
STARTCHAR 4F0A
ENCODING 20234
SWIDTH 720 0
DWIDTH 12 0
BBX 12 10 0 -1
BITMAP
17C0
1140
2FE0
6140
A7C0
2100
2100
2200
2200
0000
ENDCHAR
STARTCHAR 4F0D
ENCODING 20237
SWIDTH 720 0
DWIDTH 12 0
BBX 12 10 0 -1
BITMAP
17C0
1200
2200
6200
A7C0
2240
2240
2240
2FE0
0000
ENDCHAR
STARTCHAR 4F0E
ENCODING 20238
SWIDTH 720 0
DWIDTH 12 0
BBX 12 10 0 -1
BITMAP
1100
1FE0
2100
6FC0
A440
2280
2100
2280
2C60
0000
ENDCHAR
STARTCHAR 4F0F
ENCODING 20239
SWIDTH 720 0
DWIDTH 12 0
BBX 12 10 0 -1
BITMAP
1140
1120
2100
6FE0
A100
2280
2280
2440
2820
0000
ENDCHAR
STARTCHAR 4F10
ENCODING 20240
SWIDTH 720 0
DWIDTH 12 0
BBX 12 10 0 -1
BITMAP
1280
1240
2200
6FE0
A240
2180
2100
26A0
3860
0000
ENDCHAR
STARTCHAR 4F11
ENCODING 20241
SWIDTH 720 0
DWIDTH 12 0
BBX 12 10 0 -1
BITMAP
1100
1100
2FE0
6100
A380
2540
2920
2100
2100
0000
ENDCHAR
STARTCHAR 4F1A
ENCODING 20250
SWIDTH 720 0
DWIDTH 12 0
BBX 12 10 0 -1
BITMAP
0400
0A00
3180
DF60
0000
7FC0
1100
2180
7E40
0000
ENDCHAR
STARTCHAR 4F1C
ENCODING 20252
SWIDTH 720 0
DWIDTH 12 0
BBX 12 10 0 -1
BITMAP
1100
17C0
2140
6240
A560
2100
2FE0
2100
2100
0000
ENDCHAR
STARTCHAR 4F1D
ENCODING 20253
SWIDTH 720 0
DWIDTH 12 0
BBX 12 10 0 -1
BITMAP
17C0
1000
2000
6FE0
A200
2200
2440
25C0
2E20
0000
ENDCHAR
STARTCHAR 4F2F
ENCODING 20271
SWIDTH 720 0
DWIDTH 12 0
BBX 12 10 0 -1
BITMAP
1080
1100
27E0
6420
A420
27E0
2420
2420
27E0
0000
ENDCHAR
STARTCHAR 4F30
ENCODING 20272
SWIDTH 720 0
DWIDTH 12 0
BBX 12 10 0 -1
BITMAP
1100
1100
2FE0
6100
A100
27C0
2440
2440
27C0
0000
ENDCHAR
STARTCHAR 4F34
ENCODING 20276
SWIDTH 720 0
DWIDTH 12 0
BBX 12 10 0 -1
BITMAP
1100
1520
2340
67E0
A100
2FE0
2100
2100
2100
0000
ENDCHAR
STARTCHAR 4F36
ENCODING 20278
SWIDTH 720 0
DWIDTH 12 0
BBX 12 10 0 -1
BITMAP
1100
1280
2440
6BA0
A000
27E0
2120
2160
2100
0000
ENDCHAR
STARTCHAR 4F38
ENCODING 20280
SWIDTH 720 0
DWIDTH 12 0
BBX 12 10 0 -1
BITMAP
1100
1FE0
2920
6FE0
A920
2FE0
2100
2100
2100
0000
ENDCHAR
STARTCHAR 4F3A
ENCODING 20282
SWIDTH 720 0
DWIDTH 12 0
BBX 12 10 0 -1
BITMAP
17E0
1020
27A0
6020
A7A0
24A0
27A0
2020
2060
0000
ENDCHAR
STARTCHAR 4F3C
ENCODING 20284
SWIDTH 720 0
DWIDTH 12 0
BBX 12 10 0 -1
BITMAP
2000
2840
4A40
C940
C840
4A40
4C40
58A0
4320
0000
ENDCHAR
STARTCHAR 4F3D
ENCODING 20285
SWIDTH 720 0
DWIDTH 12 0
BBX 12 10 0 -1
BITMAP
2800
28E0
5EA0
CAA0
CAA0
4AA0
4AA0
52A0
56E0
0000
ENDCHAR
STARTCHAR 4F43
ENCODING 20291
SWIDTH 720 0
DWIDTH 12 0
BBX 12 10 0 -1
BITMAP
1FE0
1920
2920
6920
AFE0
2920
2920
2920
2FE0
0000
ENDCHAR
STARTCHAR 4F46
ENCODING 20294
SWIDTH 720 0
DWIDTH 12 0
BBX 12 10 0 -1
BITMAP
17C0
1440
2440
67C0
A440
2440
27C0
2000
2FE0
0000
ENDCHAR
STARTCHAR 4F47
ENCODING 20295
SWIDTH 720 0
DWIDTH 12 0
BBX 12 10 0 -1
BITMAP
1100
1FE0
2820
6000
AFE0
2100
2100
2100
2300
0000
ENDCHAR
STARTCHAR 4F4D
ENCODING 20301
SWIDTH 720 0
DWIDTH 12 0
BBX 12 10 0 -1
BITMAP
1100
1100
2FE0
6440
A440
2240
2280
2080
2FE0
0000
ENDCHAR
STARTCHAR 4F4E
ENCODING 20302
SWIDTH 720 0
DWIDTH 12 0
BBX 12 10 0 -1
BITMAP
1040
1780
2480
67E0
A480
2480
2740
2C60
27A0
0000
ENDCHAR
STARTCHAR 4F4F
ENCODING 20303
SWIDTH 720 0
DWIDTH 12 0
BBX 12 10 0 -1
BITMAP
1200
1100
27C0
6100
A100
27C0
2100
2100
2FE0
0000
ENDCHAR
STARTCHAR 4F50
ENCODING 20304
SWIDTH 720 0
DWIDTH 12 0
BBX 12 10 0 -1
BITMAP
1100
1100
2FE0
6200
A400
2FC0
3100
2100
2FE0
0000
ENDCHAR
STARTCHAR 4F51
ENCODING 20305
SWIDTH 720 0
DWIDTH 12 0
BBX 12 10 0 -1
BITMAP
1100
1100
2FE0
6200
A400
2FE0
3420
2420
27E0
0000
ENDCHAR
STARTCHAR 4F53
ENCODING 20307
SWIDTH 720 0
DWIDTH 12 0
BBX 12 10 0 -1
BITMAP
1100
1100
2FE0
6100
A380
2540
2920
2380
2100
0000
ENDCHAR
STARTCHAR 4F55
ENCODING 20309
SWIDTH 720 0
DWIDTH 12 0
BBX 12 10 0 -1
BITMAP
1000
17E0
2040
6F40
A940
2940
2F40
2040
20C0
0000
ENDCHAR
STARTCHAR 4F57
ENCODING 20311
SWIDTH 720 0
DWIDTH 12 0
BBX 12 10 0 -1
BITMAP
1100
1FE0
2820
6400
A4C0
2700
2400
2420
23E0
0000
ENDCHAR
STARTCHAR 4F59
ENCODING 20313
SWIDTH 720 0
DWIDTH 12 0
BBX 12 10 0 -1
BITMAP
0400
0A00
3180
DF60
0400
7FC0
0400
2480
4C40
0000
ENDCHAR
STARTCHAR 4F5A
ENCODING 20314
SWIDTH 720 0
DWIDTH 12 0
BBX 12 10 0 -1
BITMAP
1100
1500
27C0
6500
A900
2FE0
2100
2280
2C60
0000
ENDCHAR
STARTCHAR 4F5B
ENCODING 20315
SWIDTH 720 0
DWIDTH 12 0
BBX 12 10 0 -1
BITMAP
1280
17E0
22A0
6FE0
AA80
2FE0
22A0
22C0
2C80
0000
ENDCHAR
STARTCHAR 4F5C
ENCODING 20316
SWIDTH 720 0
DWIDTH 12 0
BBX 12 10 0 -1
BITMAP
1200
1200
23E0
6500
A9E0
2100
21E0
2100
2100
0000
ENDCHAR
STARTCHAR 4F5D
ENCODING 20317
SWIDTH 720 0
DWIDTH 12 0
BBX 12 10 0 -1
BITMAP
1400
17E0
2420
6FA0
B4A0
24A0
27A0
2020
20C0
0000
ENDCHAR
STARTCHAR 4F5E
ENCODING 20318
SWIDTH 720 0
DWIDTH 12 0
BBX 12 10 0 -1
BITMAP
17C0
1000
2FE0
6100
AFE0
2240
2780
2240
2C20
0000
ENDCHAR
STARTCHAR 4F69
ENCODING 20329
SWIDTH 720 0
DWIDTH 12 0
BBX 12 10 0 -1
BITMAP
3FC0
3040
5FC0
D240
DFC0
5AC0
5AC0
6BE0
6220
0000
ENDCHAR
STARTCHAR 4F6F
ENCODING 20335
SWIDTH 720 0
DWIDTH 12 0
BBX 12 10 0 -1
BITMAP
1440
1280
2FE0
6100
A7C0
2100
2FE0
2100
2100
0000
ENDCHAR
STARTCHAR 4F70
ENCODING 20336
SWIDTH 720 0
DWIDTH 12 0
BBX 12 10 0 -1
BITMAP
17E0
1100
2200
67E0
A420
27E0
2420
2420
27E0
0000
ENDCHAR
STARTCHAR 4F73
ENCODING 20339
SWIDTH 720 0
DWIDTH 12 0
BBX 12 10 0 -1
BITMAP
1100
17C0
2100
6FE0
A100
27C0
2100
2100
2FE0
0000
ENDCHAR
STARTCHAR 4F75
ENCODING 20341
SWIDTH 720 0
DWIDTH 12 0
BBX 12 10 0 -1
BITMAP
1440
1280
2FE0
6280
A280
2FE0
2480
2480
2880
0000
ENDCHAR
STARTCHAR 4F76
ENCODING 20342
SWIDTH 720 0
DWIDTH 12 0
BBX 12 10 0 -1
BITMAP
1100
1FE0
2100
67C0
A000
27C0
2440
2440
27C0
0000
ENDCHAR
STARTCHAR 4F7B
ENCODING 20347
SWIDTH 720 0
DWIDTH 12 0
BBX 12 10 0 -1
BITMAP
1280
1AA0
26C0
6280
A6C0
2AA0
2280
24A0
28E0
0000
ENDCHAR
STARTCHAR 4F7C
ENCODING 20348
SWIDTH 720 0
DWIDTH 12 0
BBX 12 10 0 -1
BITMAP
1100
1FE0
2280
6440
ACA0
2280
2100
2280
2C60
0000
ENDCHAR
STARTCHAR 4F7F
ENCODING 20351
SWIDTH 720 0
DWIDTH 12 0
BBX 12 10 0 -1
BITMAP
1100
1FE0
2100
6FE0
A920
2FE0
2500
2300
2CE0
0000
ENDCHAR
STARTCHAR 4F83
ENCODING 20355
SWIDTH 720 0
DWIDTH 12 0
BBX 12 10 0 -1
BITMAP
17C0
1440
2440
67C0
A000
2540
2540
2560
2960
0000
ENDCHAR
STARTCHAR 4F86
ENCODING 20358
SWIDTH 720 0
DWIDTH 12 0
BBX 12 10 0 -1
BITMAP
0400
FFE0
2480
2480
D560
0E00
1500
E4E0
0400
0000
ENDCHAR
STARTCHAR 4F88
ENCODING 20360
SWIDTH 720 0
DWIDTH 12 0
BBX 12 10 0 -1
BITMAP
1100
13C0
2E40
6180
A700
23E0
2E40
2180
2E00
0000
ENDCHAR
STARTCHAR 4F8B
ENCODING 20363
SWIDTH 720 0
DWIDTH 12 0
BBX 12 10 0 -1
BITMAP
3E20
28A0
4EA0
CAA0
DAA0
44A0
44A0
4820
5060
0000
ENDCHAR
STARTCHAR 4F8D
ENCODING 20365
SWIDTH 720 0
DWIDTH 12 0
BBX 12 10 0 -1
BITMAP
1100
17C0
2100
6FE0
A040
2FE0
2440
2240
20C0
0000
ENDCHAR
STARTCHAR 4F8F
ENCODING 20367
SWIDTH 720 0
DWIDTH 12 0
BBX 12 10 0 -1
BITMAP
1100
1500
27C0
6900
AFE0
2380
2540
2920
2100
0000
ENDCHAR
STARTCHAR 4F91
ENCODING 20369
SWIDTH 720 0
DWIDTH 12 0
BBX 12 10 0 -1
BITMAP
1400
1FE0
2400
6FC0
B440
27C0
2440
27C0
24C0
0000
ENDCHAR
STARTCHAR 4F96
ENCODING 20374
SWIDTH 720 0
DWIDTH 12 0
BBX 12 10 0 -1
BITMAP
0400
0A00
3F80
C060
7FC0
4A40
7FC0
4A40
4AC0
0000
ENDCHAR
STARTCHAR 4F98
ENCODING 20376
SWIDTH 720 0
DWIDTH 12 0
BBX 12 10 0 -1
BITMAP
1100
1FE0
28A0
6700
A100
2FE0
2100
2120
20E0
0000
ENDCHAR
STARTCHAR 4F9B
ENCODING 20379
SWIDTH 720 0
DWIDTH 12 0
BBX 12 10 0 -1
BITMAP
1480
1480
3FC0
6480
A480
3FE0
2480
2840
2840
0000
ENDCHAR
STARTCHAR 4F9D
ENCODING 20381
SWIDTH 720 0
DWIDTH 12 0
BBX 12 10 0 -1
BITMAP
1100
1FE0
2100
62A0
A4C0
2C80
2440
2740
2C20
0000
ENDCHAR
STARTCHAR 4FA0
ENCODING 20384
SWIDTH 720 0
DWIDTH 12 0
BBX 12 10 0 -1
BITMAP
1100
17C0
2100
6920
A540
2FE0
2100
2280
2C60
0000
ENDCHAR
STARTCHAR 4FA1
ENCODING 20385
SWIDTH 720 0
DWIDTH 12 0
BBX 12 10 0 -1
BITMAP
1FE0
1280
2280
6FE0
AAA0
2AA0
2AA0
2AA0
2FE0
0000
ENDCHAR
STARTCHAR 4FAB
ENCODING 20395
SWIDTH 720 0
DWIDTH 12 0
BBX 12 10 0 -1
BITMAP
1100
1FE0
2400
63E0
A100
2FE0
2240
2380
2E60
0000
ENDCHAR
STARTCHAR 4FAD
ENCODING 20397
SWIDTH 720 0
DWIDTH 12 0
BBX 12 10 0 -1
BITMAP
17E0
1420
27E0
6440
A840
2B20
30A0
2300
20C0
0000
ENDCHAR
STARTCHAR 4FAE
ENCODING 20398
SWIDTH 720 0
DWIDTH 12 0
BBX 12 10 0 -1
BITMAP
1400
17E0
2800
67C0
A540
2FE0
2540
27E0
20C0
0000
ENDCHAR
STARTCHAR 4FAF
ENCODING 20399
SWIDTH 720 0
DWIDTH 12 0
BBX 12 10 0 -1
BITMAP
17C0
1040
2FE0
6400
A7C0
2900
27E0
2280
2C60
0000
ENDCHAR
STARTCHAR 4FB5
ENCODING 20405
SWIDTH 720 0
DWIDTH 12 0
BBX 12 10 0 -1
BITMAP
17C0
1040
27C0
6040
BFE0
37A0
2480
2300
2CE0
0000
ENDCHAR
STARTCHAR 4FB6
ENCODING 20406
SWIDTH 720 0
DWIDTH 12 0
BBX 12 10 0 -1
BITMAP
17C0
1440
2440
67C0
A200
2FE0
2820
2820
2FE0
0000
ENDCHAR
STARTCHAR 4FBF
ENCODING 20415
SWIDTH 720 0
DWIDTH 12 0
BBX 12 10 0 -1
BITMAP
1FE0
17C0
2540
67C0
A540
27C0
2500
2300
2CE0
0000
ENDCHAR
STARTCHAR 4FC2
ENCODING 20418
SWIDTH 720 0
DWIDTH 12 0
BBX 12 10 0 -1
BITMAP
10C0
1F00
2240
6180
A220
2FE0
2120
2540
2920
0000
ENDCHAR
STARTCHAR 4FC3
ENCODING 20419
SWIDTH 720 0
DWIDTH 12 0
BBX 12 10 0 -1
BITMAP
17C0
1440
2440
67C0
A100
25C0
2500
2700
29E0
0000
ENDCHAR
STARTCHAR 4FC4
ENCODING 20420
SWIDTH 720 0
DWIDTH 12 0
BBX 12 10 0 -1
BITMAP
2640
2D20
4500
DFE0
C500
46C0
5C80
44C0
4D20
0000
ENDCHAR
STARTCHAR 4FCA
ENCODING 20426
SWIDTH 720 0
DWIDTH 12 0
BBX 12 10 0 -1
BITMAP
1200
1460
27A0
6280
ACE0
23C0
2640
2180
2E60
0000
ENDCHAR
STARTCHAR 4FCE
ENCODING 20430
SWIDTH 720 0
DWIDTH 12 0
BBX 12 10 0 -1
BITMAP
27C0
2440
2440
57C0
8440
27C0
2440
5440
8FE0
0000
ENDCHAR
STARTCHAR 4FD0
ENCODING 20432
SWIDTH 720 0
DWIDTH 12 0
BBX 12 10 0 -1
BITMAP
1120
1EA0
22A0
6FA0
A2A0
27A0
2AA0
2A20
2260
0000
ENDCHAR
STARTCHAR 4FD1
ENCODING 20433
SWIDTH 720 0
DWIDTH 12 0
BBX 12 10 0 -1
BITMAP
17C0
1240
2180
6FE0
A920
2FE0
2920
2FE0
2920
0000
ENDCHAR
STARTCHAR 4FD4
ENCODING 20436
SWIDTH 720 0
DWIDTH 12 0
BBX 12 10 0 -1
BITMAP
17C0
1440
27C0
6440
A7C0
2440
27C0
22A0
2CE0
0000
ENDCHAR
STARTCHAR 4FD7
ENCODING 20439
SWIDTH 720 0
DWIDTH 12 0
BBX 12 10 0 -1
BITMAP
1280
1440
2920
6280
A440
2FE0
2440
2440
27C0
0000
ENDCHAR
STARTCHAR 4FD8
ENCODING 20440
SWIDTH 720 0
DWIDTH 12 0
BBX 12 10 0 -1
BITMAP
1020
17C0
2540
68A0
A7C0
2080
2FE0
2100
2300
0000
ENDCHAR
STARTCHAR 4FDA
ENCODING 20442
SWIDTH 720 0
DWIDTH 12 0
BBX 12 10 0 -1
BITMAP
17C0
1540
27C0
6540
A7C0
2100
27C0
2100
2FE0
0000
ENDCHAR
STARTCHAR 4FDB
ENCODING 20443
SWIDTH 720 0
DWIDTH 12 0
BBX 12 10 0 -1
BITMAP
1380
1480
2FC0
6540
A540
27C0
2280
24A0
38E0
0000
ENDCHAR
STARTCHAR 4FDD
ENCODING 20445
SWIDTH 720 0
DWIDTH 12 0
BBX 12 10 0 -1
BITMAP
17C0
1440
2440
67C0
A100
2FE0
2380
2540
2920
0000
ENDCHAR
STARTCHAR 4FDF
ENCODING 20447
SWIDTH 720 0
DWIDTH 12 0
BBX 12 10 0 -1
BITMAP
1100
1240
2FE0
6420
A7C0
2900
2FE0
2280
2C60
0000
ENDCHAR
STARTCHAR 4FE1
ENCODING 20449
SWIDTH 720 0
DWIDTH 12 0
BBX 12 10 0 -1
BITMAP
13C0
1000
27E0
6000
A3C0
2000
27E0
2420
27E0
0000
ENDCHAR
STARTCHAR 4FE3
ENCODING 20451
SWIDTH 720 0
DWIDTH 12 0
BBX 12 10 0 -1
BITMAP
17C0
1440
27C0
6000
A7C0
2100
2FE0
2280
2C60
0000
ENDCHAR
STARTCHAR 4FE4
ENCODING 20452
SWIDTH 720 0
DWIDTH 12 0
BBX 12 10 0 -1
BITMAP
1280
17C0
2140
6FC0
A900
2FE0
2320
2D60
2100
0000
ENDCHAR
STARTCHAR 4FE5
ENCODING 20453
SWIDTH 720 0
DWIDTH 12 0
BBX 12 10 0 -1
BITMAP
1100
17C0
2100
67C0
A540
27C0
2100
2FE0
2100
0000
ENDCHAR
STARTCHAR 4FEE
ENCODING 20462
SWIDTH 720 0
DWIDTH 12 0
BBX 12 10 0 -1
BITMAP
1200
23E0
4640
D180
5660
5080
5320
5040
4380
0000
ENDCHAR
STARTCHAR 4FEF
ENCODING 20463
SWIDTH 720 0
DWIDTH 12 0
BBX 12 10 0 -1
BITMAP
2200
3FE0
5240
D440
DFE0
5540
54C0
5440
64C0
0000
ENDCHAR
STARTCHAR 4FF3
ENCODING 20467
SWIDTH 720 0
DWIDTH 12 0
BBX 12 10 0 -1
BITMAP
1280
1280
2EE0
6280
AEE0
2280
2EE0
2280
2480
0000
ENDCHAR
STARTCHAR 4FF5
ENCODING 20469
SWIDTH 720 0
DWIDTH 12 0
BBX 12 10 0 -1
BITMAP
1100
1FE0
2100
67C0
A100
2FE0
26A0
2AC0
2320
0000
ENDCHAR
STARTCHAR 4FF6
ENCODING 20470
SWIDTH 720 0
DWIDTH 12 0
BBX 12 10 0 -1
BITMAP
1400
17E0
24A0
7FA0
A4A0
2E40
3540
24A0
2D20
0000
ENDCHAR
STARTCHAR 4FF8
ENCODING 20472
SWIDTH 720 0
DWIDTH 12 0
BBX 12 10 0 -1
BITMAP
1100
1FE0
2280
6FE0
A540
2BA0
2100
27C0
2100
0000
ENDCHAR
STARTCHAR 4FFA
ENCODING 20474
SWIDTH 720 0
DWIDTH 12 0
BBX 12 10 0 -1
BITMAP
2200
3FE0
4500
DAC0
EFA0
4A80
4F80
4220
43E0
0000
ENDCHAR
STARTCHAR 4FFE
ENCODING 20478
SWIDTH 720 0
DWIDTH 12 0
BBX 12 10 0 -1
BITMAP
1100
17C0
2540
67C0
A540
27C0
2280
2FE0
2080
0000
ENDCHAR
STARTCHAR 5005
ENCODING 20485
SWIDTH 720 0
DWIDTH 12 0
BBX 12 10 0 -1
BITMAP
1100
1FE0
2440
6440
AAA0
2100
2FE0
2100
2100
0000
ENDCHAR
STARTCHAR 5006
ENCODING 20486
SWIDTH 720 0
DWIDTH 12 0
BBX 12 10 0 -1
BITMAP
1FE0
1100
2FE0
6920
ADA0
2DA0
2B60
2920
2960
0000
ENDCHAR
STARTCHAR 5009
ENCODING 20489
SWIDTH 720 0
DWIDTH 12 0
BBX 12 10 0 -1
BITMAP
0400
0A00
3F80
E160
3F00
2000
7F80
A080
3F80
0000
ENDCHAR
STARTCHAR 500B
ENCODING 20491
SWIDTH 720 0
DWIDTH 12 0
BBX 12 10 0 -1
BITMAP
1FE0
2920
2BA0
6920
ABA0
2AA0
2BA0
2820
2FE0
0000
ENDCHAR
STARTCHAR 500D
ENCODING 20493
SWIDTH 720 0
DWIDTH 12 0
BBX 12 10 0 -1
BITMAP
1100
17C0
2280
6FE0
A000
27C0
2440
2440
27C0
0000
ENDCHAR
STARTCHAR 500F
ENCODING 20495
SWIDTH 720 0
DWIDTH 12 0
BBX 12 10 0 -1
BITMAP
2200
23E0
5640
D180
D660
5140
5FE0
4280
4C60
0000
ENDCHAR
STARTCHAR 5011
ENCODING 20497
SWIDTH 720 0
DWIDTH 12 0
BBX 12 10 0 -1
BITMAP
1EE0
1AA0
2EE0
6AA0
AEE0
2820
2820
2820
28E0
0000
ENDCHAR
STARTCHAR 5012
ENCODING 20498
SWIDTH 720 0
DWIDTH 12 0
BBX 12 10 0 -1
BITMAP
2E20
24A0
4BA0
DDA0
C4A0
5EA0
4420
4720
5860
0000
ENDCHAR
STARTCHAR 5014
ENCODING 20500
SWIDTH 720 0
DWIDTH 12 0
BBX 12 10 0 -1
BITMAP
17E0
1420
27E0
6480
A6A0
27E0
2480
2AA0
2BE0
0000
ENDCHAR
STARTCHAR 5016
ENCODING 20502
SWIDTH 720 0
DWIDTH 12 0
BBX 12 10 0 -1
BITMAP
1100
17C0
2100
6FE0
A440
2FE0
2100
2FE0
2100
0000
ENDCHAR
STARTCHAR 5019
ENCODING 20505
SWIDTH 720 0
DWIDTH 12 0
BBX 12 10 0 -1
BITMAP
27C0
2040
4FE0
D200
D7E0
5900
57E0
5280
4460
0000
ENDCHAR
STARTCHAR 501A
ENCODING 20506
SWIDTH 720 0
DWIDTH 12 0
BBX 12 10 0 -1
BITMAP
1100
17C0
2280
6440
AFE0
2740
2540
2740
20C0
0000
ENDCHAR
STARTCHAR 501F
ENCODING 20511
SWIDTH 720 0
DWIDTH 12 0
BBX 12 10 0 -1
BITMAP
1280
17C0
2280
6FE0
A7C0
2440
27C0
2440
27C0
0000
ENDCHAR
STARTCHAR 5021
ENCODING 20513
SWIDTH 720 0
DWIDTH 12 0
BBX 12 10 0 -1
BITMAP
17C0
1440
27C0
6440
AFE0
2820
2FE0
2820
2FE0
0000
ENDCHAR
STARTCHAR 5023
ENCODING 20515
SWIDTH 720 0
DWIDTH 12 0
BBX 12 10 0 -1
BITMAP
2880
2880
5EE0
C9A0
CEA0
4A40
4A40
52A0
6720
0000
ENDCHAR
STARTCHAR 5024
ENCODING 20516
SWIDTH 720 0
DWIDTH 12 0
BBX 12 10 0 -1
BITMAP
1100
17C0
2100
6BC0
AA40
2BC0
2A40
2BC0
2FE0
0000
ENDCHAR
STARTCHAR 5025
ENCODING 20517
SWIDTH 720 0
DWIDTH 12 0
BBX 12 10 0 -1
BITMAP
1100
1FE0
2AA0
6280
A4E0
2000
27C0
2100
2FE0
0000
ENDCHAR
STARTCHAR 5026
ENCODING 20518
SWIDTH 720 0
DWIDTH 12 0
BBX 12 10 0 -1
BITMAP
1540
17C0
2280
6FE0
A7C0
38A0
2780
2420
23E0
0000
ENDCHAR
STARTCHAR 5028
ENCODING 20520
SWIDTH 720 0
DWIDTH 12 0
BBX 12 10 0 -1
BITMAP
17E0
1420
27E0
6480
A7E0
2480
27E0
2A20
2BE0
0000
ENDCHAR
STARTCHAR 5029
ENCODING 20521
SWIDTH 720 0
DWIDTH 12 0
BBX 12 10 0 -1
BITMAP
1100
17C0
2100
6FE0
A7C0
2540
27C0
2440
24C0
0000
ENDCHAR
STARTCHAR 502A
ENCODING 20522
SWIDTH 720 0
DWIDTH 12 0
BBX 12 10 0 -1
BITMAP
1200
1CE0
2820
6EE0
A820
2FE0
2280
22A0
2CE0
0000
ENDCHAR
STARTCHAR 502B
ENCODING 20523
SWIDTH 720 0
DWIDTH 12 0
BBX 12 10 0 -1
BITMAP
1100
1280
27C0
6820
A7C0
2540
27C0
2540
2540
0000
ENDCHAR
STARTCHAR 502C
ENCODING 20524
SWIDTH 720 0
DWIDTH 12 0
BBX 12 10 0 -1
BITMAP
1100
11C0
2100
67C0
A440
27C0
2100
2FE0
2100
0000
ENDCHAR
STARTCHAR 502D
ENCODING 20525
SWIDTH 720 0
DWIDTH 12 0
BBX 12 10 0 -1
BITMAP
17C0
1100
2FE0
6380
A540
2FE0
2240
2380
2E60
0000
ENDCHAR
STARTCHAR 5036
ENCODING 20534
SWIDTH 720 0
DWIDTH 12 0
BBX 12 10 0 -1
BITMAP
17C0
1440
27C0
6440
A7C0
2440
2FE0
2440
2820
0000
ENDCHAR
STARTCHAR 5039
ENCODING 20537
SWIDTH 720 0
DWIDTH 12 0
BBX 12 10 0 -1
BITMAP
1100
1280
37C0
6920
A7C0
2540
27C0
2280
2C60
0000
ENDCHAR
STARTCHAR 5043
ENCODING 20547
SWIDTH 720 0
DWIDTH 12 0
BBX 12 10 0 -1
BITMAP
1FE0
1BC0
2A40
6BC0
AFE0
2940
2980
2A60
2FE0
0000
ENDCHAR
STARTCHAR 5047
ENCODING 20551
SWIDTH 720 0
DWIDTH 12 0
BBX 12 10 0 -1
BITMAP
1EE0
1A20
2EE0
6800
AEE0
28A0
2EA0
2840
29A0
0000
ENDCHAR
STARTCHAR 5048
ENCODING 20552
SWIDTH 720 0
DWIDTH 12 0
BBX 12 10 0 -1
BITMAP
1FC0
1840
2FC0
6840
A7E0
2D20
36A0
27A0
2040
0000
ENDCHAR
STARTCHAR 5049
ENCODING 20553
SWIDTH 720 0
DWIDTH 12 0
BBX 12 10 0 -1
BITMAP
1200
1780
2280
6FE0
A440
27C0
2280
2FE0
2080
0000
ENDCHAR
STARTCHAR 504F
ENCODING 20559
SWIDTH 720 0
DWIDTH 12 0
BBX 12 10 0 -1
BITMAP
17C0
1000
27C0
6440
A7E0
26A0
27E0
2AA0
32A0
0000
ENDCHAR
STARTCHAR 5050
ENCODING 20560
SWIDTH 720 0
DWIDTH 12 0
BBX 12 10 0 -1
BITMAP
1100
17E0
2180
6240
A7E0
2440
2580
2460
2980
0000
ENDCHAR
STARTCHAR 5055
ENCODING 20565
SWIDTH 720 0
DWIDTH 12 0
BBX 12 10 0 -1
BITMAP
1480
16E0
2480
6EE0
A7C0
2440
27C0
2440
27C0
0000
ENDCHAR
STARTCHAR 5056
ENCODING 20566
SWIDTH 720 0
DWIDTH 12 0
BBX 12 10 0 -1
BITMAP
1220
1740
2280
7FE0
A7C0
2C60
37C0
2440
27C0
0000
ENDCHAR
STARTCHAR 505A
ENCODING 20570
SWIDTH 720 0
DWIDTH 12 0
BBX 12 10 0 -1
BITMAP
2900
29E0
5F40
4940
DF40
5480
5480
5D40
4220
0000
ENDCHAR
STARTCHAR 505C
ENCODING 20572
SWIDTH 720 0
DWIDTH 12 0
BBX 12 10 0 -1
BITMAP
1100
1FE0
27C0
6440
AFE0
2820
27C0
2100
2300
0000
ENDCHAR
STARTCHAR 5065
ENCODING 20581
SWIDTH 720 0
DWIDTH 12 0
BBX 12 10 0 -1
BITMAP
2100
3BC0
4FE0
C940
D3C0
5900
6FE0
5900
67E0
0000
ENDCHAR
STARTCHAR 506C
ENCODING 20588
SWIDTH 720 0
DWIDTH 12 0
BBX 12 10 0 -1
BITMAP
1400
17E0
26A0
6BA0
A520
2040
2280
2A20
2BA0
0000
ENDCHAR
STARTCHAR 5072
ENCODING 20594
SWIDTH 720 0
DWIDTH 12 0
BBX 12 10 0 -1
BITMAP
1FE0
1920
2FE0
6920
AFE0
2280
2680
2A20
2BA0
0000
ENDCHAR
STARTCHAR 5074
ENCODING 20596
SWIDTH 720 0
DWIDTH 12 0
BBX 12 10 0 -1
BITMAP
3E20
32A0
5EA0
D2A0
DEA0
52A0
5EA0
4C20
5260
0000
ENDCHAR
STARTCHAR 5075
ENCODING 20597
SWIDTH 720 0
DWIDTH 12 0
BBX 12 10 0 -1
BITMAP
1100
11E0
2100
67C0
A440
27C0
2440
27C0
2C60
0000
ENDCHAR
STARTCHAR 5076
ENCODING 20598
SWIDTH 720 0
DWIDTH 12 0
BBX 12 10 0 -1
BITMAP
17C0
1540
27C0
6540
AFE0
2920
29A0
2F60
2860
0000
ENDCHAR
STARTCHAR 5078
ENCODING 20600
SWIDTH 720 0
DWIDTH 12 0
BBX 12 10 0 -1
BITMAP
1700
1280
27C0
6820
AEA0
2B40
2F40
2AA0
2AA0
0000
ENDCHAR
STARTCHAR 507D
ENCODING 20605
SWIDTH 720 0
DWIDTH 12 0
BBX 12 10 0 -1
BITMAP
1480
1300
2780
6280
A7C0
2440
2FE0
3020
2AA0
0000
ENDCHAR
STARTCHAR 5080
ENCODING 20608
SWIDTH 720 0
DWIDTH 12 0
BBX 12 10 0 -1
BITMAP
1200
1FC0
2940
6FC0
A940
2F80
25C0
2920
30E0
0000
ENDCHAR
STARTCHAR 5085
ENCODING 20613
SWIDTH 720 0
DWIDTH 12 0
BBX 12 10 0 -1
BITMAP
1140
1FE0
2540
67C0
A540
2080
2FE0
2480
2180
0000
ENDCHAR
STARTCHAR 508D
ENCODING 20621
SWIDTH 720 0
DWIDTH 12 0
BBX 12 10 0 -1
BITMAP
1100
17C0
2280
6FE0
A920
27C0
2380
2240
24C0
0000
ENDCHAR
STARTCHAR 5091
ENCODING 20625
SWIDTH 720 0
DWIDTH 12 0
BBX 12 10 0 -1
BITMAP
1440
17E0
2B40
65E0
B940
2FE0
2380
2540
2920
0000
ENDCHAR
STARTCHAR 5098
ENCODING 20632
SWIDTH 720 0
DWIDTH 12 0
BBX 12 10 0 -1
BITMAP
0E00
3180
E4E0
3580
CE60
3580
CE60
FFE0
0400
0000
ENDCHAR
STARTCHAR 5099
ENCODING 20633
SWIDTH 720 0
DWIDTH 12 0
BBX 12 10 0 -1
BITMAP
1240
1FE0
2240
6FE0
ABE0
2AA0
2BE0
2AA0
32A0
0000
ENDCHAR
STARTCHAR 509A
ENCODING 20634
SWIDTH 720 0
DWIDTH 12 0
BBX 12 10 0 -1
BITMAP
2480
3FE0
4AA0
D1A0
CAA0
4640
4540
48A0
5120
0000
ENDCHAR
STARTCHAR 50AC
ENCODING 20652
SWIDTH 720 0
DWIDTH 12 0
BBX 12 10 0 -1
BITMAP
1100
1920
2FE0
6480
AFE0
2500
27C0
2500
27E0
0000
ENDCHAR
STARTCHAR 50AD
ENCODING 20653
SWIDTH 720 0
DWIDTH 12 0
BBX 12 10 0 -1
BITMAP
1100
1FE0
2BC0
6960
AFC0
2FE0
3520
37E0
2560
0000
ENDCHAR
STARTCHAR 50B2
ENCODING 20658
SWIDTH 720 0
DWIDTH 12 0
BBX 12 10 0 -1
BITMAP
2480
2EE0
44A0
DFA0
C8A0
4E40
4A40
4AA0
5720
0000
ENDCHAR
STARTCHAR 50B3
ENCODING 20659
SWIDTH 720 0
DWIDTH 12 0
BBX 12 10 0 -1
BITMAP
1100
1FE0
2540
67C0
AFA0
2080
2FE0
2480
2180
0000
ENDCHAR
STARTCHAR 50B4
ENCODING 20660
SWIDTH 720 0
DWIDTH 12 0
BBX 12 10 0 -1
BITMAP
1FE0
1BC0
2A40
6BC0
A800
2BE0
2AA0
2BE0
2FE0
0000
ENDCHAR
STARTCHAR 50B5
ENCODING 20661
SWIDTH 720 0
DWIDTH 12 0
BBX 12 10 0 -1
BITMAP
1100
17C0
2100
6FE0
A440
27C0
2440
27C0
2C60
0000
ENDCHAR
STARTCHAR 50B7
ENCODING 20663
SWIDTH 720 0
DWIDTH 12 0
BBX 12 10 0 -1
BITMAP
1400
17E0
27C0
6A40
A3C0
27E0
2AA0
22A0
2540
0000
ENDCHAR
STARTCHAR 50BE
ENCODING 20670
SWIDTH 720 0
DWIDTH 12 0
BBX 12 10 0 -1
BITMAP
23E0
3080
53E0
DE20
D3E0
5220
53E0
4D40
4220
0000
ENDCHAR
STARTCHAR 50C2
ENCODING 20674
SWIDTH 720 0
DWIDTH 12 0
BBX 12 10 0 -1
BITMAP
1100
17C0
2D60
67C0
A540
2FE0
2240
2380
2E60
0000
ENDCHAR
STARTCHAR 50C5
ENCODING 20677
SWIDTH 720 0
DWIDTH 12 0
BBX 12 10 0 -1
BITMAP
1440
1FE0
2FC0
6940
AFC0
2100
2FC0
2100
3FE0
0000
ENDCHAR
STARTCHAR 50C9
ENCODING 20681
SWIDTH 720 0
DWIDTH 12 0
BBX 12 10 0 -1
BITMAP
0400
0A00
3F80
C060
7BC0
4A40
7BC0
2080
DB60
0000
ENDCHAR
STARTCHAR 50CA
ENCODING 20682
SWIDTH 720 0
DWIDTH 12 0
BBX 12 10 0 -1
BITMAP
1FE0
1280
2FE0
6AA0
AFE0
26C0
2BA0
2240
23C0
0000
ENDCHAR
STARTCHAR 50CD
ENCODING 20685
SWIDTH 720 0
DWIDTH 12 0
BBX 12 10 0 -1
BITMAP
2280
2C80
7FE0
56A0
DEA0
56A0
5CA0
46A0
5920
0000
ENDCHAR
STARTCHAR 50CF
ENCODING 20687
SWIDTH 720 0
DWIDTH 12 0
BBX 12 10 0 -1
BITMAP
1380
1480
2FE0
6920
AFE0
2340
2D80
22C0
2DA0
0000
ENDCHAR
STARTCHAR 50D1
ENCODING 20689
SWIDTH 720 0
DWIDTH 12 0
BBX 12 10 0 -1
BITMAP
10C0
1700
2FE0
66C0
BBA0
2FE0
2AA0
2BA0
2860
0000
ENDCHAR
STARTCHAR 50D5
ENCODING 20693
SWIDTH 720 0
DWIDTH 12 0
BBX 12 10 0 -1
BITMAP
1AA0
16C0
2FE0
6280
A7C0
2100
2FE0
2280
2C60
0000
ENDCHAR
STARTCHAR 50D6
ENCODING 20694
SWIDTH 720 0
DWIDTH 12 0
BBX 12 10 0 -1
BITMAP
1100
1FE0
27C0
6440
A7C0
2280
2FE0
2440
27C0
0000
ENDCHAR
STARTCHAR 50DA
ENCODING 20698
SWIDTH 720 0
DWIDTH 12 0
BBX 12 10 0 -1
BITMAP
1100
1FE0
2540
6280
A7C0
2C60
27C0
2540
2B20
0000
ENDCHAR
STARTCHAR 50DE
ENCODING 20702
SWIDTH 720 0
DWIDTH 12 0
BBX 12 10 0 -1
BITMAP
10C0
1F40
27A0
6C80
A7C0
2440
27E0
2820
2AA0
0000
ENDCHAR
STARTCHAR 50E3
ENCODING 20707
SWIDTH 720 0
DWIDTH 12 0
BBX 12 10 0 -1
BITMAP
1440
1EE0
2440
6EE0
AFC0
3460
27C0
2440
27C0
0000
ENDCHAR
STARTCHAR 50E5
ENCODING 20709
SWIDTH 720 0
DWIDTH 12 0
BBX 12 10 0 -1
BITMAP
1100
1380
2540
6EE0
A440
2EE0
2FE0
2280
2CE0
0000
ENDCHAR
STARTCHAR 50E7
ENCODING 20711
SWIDTH 720 0
DWIDTH 12 0
BBX 12 10 0 -1
BITMAP
1280
1FE0
2920
6FE0
A920
2FE0
27C0
2440
27C0
0000
ENDCHAR
STARTCHAR 50ED
ENCODING 20717
SWIDTH 720 0
DWIDTH 12 0
BBX 12 10 0 -1
BITMAP
1480
1FE0
2E80
6BA0
B7E0
2440
27C0
2440
27C0
0000
ENDCHAR
STARTCHAR 50EE
ENCODING 20718
SWIDTH 720 0
DWIDTH 12 0
BBX 12 10 0 -1
BITMAP
1100
17C0
2280
6FE0
A7C0
2540
27C0
2100
2FE0
0000
ENDCHAR
STARTCHAR 50F5
ENCODING 20725
SWIDTH 720 0
DWIDTH 12 0
BBX 12 10 0 -1
BITMAP
1FE0
1540
27C0
6540
AFE0
2540
27C0
2540
2FE0
0000
ENDCHAR
STARTCHAR 50F9
ENCODING 20729
SWIDTH 720 0
DWIDTH 12 0
BBX 12 10 0 -1
BITMAP
1FE0
1280
2FE0
6AA0
AFE0
27C0
2440
27C0
2C60
0000
ENDCHAR
STARTCHAR 50FB
ENCODING 20731
SWIDTH 720 0
DWIDTH 12 0
BBX 12 10 0 -1
BITMAP
3C80
37E0
5520
DD40
D3E0
5C80
77E0
5480
5C80
0000
ENDCHAR
STARTCHAR 5100
ENCODING 20736
SWIDTH 720 0
DWIDTH 12 0
BBX 12 10 0 -1
BITMAP
1280
17C0
2100
6FE0
A680
2FE0
2360
2E40
22A0
0000
ENDCHAR
STARTCHAR 5101
ENCODING 20737
SWIDTH 720 0
DWIDTH 12 0
BBX 12 10 0 -1
BITMAP
1480
17C0
2D00
67C0
A500
2EE0
2AA0
2BA0
2860
0000
ENDCHAR
STARTCHAR 5102
ENCODING 20738
SWIDTH 720 0
DWIDTH 12 0
BBX 12 10 0 -1
BITMAP
1280
1FE0
2AA0
6FE0
A800
2FE0
2B40
2A80
3760
0000
ENDCHAR
STARTCHAR 5104
ENCODING 20740
SWIDTH 720 0
DWIDTH 12 0
BBX 12 10 0 -1
BITMAP
2100
2FC0
4480
CFC0
C840
4FC0
4280
4A20
53A0
0000
ENDCHAR
STARTCHAR 5109
ENCODING 20745
SWIDTH 720 0
DWIDTH 12 0
BBX 12 10 0 -1
BITMAP
1100
1280
27C0
6820
AEE0
2AA0
2EE0
2440
2AA0
0000
ENDCHAR
STARTCHAR 5112
ENCODING 20754
SWIDTH 720 0
DWIDTH 12 0
BBX 12 10 0 -1
BITMAP
1FE0
1100
2FE0
6920
ADA0
2200
2FE0
2AA0
2AA0
0000
ENDCHAR
STARTCHAR 5114
ENCODING 20756
SWIDTH 720 0
DWIDTH 12 0
BBX 12 10 0 -1
BITMAP
1100
17C0
2100
67C0
AFE0
2040
2FE0
2B40
2EC0
0000
ENDCHAR
STARTCHAR 5115
ENCODING 20757
SWIDTH 720 0
DWIDTH 12 0
BBX 12 10 0 -1
BITMAP
2100
2FE0
4EA0
C540
C960
47C0
4440
47C0
4840
0000
ENDCHAR
STARTCHAR 5116
ENCODING 20758
SWIDTH 720 0
DWIDTH 12 0
BBX 12 10 0 -1
BITMAP
1740
16E0
2580
6600
A760
2000
27C0
2540
2FE0
0000
ENDCHAR
STARTCHAR 5118
ENCODING 20760
SWIDTH 720 0
DWIDTH 12 0
BBX 12 10 0 -1
BITMAP
1100
17C0
2160
6FC0
A540
2AA0
27C0
2540
2FE0
0000
ENDCHAR
STARTCHAR 511A
ENCODING 20762
SWIDTH 720 0
DWIDTH 12 0
BBX 12 10 0 -1
BITMAP
1280
1FE0
27C0
6540
AFE0
2BA0
2680
2100
2600
0000
ENDCHAR
STARTCHAR 511F
ENCODING 20767
SWIDTH 720 0
DWIDTH 12 0
BBX 12 10 0 -1
BITMAP
1540
1FE0
2BA0
67C0
A440
27C0
2440
27C0
2820
0000
ENDCHAR
STARTCHAR 5121
ENCODING 20769
SWIDTH 720 0
DWIDTH 12 0
BBX 12 10 0 -1
BITMAP
17C0
1540
27C0
6540
AFE0
2AA0
2FE0
2AA0
2FE0
0000
ENDCHAR
STARTCHAR 512A
ENCODING 20778
SWIDTH 720 0
DWIDTH 12 0
BBX 12 10 0 -1
BITMAP
17C0
1100
27C0
6440
AFE0
2BA0
2680
2100
2EE0
0000
ENDCHAR
STARTCHAR 5132
ENCODING 20786
SWIDTH 720 0
DWIDTH 12 0
BBX 12 10 0 -1
BITMAP
2C80
23C0
5CA0
C3E0
DDC0
4340
5DC0
5540
5DC0
0000
ENDCHAR
STARTCHAR 5137
ENCODING 20791
SWIDTH 720 0
DWIDTH 12 0
BBX 12 10 0 -1
BITMAP
2EE0
3FE0
5760
D320
DFE0
5480
56C0
55A0
6EE0
0000
ENDCHAR
STARTCHAR 513A
ENCODING 20794
SWIDTH 720 0
DWIDTH 12 0
BBX 12 10 0 -1
BITMAP
2AA0
3F40
5FE0
D740
DFE0
4540
5FE0
4D40
53E0
0000
ENDCHAR
STARTCHAR 513B
ENCODING 20795
SWIDTH 720 0
DWIDTH 12 0
BBX 12 10 0 -1
BITMAP
1540
1FE0
2820
67C0
A540
27C0
2100
2FE0
2AA0
0000
ENDCHAR
STARTCHAR 513C
ENCODING 20796
SWIDTH 720 0
DWIDTH 12 0
BBX 12 10 0 -1
BITMAP
2EE0
2AA0
5FE0
D480
DEE0
5FA0
5A40
5E40
62A0
0000
ENDCHAR
STARTCHAR 513F
ENCODING 20799
SWIDTH 720 0
DWIDTH 12 0
BBX 12 10 0 -1
BITMAP
1100
1100
1100
1100
1100
2100
2120
4120
81E0
0000
ENDCHAR
STARTCHAR 5140
ENCODING 20800
SWIDTH 720 0
DWIDTH 12 0
BBX 12 10 0 -1
BITMAP
7FC0
1100
1100
1100
1100
2100
2120
4120
81E0
0000
ENDCHAR
STARTCHAR 5141
ENCODING 20801
SWIDTH 720 0
DWIDTH 12 0
BBX 12 10 0 -1
BITMAP
0800
1080
2080
7F40
1240
1200
1200
2220
C1E0
0000
ENDCHAR
STARTCHAR 5143
ENCODING 20803
SWIDTH 720 0
DWIDTH 12 0
BBX 12 10 0 -1
BITMAP
7FC0
0000
0000
FFE0
1200
1200
1220
2220
C1E0
0000
ENDCHAR
STARTCHAR 5144
ENCODING 20804
SWIDTH 720 0
DWIDTH 12 0
BBX 12 10 0 -1
BITMAP
7FC0
4040
4040
4040
7FC0
1200
1200
2220
C3E0
0000
ENDCHAR
STARTCHAR 5145
ENCODING 20805
SWIDTH 720 0
DWIDTH 12 0
BBX 12 10 0 -1
BITMAP
0400
FFE0
0800
1080
7F40
1240
1200
2220
C3E0
0000
ENDCHAR
STARTCHAR 5146
ENCODING 20806
SWIDTH 720 0
DWIDTH 12 0
BBX 12 10 0 -1
BITMAP
0A00
4A40
2A80
0B00
2B80
D240
1200
2220
C1E0
0000
ENDCHAR
STARTCHAR 5147
ENCODING 20807
SWIDTH 720 0
DWIDTH 12 0
BBX 12 10 0 -1
BITMAP
1900
8620
8D20
B0A0
FFE0
1200
1200
2220
C3E0
0000
ENDCHAR
STARTCHAR 5148
ENCODING 20808
SWIDTH 720 0
DWIDTH 12 0
BBX 12 10 0 -1
BITMAP
2400
3F80
4400
8400
FFE0
1200
1200
2220
C3E0
0000
ENDCHAR
STARTCHAR 5149
ENCODING 20809
SWIDTH 720 0
DWIDTH 12 0
BBX 12 10 0 -1
BITMAP
4440
2440
1480
FFE0
1200
1200
1220
2220
C1E0
0000
ENDCHAR
STARTCHAR 514B
ENCODING 20811
SWIDTH 720 0
DWIDTH 12 0
BBX 12 10 0 -1
BITMAP
0400
FFE0
0400
7FC0
4040
7FC0
1200
2220
C3E0
0000
ENDCHAR
STARTCHAR 514C
ENCODING 20812
SWIDTH 720 0
DWIDTH 12 0
BBX 12 10 0 -1
BITMAP
1100
2080
7FC0
A0A0
2080
3F80
1200
2220
C3E0
0000
ENDCHAR
STARTCHAR 514D
ENCODING 20813
SWIDTH 720 0
DWIDTH 12 0
BBX 12 10 0 -1
BITMAP
1E00
2200
FFC0
4440
4440
7FC0
1200
2220
C3E0
0000
ENDCHAR
STARTCHAR 514E
ENCODING 20814
SWIDTH 720 0
DWIDTH 12 0
BBX 12 10 0 -1
BITMAP
0380
7C00
0400
7FC0
4440
7FC0
1500
24A0
C7E0
0000
ENDCHAR
STARTCHAR 5150
ENCODING 20816
SWIDTH 720 0
DWIDTH 12 0
BBX 12 10 0 -1
BITMAP
4FC0
4840
4FC0
4840
4FC0
1200
1200
2220
C1E0
0000
ENDCHAR
STARTCHAR 5152
ENCODING 20818
SWIDTH 720 0
DWIDTH 12 0
BBX 12 10 0 -1
BITMAP
1800
63C0
4040
7BC0
4040
7FC0
1200
2220
C3E0
0000
ENDCHAR
STARTCHAR 5154
ENCODING 20820
SWIDTH 720 0
DWIDTH 12 0
BBX 12 10 0 -1
BITMAP
1E00
2200
FFC0
4440
7FC0
1300
1280
2220
C3E0
0000
ENDCHAR
STARTCHAR 515A
ENCODING 20826
SWIDTH 720 0
DWIDTH 12 0
BBX 12 10 0 -1
BITMAP
2480
FFE0
8020
3F80
2080
3F80
1200
2220
C3E0
0000
ENDCHAR
STARTCHAR 515C
ENCODING 20828
SWIDTH 720 0
DWIDTH 12 0
BBX 12 10 0 -1
BITMAP
2400
DF60
9120
9F20
9120
DF60
0A00
1220
E1E0
0000
ENDCHAR
STARTCHAR 5162
ENCODING 20834
SWIDTH 720 0
DWIDTH 12 0
BBX 12 10 0 -1
BITMAP
2080
FBE0
2080
FBE0
8A20
FBE0
5140
5A60
9460
0000
ENDCHAR
STARTCHAR 5165
ENCODING 20837
SWIDTH 720 0
DWIDTH 12 0
BBX 12 10 0 -1
BITMAP
1C00
0400
0400
0400
0A00
0A00
1100
2080
C060
0000
ENDCHAR
STARTCHAR 5168
ENCODING 20840
SWIDTH 720 0
DWIDTH 12 0
BBX 12 10 0 -1
BITMAP
0400
0A00
3180
DF60
0400
1F00
0400
0400
7FC0
0000
ENDCHAR
STARTCHAR 5169
ENCODING 20841
SWIDTH 720 0
DWIDTH 12 0
BBX 12 10 0 -1
BITMAP
FFE0
0400
FFE0
8420
B5A0
94A0
EF60
8420
8460
0000
ENDCHAR
STARTCHAR 516A
ENCODING 20842
SWIDTH 720 0
DWIDTH 12 0
BBX 12 10 0 -1
BITMAP
3C00
0A00
3F80
C160
7940
6A80
5A80
4940
5940
0000
ENDCHAR
STARTCHAR 516B
ENCODING 20843
SWIDTH 720 0
DWIDTH 12 0
BBX 12 10 0 -1
BITMAP
0000
1100
1100
1100
1080
2080
2040
4040
8020
0000
ENDCHAR
STARTCHAR 516C
ENCODING 20844
SWIDTH 720 0
DWIDTH 12 0
BBX 12 10 0 -1
BITMAP
1000
1100
2080
4440
8420
0800
0880
1180
7E40
0000
ENDCHAR
STARTCHAR 516D
ENCODING 20845
SWIDTH 720 0
DWIDTH 12 0
BBX 12 10 0 -1
BITMAP
0400
0400
FFE0
0000
1100
1080
2080
4040
8040
0000
ENDCHAR
STARTCHAR 516E
ENCODING 20846
SWIDTH 720 0
DWIDTH 12 0
BBX 12 10 0 -1
BITMAP
1700
1100
2080
5F40
8820
1F80
1080
0080
0300
0000
ENDCHAR
STARTCHAR 5171
ENCODING 20849
SWIDTH 720 0
DWIDTH 12 0
BBX 12 10 0 -1
BITMAP
1100
1100
7FC0
1100
1100
FFE0
1100
2080
4040
0000
ENDCHAR
STARTCHAR 5175
ENCODING 20853
SWIDTH 720 0
DWIDTH 12 0
BBX 12 10 0 -1
BITMAP
0F00
3000
3FC0
2100
2100
FFE0
0000
2080
C060
0000
ENDCHAR
STARTCHAR 5176
ENCODING 20854
SWIDTH 720 0
DWIDTH 12 0
BBX 12 10 0 -1
BITMAP
1100
7FC0
1100
1F00
1100
FFE0
0000
1100
60C0
0000
ENDCHAR
STARTCHAR 5177
ENCODING 20855
SWIDTH 720 0
DWIDTH 12 0
BBX 12 10 0 -1
BITMAP
3F80
2080
3F80
2080
3F80
2080
FFE0
1100
60C0
0000
ENDCHAR
STARTCHAR 5178
ENCODING 20856
SWIDTH 720 0
DWIDTH 12 0
BBX 12 10 0 -1
BITMAP
0A00
7FC0
4A40
7FC0
4A40
4A40
FFE0
1100
60C0
0000
ENDCHAR
STARTCHAR 517C
ENCODING 20860
SWIDTH 720 0
DWIDTH 12 0
BBX 12 10 0 -1
BITMAP
1100
FFE0
0A00
7F80
0AE0
7F80
1B00
2A80
CA60
0000
ENDCHAR
STARTCHAR 5180
ENCODING 20864
SWIDTH 720 0
DWIDTH 12 0
BBX 12 10 0 -1
BITMAP
0A40
7B80
3FA0
E4E0
3F80
1100
FFE0
1100
60C0
0000
ENDCHAR
STARTCHAR 5182
ENCODING 20866
SWIDTH 720 0
DWIDTH 12 0
BBX 12 10 0 -1
BITMAP
7FC0
4040
4040
4040
4040
4040
4040
4040
41C0
0000
ENDCHAR
STARTCHAR 5185
ENCODING 20869
SWIDTH 720 0
DWIDTH 12 0
BBX 12 10 0 -1
BITMAP
0400
FFE0
8420
8420
8A20
9120
A0A0
8020
80E0
0000
ENDCHAR
STARTCHAR 5186
ENCODING 20870
SWIDTH 720 0
DWIDTH 12 0
BBX 12 10 0 -1
BITMAP
7FC0
4440
4440
4440
7FC0
4040
4040
4040
40C0
0000
ENDCHAR
STARTCHAR 5189
ENCODING 20873
SWIDTH 720 0
DWIDTH 12 0
BBX 12 10 0 -1
BITMAP
0400
7FC0
4440
7FC0
4440
FFE0
4040
4040
41C0
0000
ENDCHAR
STARTCHAR 518A
ENCODING 20874
SWIDTH 720 0
DWIDTH 12 0
BBX 12 10 0 -1
BITMAP
7FC0
4A40
4A40
4A40
FFE0
4A40
4A40
4A40
4AC0
0000
ENDCHAR
STARTCHAR 518C
ENCODING 20876
SWIDTH 720 0
DWIDTH 12 0
BBX 12 10 0 -1
BITMAP
7BC0
4A40
4A40
4A40
FFE0
4A40
4A40
8A40
9CC0
0000
ENDCHAR
STARTCHAR 518D
ENCODING 20877
SWIDTH 720 0
DWIDTH 12 0
BBX 12 10 0 -1
BITMAP
FFE0
0400
3F80
2480
3F80
2480
FFE0
2080
2180
0000
ENDCHAR
STARTCHAR 518F
ENCODING 20879
SWIDTH 720 0
DWIDTH 12 0
BBX 12 10 0 -1
BITMAP
FFE0
8A20
9260
E1E0
9F20
9120
9F20
8020
80E0
0000
ENDCHAR
STARTCHAR 5190
ENCODING 20880
SWIDTH 720 0
DWIDTH 12 0
BBX 12 10 0 -1
BITMAP
7FC0
4040
7F40
4040
7F40
2080
3F80
2080
2180
0000
ENDCHAR
STARTCHAR 5191
ENCODING 20881
SWIDTH 720 0
DWIDTH 12 0
BBX 12 10 0 -1
BITMAP
0400
7FC0
4440
7FC0
4440
7FC0
2080
3E80
2180
0000
ENDCHAR
STARTCHAR 5192
ENCODING 20882
SWIDTH 720 0
DWIDTH 12 0
BBX 12 10 0 -1
BITMAP
7FC0
4040
7FC0
4040
7FC0
2080
3F80
2080
3F80
0000
ENDCHAR
STARTCHAR 5193
ENCODING 20883
SWIDTH 720 0
DWIDTH 12 0
BBX 12 10 0 -1
BITMAP
1100
7FC0
1100
FFE0
0400
3F80
FFE0
2080
2380
0000
ENDCHAR
STARTCHAR 5195
ENCODING 20885
SWIDTH 720 0
DWIDTH 12 0
BBX 12 10 0 -1
BITMAP
7FC0
4040
7F40
1200
FF80
2480
3F80
0A00
73E0
0000
ENDCHAR
STARTCHAR 5196
ENCODING 20886
SWIDTH 720 0
DWIDTH 12 0
BBX 12 10 0 -1
BITMAP
0000
0000
0000
FFE0
8020
8020
0000
0000
0000
0000
ENDCHAR
STARTCHAR 5197
ENCODING 20887
SWIDTH 720 0
DWIDTH 12 0
BBX 12 10 0 -1
BITMAP
FFE0
8020
9F20
1100
1100
1100
2100
2120
41E0
0000
ENDCHAR
STARTCHAR 5199
ENCODING 20889
SWIDTH 720 0
DWIDTH 12 0
BBX 12 10 0 -1
BITMAP
FFE0
A020
3F80
2000
7F80
0080
FFE0
0100
0600
0000
ENDCHAR
STARTCHAR 51A0
ENCODING 20896
SWIDTH 720 0
DWIDTH 12 0
BBX 12 10 0 -1
BITMAP
FFE0
8020
7840
03E0
F840
5340
5040
50C0
8FE0
0000
ENDCHAR
STARTCHAR 51A2
ENCODING 20898
SWIDTH 720 0
DWIDTH 12 0
BBX 12 10 0 -1
BITMAP
FFE0
8020
7F80
1C40
7680
1B00
6E80
1240
6C20
0000
ENDCHAR
STARTCHAR 51A4
ENCODING 20900
SWIDTH 720 0
DWIDTH 12 0
BBX 12 10 0 -1
BITMAP
FFE0
9E20
2200
FF80
2480
3F80
1520
24A0
C3E0
0000
ENDCHAR
STARTCHAR 51A5
ENCODING 20901
SWIDTH 720 0
DWIDTH 12 0
BBX 12 10 0 -1
BITMAP
FFE0
8020
3F80
2080
3F80
0400
FFE0
1100
60C0
0000
ENDCHAR
STARTCHAR 51A6
ENCODING 20902
SWIDTH 720 0
DWIDTH 12 0
BBX 12 10 0 -1
BITMAP
FFE0
8120
71C0
0100
FFC0
5280
5100
56C0
9FE0
0000
ENDCHAR
STARTCHAR 51A8
ENCODING 20904
SWIDTH 720 0
DWIDTH 12 0
BBX 12 10 0 -1
BITMAP
FFE0
BFA0
2080
3F80
7FC0
4440
7FC0
4440
7FC0
0000
ENDCHAR
STARTCHAR 51A9
ENCODING 20905
SWIDTH 720 0
DWIDTH 12 0
BBX 12 10 0 -1
BITMAP
FFE0
8820
3380
2080
3F80
1000
3FE0
C020
1560
0000
ENDCHAR
STARTCHAR 51AA
ENCODING 20906
SWIDTH 720 0
DWIDTH 12 0
BBX 12 10 0 -1
BITMAP
FFE0
9120
7FC0
3F80
2080
FFE0
3F80
E4E0
2580
0000
ENDCHAR
STARTCHAR 51AB
ENCODING 20907
SWIDTH 720 0
DWIDTH 12 0
BBX 12 10 0 -1
BITMAP
1000
0800
0800
0000
0000
0200
0400
0800
1000
0000
ENDCHAR
STARTCHAR 51AC
ENCODING 20908
SWIDTH 720 0
DWIDTH 12 0
BBX 12 10 0 -1
BITMAP
0800
1F80
7100
0E00
3180
C460
0200
0C00
0300
0000
ENDCHAR
STARTCHAR 51B0
ENCODING 20912
SWIDTH 720 0
DWIDTH 12 0
BBX 12 10 0 -1
BITMAP
0100
C100
2F20
03C0
0380
2540
2920
4100
8300
0000
ENDCHAR
STARTCHAR 51B1
ENCODING 20913
SWIDTH 720 0
DWIDTH 12 0
BBX 12 10 0 -1
BITMAP
0FC0
C200
23C0
0440
0440
2780
2080
4080
9FE0
0000
ENDCHAR
STARTCHAR 51B2
ENCODING 20914
SWIDTH 720 0
DWIDTH 12 0
BBX 12 10 0 -1
BITMAP
0100
C100
2FE0
0920
0920
2FE0
2100
4100
8100
0000
ENDCHAR
STARTCHAR 51B3
ENCODING 20915
SWIDTH 720 0
DWIDTH 12 0
BBX 12 10 0 -1
BITMAP
0200
CFC0
2240
0240
1FE0
2200
2300
4480
9860
0000
ENDCHAR
STARTCHAR 51B4
ENCODING 20916
SWIDTH 720 0
DWIDTH 12 0
BBX 12 10 0 -1
BITMAP
CFC0
2480
0480
1FE0
2180
2280
4480
9880
0180
0000
ENDCHAR
STARTCHAR 51B5
ENCODING 20917
SWIDTH 720 0
DWIDTH 12 0
BBX 12 10 0 -1
BITMAP
0FC0
C840
2840
0FC0
0500
2500
2500
4920
91E0
0000
ENDCHAR
STARTCHAR 51B6
ENCODING 20918
SWIDTH 720 0
DWIDTH 12 0
BBX 12 10 0 -1
BITMAP
0100
C200
2460
0FA0
0000
2FE0
2820
4820
8FE0
0000
ENDCHAR
STARTCHAR 51B7
ENCODING 20919
SWIDTH 720 0
DWIDTH 12 0
BBX 12 10 0 -1
BITMAP
0300
C480
2840
17A0
0000
2FC0
2240
42C0
8200
0000
ENDCHAR
STARTCHAR 51BD
ENCODING 20925
SWIDTH 720 0
DWIDTH 12 0
BBX 12 10 0 -1
BITMAP
1E20
C8A0
2EA0
0AA0
1AA0
24A0
24A0
4820
9060
0000
ENDCHAR
STARTCHAR 51C4
ENCODING 20932
SWIDTH 720 0
DWIDTH 12 0
BBX 12 10 0 -1
BITMAP
8200
5FE0
2280
0FC0
2280
3FE0
4480
4700
9CC0
0000
ENDCHAR
STARTCHAR 51C5
ENCODING 20933
SWIDTH 720 0
DWIDTH 12 0
BBX 12 10 0 -1
BITMAP
0FE0
C920
2BA0
0920
0BA0
2AA0
2BA0
4820
8FE0
0000
ENDCHAR
STARTCHAR 51C6
ENCODING 20934
SWIDTH 720 0
DWIDTH 12 0
BBX 12 10 0 -1
BITMAP
0400
C480
2FE0
1900
0FC0
2900
2FC0
4900
8FE0
0000
ENDCHAR
STARTCHAR 51C9
ENCODING 20937
SWIDTH 720 0
DWIDTH 12 0
BBX 12 10 0 -1
BITMAP
0100
CFE0
2000
07C0
0440
27C0
2100
4540
8B20
0000
ENDCHAR
STARTCHAR 51CB
ENCODING 20939
SWIDTH 720 0
DWIDTH 12 0
BBX 12 10 0 -1
BITMAP
CFE0
2920
0FA0
0920
2FE0
2CA0
54A0
97A0
2060
0000
ENDCHAR
STARTCHAR 51CC
ENCODING 20940
SWIDTH 720 0
DWIDTH 12 0
BBX 12 10 0 -1
BITMAP
0100
C7C0
2100
0FE0
0280
27E0
2A80
4180
8E60
0000
ENDCHAR
STARTCHAR 51CD
ENCODING 20941
SWIDTH 720 0
DWIDTH 12 0
BBX 12 10 0 -1
BITMAP
0100
CFE0
2540
07C0
0540
27C0
2380
4540
9920
0000
ENDCHAR
STARTCHAR 51D6
ENCODING 20950
SWIDTH 720 0
DWIDTH 12 0
BBX 12 10 0 -1
BITMAP
C480
2FE0
1900
2FC0
4900
8FE0
0400
FFE0
0400
0000
ENDCHAR
STARTCHAR 51DB
ENCODING 20955
SWIDTH 720 0
DWIDTH 12 0
BBX 12 10 0 -1
BITMAP
0100
CFE0
2740
0540
07C0
2000
2FE0
4540
8B20
0000
ENDCHAR
STARTCHAR 51DC
ENCODING 20956
SWIDTH 720 0
DWIDTH 12 0
BBX 12 10 0 -1
BITMAP
0100
CFE0
2740
0540
07C0
2380
2FE0
4540
8920
0000
ENDCHAR
STARTCHAR 51DD
ENCODING 20957
SWIDTH 720 0
DWIDTH 12 0
BBX 12 10 0 -1
BITMAP
11E0
DE20
30C0
0E40
11E0
5E40
5560
8DC0
9360
0000
ENDCHAR
STARTCHAR 51E0
ENCODING 20960
SWIDTH 720 0
DWIDTH 12 0
BBX 12 10 0 -1
BITMAP
1F00
1100
1100
1100
1100
2100
2120
4120
80E0
0000
ENDCHAR
STARTCHAR 51E1
ENCODING 20961
SWIDTH 720 0
DWIDTH 12 0
BBX 12 10 0 -1
BITMAP
3F00
2100
2100
2900
2500
2500
4120
4120
80E0
0000
ENDCHAR
STARTCHAR 51E6
ENCODING 20966
SWIDTH 720 0
DWIDTH 12 0
BBX 12 10 0 -1
BITMAP
4000
7B80
4A80
4A80
4A80
B2A0
14E0
2800
C7E0
0000
ENDCHAR
STARTCHAR 51E7
ENCODING 20967
SWIDTH 720 0
DWIDTH 12 0
BBX 12 10 0 -1
BITMAP
7FC0
4040
4440
5F40
5540
5540
5540
9760
8420
0000
ENDCHAR
STARTCHAR 51E9
ENCODING 20969
SWIDTH 720 0
DWIDTH 12 0
BBX 12 10 0 -1
BITMAP
7FC0
4440
4440
5F40
4440
4E40
5540
A4E0
8420
0000
ENDCHAR
STARTCHAR 51EA
ENCODING 20970
SWIDTH 720 0
DWIDTH 12 0
BBX 12 10 0 -1
BITMAP
7FC0
4040
4440
4440
5740
5440
5440
9460
BFA0
0000
ENDCHAR
STARTCHAR 51ED
ENCODING 20973
SWIDTH 720 0
DWIDTH 12 0
BBX 12 10 0 -1
BITMAP
10C0
2700
6FE0
A100
27C0
1F00
1100
2120
C0E0
0000
ENDCHAR
STARTCHAR 51F0
ENCODING 20976
SWIDTH 720 0
DWIDTH 12 0
BBX 12 10 0 -1
BITMAP
7FC0
4840
5F40
5140
5F40
4440
5F40
8460
BFA0
0000
ENDCHAR
STARTCHAR 51F1
ENCODING 20977
SWIDTH 720 0
DWIDTH 12 0
BBX 12 10 0 -1
BITMAP
ABC0
FA40
0240
FA40
8A40
FA40
5240
5A60
E460
0000
ENDCHAR
STARTCHAR 51F5
ENCODING 20981
SWIDTH 720 0
DWIDTH 12 0
BBX 12 10 0 -1
BITMAP
0000
4040
4040
4040
4040
4040
4040
4040
7FC0
0000
ENDCHAR
STARTCHAR 51F6
ENCODING 20982
SWIDTH 720 0
DWIDTH 12 0
BBX 12 10 0 -1
BITMAP
0000
8120
B120
8A20
8420
8A20
B120
8020
FFE0
0000
ENDCHAR
STARTCHAR 51F8
ENCODING 20984
SWIDTH 720 0
DWIDTH 12 0
BBX 12 10 0 -1
BITMAP
1F00
1100
1100
1100
F1E0
8020
8020
8020
FFE0
0000
ENDCHAR
STARTCHAR 51F9
ENCODING 20985
SWIDTH 720 0
DWIDTH 12 0
BBX 12 10 0 -1
BITMAP
F1E0
9120
9120
9120
9F20
8020
8020
8020
FFE0
0000
ENDCHAR
STARTCHAR 51FA
ENCODING 20986
SWIDTH 720 0
DWIDTH 12 0
BBX 12 10 0 -1
BITMAP
4440
4440
4440
7FC0
0400
8420
8420
8420
FFE0
0000
ENDCHAR
STARTCHAR 51FD
ENCODING 20989
SWIDTH 720 0
DWIDTH 12 0
BBX 12 10 0 -1
BITMAP
FFE0
1000
1E00
A2A0
9320
8AA0
B260
8C20
FFE0
0000
ENDCHAR
STARTCHAR 51FE
ENCODING 20990
SWIDTH 720 0
DWIDTH 12 0
BBX 12 10 0 -1
BITMAP
7F80
0100
8620
F5E0
D560
D4A0
F560
8C20
FFE0
0000
ENDCHAR
STARTCHAR 5200
ENCODING 20992
SWIDTH 720 0
DWIDTH 12 0
BBX 12 10 0 -1
BITMAP
FFC0
1040
1040
1040
1040
2040
2040
4040
8380
0000
ENDCHAR
STARTCHAR 5203
ENCODING 20995
SWIDTH 720 0
DWIDTH 12 0
BBX 12 10 0 -1
BITMAP
7FE0
0420
0420
3420
0820
0C20
1220
2020
C0C0
0000
ENDCHAR
STARTCHAR 5204
ENCODING 20996
SWIDTH 720 0
DWIDTH 12 0
BBX 12 10 0 -1
BITMAP
FFC0
0840
4840
2840
1840
1640
21C0
4060
8180
0000
ENDCHAR
STARTCHAR 5206
ENCODING 20998
SWIDTH 720 0
DWIDTH 12 0
BBX 12 10 0 -1
BITMAP
1100
1100
2080
4040
BFA0
0880
0880
1080
2300
0000
ENDCHAR
STARTCHAR 5207
ENCODING 20999
SWIDTH 720 0
DWIDTH 12 0
BBX 12 10 0 -1
BITMAP
4000
47E0
5920
E120
4120
4A20
3A20
0420
08E0
0000
ENDCHAR
STARTCHAR 5208
ENCODING 21000
SWIDTH 720 0
DWIDTH 12 0
BBX 12 10 0 -1
BITMAP
0820
0920
C920
3120
1120
2920
2420
4020
80E0
0000
ENDCHAR
STARTCHAR 520A
ENCODING 21002
SWIDTH 720 0
DWIDTH 12 0
BBX 12 10 0 -1
BITMAP
7C20
1120
1120
FD20
1120
1120
1020
1020
1060
0000
ENDCHAR
STARTCHAR 520B
ENCODING 21003
SWIDTH 720 0
DWIDTH 12 0
BBX 12 10 0 -1
BITMAP
0C20
7120
1120
FF20
1120
1120
2020
2020
4060
0000
ENDCHAR
STARTCHAR 520E
ENCODING 21006
SWIDTH 720 0
DWIDTH 12 0
BBX 12 10 0 -1
BITMAP
4020
7EA0
AAA0
2AA0
4AA0
92A0
2220
C420
1860
0000
ENDCHAR
STARTCHAR 5211
ENCODING 21009
SWIDTH 720 0
DWIDTH 12 0
BBX 12 10 0 -1
BITMAP
FC20
4920
4920
FF20
4920
4920
4920
8820
8860
0000
ENDCHAR
STARTCHAR 5214
ENCODING 21012
SWIDTH 720 0
DWIDTH 12 0
BBX 12 10 0 -1
BITMAP
2020
F920
2920
2920
FD20
2120
5020
4820
8060
0000
ENDCHAR
STARTCHAR 5217
ENCODING 21015
SWIDTH 720 0
DWIDTH 12 0
BBX 12 10 0 -1
BITMAP
FC20
2020
3D20
2520
6520
9920
0820
1020
20E0
0000
ENDCHAR
STARTCHAR 521D
ENCODING 21021
SWIDTH 720 0
DWIDTH 12 0
BBX 12 10 0 -1
BITMAP
2000
F7E0
1120
2920
7120
AA20
A220
2420
28C0
0000
ENDCHAR
STARTCHAR 5224
ENCODING 21028
SWIDTH 720 0
DWIDTH 12 0
BBX 12 10 0 -1
BITMAP
1020
9520
5920
FD20
1120
FD20
1020
1020
1060
0000
ENDCHAR
STARTCHAR 5225
ENCODING 21029
SWIDTH 720 0
DWIDTH 12 0
BBX 12 10 0 -1
BITMAP
F820
8920
8920
F920
4120
7920
4820
8820
B0E0
0000
ENDCHAR
STARTCHAR 5227
ENCODING 21031
SWIDTH 720 0
DWIDTH 12 0
BBX 12 10 0 -1
BITMAP
27E0
F120
2120
2120
F920
2120
4220
9A20
ECC0
0000
ENDCHAR
STARTCHAR 5229
ENCODING 21033
SWIDTH 720 0
DWIDTH 12 0
BBX 12 10 0 -1
BITMAP
1820
E220
2220
FA20
2220
7220
A820
A020
20E0
0000
ENDCHAR
STARTCHAR 522A
ENCODING 21034
SWIDTH 720 0
DWIDTH 12 0
BBX 12 10 0 -1
BITMAP
7C20
5520
5520
5520
FF20
5520
5520
5420
5460
0000
ENDCHAR
STARTCHAR 522E
ENCODING 21038
SWIDTH 720 0
DWIDTH 12 0
BBX 12 10 0 -1
BITMAP
0C20
7120
1120
FF20
1120
7D20
4420
4420
7C60
0000
ENDCHAR
STARTCHAR 5230
ENCODING 21040
SWIDTH 720 0
DWIDTH 12 0
BBX 12 10 0 -1
BITMAP
FC20
2120
4D20
F520
1120
FD20
1020
1C20
E0E0
0000
ENDCHAR
STARTCHAR 5233
ENCODING 21043
SWIDTH 720 0
DWIDTH 12 0
BBX 12 10 0 -1
BITMAP
2020
FD20
4920
8520
F920
4120
FC20
0420
1860
0000
ENDCHAR
STARTCHAR 5236
ENCODING 21046
SWIDTH 720 0
DWIDTH 12 0
BBX 12 10 0 -1
BITMAP
5020
7D20
9120
FD20
1120
FD20
9420
9420
1060
0000
ENDCHAR
STARTCHAR 5237
ENCODING 21047
SWIDTH 720 0
DWIDTH 12 0
BBX 12 10 0 -1
BITMAP
FC20
8520
FD20
9120
FD20
D520
D520
DC20
9060
0000
ENDCHAR
STARTCHAR 5238
ENCODING 21048
SWIDTH 720 0
DWIDTH 12 0
BBX 12 10 0 -1
BITMAP
2880
7FC0
1200
FFE0
2080
DF60
0900
1100
6300
0000
ENDCHAR
STARTCHAR 5239
ENCODING 21049
SWIDTH 720 0
DWIDTH 12 0
BBX 12 10 0 -1
BITMAP
6420
1920
E520
1120
FD20
3120
5820
9420
1060
0000
ENDCHAR
STARTCHAR 523A
ENCODING 21050
SWIDTH 720 0
DWIDTH 12 0
BBX 12 10 0 -1
BITMAP
1020
FC20
1120
FD20
9520
9520
3920
5420
9060
0000
ENDCHAR
STARTCHAR 523B
ENCODING 21051
SWIDTH 720 0
DWIDTH 12 0
BBX 12 10 0 -1
BITMAP
1020
FD20
2120
6920
1120
6520
0920
3420
C2E0
0000
ENDCHAR
STARTCHAR 5243
ENCODING 21059
SWIDTH 720 0
DWIDTH 12 0
BBX 12 10 0 -1
BITMAP
2820
7D20
1520
FD20
9120
FD20
3520
5420
9860
0000
ENDCHAR
STARTCHAR 5244
ENCODING 21060
SWIDTH 720 0
DWIDTH 12 0
BBX 12 10 0 -1
BITMAP
FE20
5520
A920
A920
5520
FD20
1020
1C20
E060
0000
ENDCHAR
STARTCHAR 5247
ENCODING 21063
SWIDTH 720 0
DWIDTH 12 0
BBX 12 10 0 -1
BITMAP
7C20
4520
7D20
4520
7D20
4520
7D20
2820
C460
0000
ENDCHAR
STARTCHAR 524A
ENCODING 21066
SWIDTH 720 0
DWIDTH 12 0
BBX 12 10 0 -1
BITMAP
1020
9320
5520
7D20
4520
7D20
4520
7C20
4C60
0000
ENDCHAR
STARTCHAR 524B
ENCODING 21067
SWIDTH 720 0
DWIDTH 12 0
BBX 12 10 0 -1
BITMAP
2040
FA40
2240
FA40
8A40
F840
50C0
5020
9FE0
0000
ENDCHAR
STARTCHAR 524C
ENCODING 21068
SWIDTH 720 0
DWIDTH 12 0
BBX 12 10 0 -1
BITMAP
1020
FD20
1120
FD20
9520
FD20
3820
5420
9060
0000
ENDCHAR
STARTCHAR 524D
ENCODING 21069
SWIDTH 720 0
DWIDTH 12 0
BBX 12 10 0 -1
BITMAP
1100
FFE0
0000
7A40
4A40
7A40
4A40
7840
58C0
0000
ENDCHAR
STARTCHAR 524F
ENCODING 21071
SWIDTH 720 0
DWIDTH 12 0
BBX 12 10 0 -1
BITMAP
8BE0
5120
F920
5320
51A0
F960
5220
9220
94C0
0000
ENDCHAR
STARTCHAR 5254
ENCODING 21076
SWIDTH 720 0
DWIDTH 12 0
BBX 12 10 0 -1
BITMAP
7C20
44A0
7CA0
44A0
7CA0
7EA0
AA20
5220
2C60
0000
ENDCHAR
STARTCHAR 5256
ENCODING 21078
SWIDTH 720 0
DWIDTH 12 0
BBX 12 10 0 -1
BITMAP
2020
FD20
4920
FD20
0120
7920
4820
4820
78E0
0000
ENDCHAR
STARTCHAR 525B
ENCODING 21083
SWIDTH 720 0
DWIDTH 12 0
BBX 12 10 0 -1
BITMAP
FE20
C6A0
AAA0
FEA0
92A0
D6A0
D6A0
FE20
8660
0000
ENDCHAR
STARTCHAR 525E
ENCODING 21086
SWIDTH 720 0
DWIDTH 12 0
BBX 12 10 0 -1
BITMAP
1020
7D20
2920
4520
FF20
7520
5420
7420
0C60
0000
ENDCHAR
STARTCHAR 5263
ENCODING 21091
SWIDTH 720 0
DWIDTH 12 0
BBX 12 10 0 -1
BITMAP
1820
2520
7920
9120
7D20
5520
7D20
2820
C4E0
0000
ENDCHAR
STARTCHAR 5264
ENCODING 21092
SWIDTH 720 0
DWIDTH 12 0
BBX 12 10 0 -1
BITMAP
1020
FD20
4920
3120
CF20
7920
4920
7820
8860
0000
ENDCHAR
STARTCHAR 5265
ENCODING 21093
SWIDTH 720 0
DWIDTH 12 0
BBX 12 10 0 -1
BITMAP
7820
0920
7920
0920
FF20
5520
3920
5620
B060
0000
ENDCHAR
STARTCHAR 5269
ENCODING 21097
SWIDTH 720 0
DWIDTH 12 0
BBX 12 10 0 -1
BITMAP
0C20
70A0
7CA0
D6A0
54A0
D6A0
3820
5420
9260
0000
ENDCHAR
STARTCHAR 526A
ENCODING 21098
SWIDTH 720 0
DWIDTH 12 0
BBX 12 10 0 -1
BITMAP
1100
FFE0
7A40
4A40
7A40
58C0
FFE0
0820
70C0
0000
ENDCHAR
STARTCHAR 526F
ENCODING 21103
SWIDTH 720 0
DWIDTH 12 0
BBX 12 10 0 -1
BITMAP
FC20
7920
4920
7920
FD20
A520
FD20
A420
FC60
0000
ENDCHAR
STARTCHAR 5270
ENCODING 21104
SWIDTH 720 0
DWIDTH 12 0
BBX 12 10 0 -1
BITMAP
0C20
7120
1120
FF20
5520
FF20
3920
5420
9260
0000
ENDCHAR
STARTCHAR 5271
ENCODING 21105
SWIDTH 720 0
DWIDTH 12 0
BBX 12 10 0 -1
BITMAP
23E0
5120
F920
2320
F9A0
A960
FA20
5220
8CC0
0000
ENDCHAR
STARTCHAR 5272
ENCODING 21106
SWIDTH 720 0
DWIDTH 12 0
BBX 12 10 0 -1
BITMAP
1020
FEA0
92A0
7CA0
10A0
FEA0
7C20
4420
7CE0
0000
ENDCHAR
STARTCHAR 5273
ENCODING 21107
SWIDTH 720 0
DWIDTH 12 0
BBX 12 10 0 -1
BITMAP
4820
FD20
1120
2920
7D20
8120
7C20
4420
7C60
0000
ENDCHAR
STARTCHAR 5274
ENCODING 21108
SWIDTH 720 0
DWIDTH 12 0
BBX 12 10 0 -1
BITMAP
5420
7D20
0120
FF20
4520
7D20
2820
1E20
E060
0000
ENDCHAR
STARTCHAR 5275
ENCODING 21109
SWIDTH 720 0
DWIDTH 12 0
BBX 12 10 0 -1
BITMAP
3020
4920
FD20
4920
7920
4120
7C20
C420
7CE0
0000
ENDCHAR
STARTCHAR 527D
ENCODING 21117
SWIDTH 720 0
DWIDTH 12 0
BBX 12 10 0 -1
BITMAP
FE20
28A0
FEA0
AAA0
FEA0
00A0
FE20
5420
B260
0000
ENDCHAR
STARTCHAR 527F
ENCODING 21119
SWIDTH 720 0
DWIDTH 12 0
BBX 12 10 0 -1
BITMAP
5420
A920
5520
7D20
5520
FF20
3920
5420
9260
0000
ENDCHAR
STARTCHAR 5283
ENCODING 21123
SWIDTH 720 0
DWIDTH 12 0
BBX 12 10 0 -1
BITMAP
F920
2D20
F920
2120
FD20
A920
F920
1C20
E060
0000
ENDCHAR
STARTCHAR 5287
ENCODING 21127
SWIDTH 720 0
DWIDTH 12 0
BBX 12 10 0 -1
BITMAP
1820
FEA0
FAA0
A0A0
9EA0
B8A0
DAA0
AC20
DA60
0000
ENDCHAR
STARTCHAR 5288
ENCODING 21128
SWIDTH 720 0
DWIDTH 12 0
BBX 12 10 0 -1
BITMAP
7880
4BE0
7D40
67E0
BC80
0080
7FE0
0820
70C0
0000
ENDCHAR
STARTCHAR 5289
ENCODING 21129
SWIDTH 720 0
DWIDTH 12 0
BBX 12 10 0 -1
BITMAP
5E20
8AA0
AAA0
F6A0
38A0
D6A0
7C20
3620
F860
0000
ENDCHAR
STARTCHAR 528D
ENCODING 21133
SWIDTH 720 0
DWIDTH 12 0
BBX 12 10 0 -1
BITMAP
3020
4920
B520
FD20
B520
FD20
4920
4820
B460
0000
ENDCHAR
STARTCHAR 5291
ENCODING 21137
SWIDTH 720 0
DWIDTH 12 0
BBX 12 10 0 -1
BITMAP
1020
FEA0
AAA0
54A0
D6A0
7CA0
4420
7C20
8460
0000
ENDCHAR
STARTCHAR 5292
ENCODING 21138
SWIDTH 720 0
DWIDTH 12 0
BBX 12 10 0 -1
BITMAP
33E0
48A0
B2A0
FAA0
ACA0
F920
5120
5220
AAC0
0000
ENDCHAR
STARTCHAR 5294
ENCODING 21140
SWIDTH 720 0
DWIDTH 12 0
BBX 12 10 0 -1
BITMAP
33E0
4920
B120
FB20
A9A0
F960
5220
5220
ACC0
0000
ENDCHAR
STARTCHAR 529B
ENCODING 21147
SWIDTH 720 0
DWIDTH 12 0
BBX 12 10 0 -1
BITMAP
0800
0800
FFE0
0820
0820
1020
1020
2020
41C0
0000
ENDCHAR
STARTCHAR 529F
ENCODING 21151
SWIDTH 720 0
DWIDTH 12 0
BBX 12 10 0 -1
BITMAP
0100
F100
2FE0
2120
2120
2220
3220
C420
08C0
0000
ENDCHAR
STARTCHAR 52A0
ENCODING 21152
SWIDTH 720 0
DWIDTH 12 0
BBX 12 10 0 -1
BITMAP
2000
FDE0
2520
2520
2520
2520
4520
4520
99E0
0000
ENDCHAR
STARTCHAR 52A3
ENCODING 21155
SWIDTH 720 0
DWIDTH 12 0
BBX 12 10 0 -1
BITMAP
4440
4520
8A20
1C00
E400
3FC0
0840
1040
6180
0000
ENDCHAR
STARTCHAR 52A9
ENCODING 21161
SWIDTH 720 0
DWIDTH 12 0
BBX 12 10 0 -1
BITMAP
0100
7900
4FE0
7920
4920
7920
4E20
F220
04C0
0000
ENDCHAR
STARTCHAR 52AA
ENCODING 21162
SWIDTH 720 0
DWIDTH 12 0
BBX 12 10 0 -1
BITMAP
43C0
FE40
4A80
7180
CA60
0400
7FC0
1040
61C0
0000
ENDCHAR
STARTCHAR 52AB
ENCODING 21163
SWIDTH 720 0
DWIDTH 12 0
BBX 12 10 0 -1
BITMAP
2100
F100
27E0
2120
F920
2120
4220
9A20
ECC0
0000
ENDCHAR
STARTCHAR 52AC
ENCODING 21164
SWIDTH 720 0
DWIDTH 12 0
BBX 12 10 0 -1
BITMAP
4100
7900
8BE0
E920
A920
A920
EA20
0A20
34C0
0000
ENDCHAR
STARTCHAR 52AD
ENCODING 21165
SWIDTH 720 0
DWIDTH 12 0
BBX 12 10 0 -1
BITMAP
F900
4900
4BE0
9920
0120
F920
8A20
8A20
FCC0
0000
ENDCHAR
STARTCHAR 52B1
ENCODING 21169
SWIDTH 720 0
DWIDTH 12 0
BBX 12 10 0 -1
BITMAP
F900
8100
FBE0
A120
B920
A920
AA20
AA20
DCC0
0000
ENDCHAR
STARTCHAR 52B4
ENCODING 21172
SWIDTH 720 0
DWIDTH 12 0
BBX 12 10 0 -1
BITMAP
4840
2480
FFE0
8420
3F80
0880
0880
1080
6380
0000
ENDCHAR
STARTCHAR 52B5
ENCODING 21173
SWIDTH 720 0
DWIDTH 12 0
BBX 12 10 0 -1
BITMAP
2880
5F40
1200
FFE0
2480
DF60
0900
1100
6300
0000
ENDCHAR
STARTCHAR 52B9
ENCODING 21177
SWIDTH 720 0
DWIDTH 12 0
BBX 12 10 0 -1
BITMAP
2100
F900
53E0
4920
9120
5120
2220
5220
84C0
0000
ENDCHAR
STARTCHAR 52BC
ENCODING 21180
SWIDTH 720 0
DWIDTH 12 0
BBX 12 10 0 -1
BITMAP
1100
FD00
13E0
7920
0120
7920
4A20
4A20
7CC0
0000
ENDCHAR
STARTCHAR 52BE
ENCODING 21182
SWIDTH 720 0
DWIDTH 12 0
BBX 12 10 0 -1
BITMAP
2100
F900
43E0
D120
2120
C920
1220
2A20
C4C0
0000
ENDCHAR
STARTCHAR 52C1
ENCODING 21185
SWIDTH 720 0
DWIDTH 12 0
BBX 12 10 0 -1
BITMAP
FD00
5500
ABE0
A920
5520
FD20
2220
3A20
C4C0
0000
ENDCHAR
STARTCHAR 52C3
ENCODING 21187
SWIDTH 720 0
DWIDTH 12 0
BBX 12 10 0 -1
BITMAP
2100
F900
27E0
F920
9920
2120
FA20
2220
64C0
0000
ENDCHAR
STARTCHAR 52C5
ENCODING 21189
SWIDTH 720 0
DWIDTH 12 0
BBX 12 10 0 -1
BITMAP
2100
F900
27E0
F920
A920
F920
7220
AA20
A4C0
0000
ENDCHAR
STARTCHAR 52C7
ENCODING 21191
SWIDTH 720 0
DWIDTH 12 0
BBX 12 10 0 -1
BITMAP
3F00
0200
7FC0
4440
7FC0
4440
FFE0
0820
F0E0
0000
ENDCHAR
STARTCHAR 52C9
ENCODING 21193
SWIDTH 720 0
DWIDTH 12 0
BBX 12 10 0 -1
BITMAP
7100
97C0
2140
F940
AA40
FA40
54C0
5020
8FE0
0000
ENDCHAR
STARTCHAR 52CD
ENCODING 21197
SWIDTH 720 0
DWIDTH 12 0
BBX 12 10 0 -1
BITMAP
2100
F900
03E0
F920
8920
F920
2220
AA20
6CC0
0000
ENDCHAR
STARTCHAR 52D2
ENCODING 21202
SWIDTH 720 0
DWIDTH 12 0
BBX 12 10 0 -1
BITMAP
5100
F900
57E0
F920
A920
F920
2220
FA20
24E0
0000
ENDCHAR
STARTCHAR 52D5
ENCODING 21205
SWIDTH 720 0
DWIDTH 12 0
BBX 12 10 0 -1
BITMAP
0900
F100
FFE0
A920
F920
A920
F220
3A20
C4C0
0000
ENDCHAR
STARTCHAR 52D7
ENCODING 21207
SWIDTH 720 0
DWIDTH 12 0
BBX 12 10 0 -1
BITMAP
3F80
2080
3F80
7900
4BE0
7920
4920
7E20
C260
0000
ENDCHAR
STARTCHAR 52D8
ENCODING 21208
SWIDTH 720 0
DWIDTH 12 0
BBX 12 10 0 -1
BITMAP
4900
FD00
4BE0
7920
4920
FD20
6920
4220
7A60
0000
ENDCHAR
STARTCHAR 52D9
ENCODING 21209
SWIDTH 720 0
DWIDTH 12 0
BBX 12 10 0 -1
BITMAP
F200
17E0
6A40
2180
F660
6100
A7E0
2220
6CE0
0000
ENDCHAR
STARTCHAR 52DD
ENCODING 21213
SWIDTH 720 0
DWIDTH 12 0
BBX 12 10 0 -1
BITMAP
7540
57C0
5280
7FE0
5440
7920
57C0
5240
B4C0
0000
ENDCHAR
STARTCHAR 52DE
ENCODING 21214
SWIDTH 720 0
DWIDTH 12 0
BBX 12 10 0 -1
BITMAP
AAA0
5140
8A20
FFE0
8420
3F80
0880
1080
6380
0000
ENDCHAR
STARTCHAR 52DF
ENCODING 21215
SWIDTH 720 0
DWIDTH 12 0
BBX 12 10 0 -1
BITMAP
1100
FFE0
2080
3F80
2080
FFE0
3F80
C960
3300
0000
ENDCHAR
STARTCHAR 52E0
ENCODING 21216
SWIDTH 720 0
DWIDTH 12 0
BBX 12 10 0 -1
BITMAP
FD00
B500
6FE0
B520
4920
9520
6A20
1220
E4C0
0000
ENDCHAR
STARTCHAR 52E2
ENCODING 21218
SWIDTH 720 0
DWIDTH 12 0
BBX 12 10 0 -1
BITMAP
2100
FBC0
2140
DBC0
2960
F600
7FC0
0840
70C0
0000
ENDCHAR
STARTCHAR 52E3
ENCODING 21219
SWIDTH 720 0
DWIDTH 12 0
BBX 12 10 0 -1
BITMAP
2100
7900
23E0
FD20
4920
7920
4A20
7A20
CCC0
0000
ENDCHAR
STARTCHAR 52E4
ENCODING 21220
SWIDTH 720 0
DWIDTH 12 0
BBX 12 10 0 -1
BITMAP
5100
F900
FFE0
A920
F920
2120
FA20
2220
FCC0
0000
ENDCHAR
STARTCHAR 52E6
ENCODING 21222
SWIDTH 720 0
DWIDTH 12 0
BBX 12 10 0 -1
BITMAP
5480
A880
57E0
7CA0
54A0
FEA0
3920
5520
9260
0000
ENDCHAR
STARTCHAR 52E7
ENCODING 21223
SWIDTH 720 0
DWIDTH 12 0
BBX 12 10 0 -1
BITMAP
4100
7900
A7E0
5120
F920
5120
7A20
5220
7CC0
0000
ENDCHAR
STARTCHAR 52F2
ENCODING 21234
SWIDTH 720 0
DWIDTH 12 0
BBX 12 10 0 -1
BITMAP
1900
E100
FBE0
A920
F120
3A60
C000
5240
8920
0000
ENDCHAR
STARTCHAR 52F3
ENCODING 21235
SWIDTH 720 0
DWIDTH 12 0
BBX 12 10 0 -1
BITMAP
0C80
7080
FFE0
7CA0
54A0
7D20
1120
FE20
AA60
0000
ENDCHAR
STARTCHAR 52F5
ENCODING 21237
SWIDTH 720 0
DWIDTH 12 0
BBX 12 10 0 -1
BITMAP
FC80
A880
FFE0
D4A0
FCA0
90A0
FD20
CD20
F660
0000
ENDCHAR
STARTCHAR 52F8
ENCODING 21240
SWIDTH 720 0
DWIDTH 12 0
BBX 12 10 0 -1
BITMAP
2880
FE80
B5E0
FCA0
7CA0
C8A0
7D20
4920
7E60
0000
ENDCHAR
STARTCHAR 52F9
ENCODING 21241
SWIDTH 720 0
DWIDTH 12 0
BBX 12 10 0 -1
BITMAP
2000
3FE0
2020
4020
8020
0020
0020
0040
0380
0000
ENDCHAR
STARTCHAR 52FA
ENCODING 21242
SWIDTH 720 0
DWIDTH 12 0
BBX 12 10 0 -1
BITMAP
2000
3FE0
2020
4020
8C20
0220
0020
0040
0380
0000
ENDCHAR
STARTCHAR 52FE
ENCODING 21246
SWIDTH 720 0
DWIDTH 12 0
BBX 12 10 0 -1
BITMAP
2000
3FE0
4020
9020
1220
2220
2D20
7120
00C0
0000
ENDCHAR
STARTCHAR 52FF
ENCODING 21247
SWIDTH 720 0
DWIDTH 12 0
BBX 12 10 0 -1
BITMAP
4000
7FE0
4920
8920
1220
2220
4420
0840
1180
0000
ENDCHAR
STARTCHAR 5301
ENCODING 21249
SWIDTH 720 0
DWIDTH 12 0
BBX 12 10 0 -1
BITMAP
2000
3FC0
2440
5440
8C40
0B40
10E0
6080
0300
0000
ENDCHAR
STARTCHAR 5302
ENCODING 21250
SWIDTH 720 0
DWIDTH 12 0
BBX 12 10 0 -1
BITMAP
4000
7FE0
4020
A620
3820
2120
1F20
0040
0180
0000
ENDCHAR
STARTCHAR 5305
ENCODING 21253
SWIDTH 720 0
DWIDTH 12 0
BBX 12 10 0 -1
BITMAP
2000
3FC0
4040
BE40
0240
3E80
2020
2020
1FE0
0000
ENDCHAR
STARTCHAR 5306
ENCODING 21254
SWIDTH 720 0
DWIDTH 12 0
BBX 12 10 0 -1
BITMAP
4000
7FE0
4920
B920
1620
2320
44A0
0840
1180
0000
ENDCHAR
STARTCHAR 5308
ENCODING 21256
SWIDTH 720 0
DWIDTH 12 0
BBX 12 10 0 -1
BITMAP
4000
7FE0
4220
9A20
44A0
4AA0
70A0
7FA0
00C0
0000
ENDCHAR
STARTCHAR 530D
ENCODING 21261
SWIDTH 720 0
DWIDTH 12 0
BBX 12 10 0 -1
BITMAP
4000
7FE0
4520
BFA0
0420
3FA0
24A0
3FA0
24C0
0000
ENDCHAR
STARTCHAR 530F
ENCODING 21263
SWIDTH 720 0
DWIDTH 12 0
BBX 12 10 0 -1
BITMAP
2200
FBE0
5420
8BA0
FAA0
43A0
FA40
0A20
31E0
0000
ENDCHAR
STARTCHAR 5310
ENCODING 21264
SWIDTH 720 0
DWIDTH 12 0
BBX 12 10 0 -1
BITMAP
4000
7FE0
7FA0
9120
3FA0
24A0
3FA0
24A0
3FC0
0000
ENDCHAR
STARTCHAR 5315
ENCODING 21269
SWIDTH 720 0
DWIDTH 12 0
BBX 12 10 0 -1
BITMAP
2000
2000
20C0
2300
3C00
2000
2020
2020
1FE0
0000
ENDCHAR
STARTCHAR 5316
ENCODING 21270
SWIDTH 720 0
DWIDTH 12 0
BBX 12 10 0 -1
BITMAP
1400
1400
24C0
6700
A400
2400
2400
2420
23E0
0000
ENDCHAR
STARTCHAR 5317
ENCODING 21271
SWIDTH 720 0
DWIDTH 12 0
BBX 12 10 0 -1
BITMAP
0A00
0A20
FA40
0B80
0A00
0A00
3A20
CA20
09E0
0000
ENDCHAR
STARTCHAR 5319
ENCODING 21273
SWIDTH 720 0
DWIDTH 12 0
BBX 12 10 0 -1
BITMAP
FA00
8A00
FA60
8B80
FA00
2220
B9E0
E000
9FE0
0000
ENDCHAR
STARTCHAR 531A
ENCODING 21274
SWIDTH 720 0
DWIDTH 12 0
BBX 12 10 0 -1
BITMAP
7FC0
4000
4000
4000
4000
4000
4000
4000
7FE0
0000
ENDCHAR
STARTCHAR 531D
ENCODING 21277
SWIDTH 720 0
DWIDTH 12 0
BBX 12 10 0 -1
BITMAP
FFC0
8000
8400
BF80
A480
A480
A580
8400
FFE0
0000
ENDCHAR
STARTCHAR 5320
ENCODING 21280
SWIDTH 720 0
DWIDTH 12 0
BBX 12 10 0 -1
BITMAP
FFE0
8080
9F00
9000
9FC0
9200
9200
A200
FFE0
0000
ENDCHAR
STARTCHAR 5321
ENCODING 21281
SWIDTH 720 0
DWIDTH 12 0
BBX 12 10 0 -1
BITMAP
FFC0
8000
BF80
8400
9F00
8400
BF80
8000
FFE0
0000
ENDCHAR
STARTCHAR 5323
ENCODING 21283
SWIDTH 720 0
DWIDTH 12 0
BBX 12 10 0 -1
BITMAP
FFC0
8000
BF80
A480
BF80
A480
BF80
8400
FFE0
0000
ENDCHAR
STARTCHAR 532A
ENCODING 21290
SWIDTH 720 0
DWIDTH 12 0
BBX 12 10 0 -1
BITMAP
FFC0
8A00
BB80
8A00
BB80
8A00
FBC0
9200
FFE0
0000
ENDCHAR
STARTCHAR 532F
ENCODING 21295
SWIDTH 720 0
DWIDTH 12 0
BBX 12 10 0 -1
BITMAP
FFC0
B480
87C0
ED00
87C0
9500
E7C0
8000
FFE0
0000
ENDCHAR
STARTCHAR 5331
ENCODING 21297
SWIDTH 720 0
DWIDTH 12 0
BBX 12 10 0 -1
BITMAP
FFC0
8400
9F00
9500
FFC0
9100
9F00
B180
FFE0
0000
ENDCHAR
STARTCHAR 5333
ENCODING 21299
SWIDTH 720 0
DWIDTH 12 0
BBX 12 10 0 -1
BITMAP
FFC0
8E00
9100
BF80
EAC0
BB80
9100
AA80
FFE0
0000
ENDCHAR
STARTCHAR 5338
ENCODING 21304
SWIDTH 720 0
DWIDTH 12 0
BBX 12 10 0 -1
BITMAP
FFE0
4000
4000
4000
4000
4000
4000
4000
3FC0
0000
ENDCHAR
STARTCHAR 5339
ENCODING 21305
SWIDTH 720 0
DWIDTH 12 0
BBX 12 10 0 -1
BITMAP
FFC0
8A00
8A00
8A00
9240
9240
A1C0
8000
FFE0
0000
ENDCHAR
STARTCHAR 533A
ENCODING 21306
SWIDTH 720 0
DWIDTH 12 0
BBX 12 10 0 -1
BITMAP
FFC0
8000
8880
8500
8300
8C80
B040
8000
FFE0
0000
ENDCHAR
STARTCHAR 533B
ENCODING 21307
SWIDTH 720 0
DWIDTH 12 0
BBX 12 10 0 -1
BITMAP
FFE0
9000
9F80
A400
BFC0
8400
9B00
E0C0
FFE0
0000
ENDCHAR
STARTCHAR 533F
ENCODING 21311
SWIDTH 720 0
DWIDTH 12 0
BBX 12 10 0 -1
BITMAP
FFE0
8900
BFC0
8400
BFE0
9880
E880
8F80
FFE0
0000
ENDCHAR
STARTCHAR 5340
ENCODING 21312
SWIDTH 720 0
DWIDTH 12 0
BBX 12 10 0 -1
BITMAP
FFC0
9F00
9100
9F00
FBC0
CA40
FBC0
8000
FFE0
0000
ENDCHAR
STARTCHAR 5341
ENCODING 21313
SWIDTH 720 0
DWIDTH 12 0
BBX 12 10 0 -1
BITMAP
0400
0400
0400
0400
FFE0
0400
0400
0400
0400
0000
ENDCHAR
STARTCHAR 5343
ENCODING 21315
SWIDTH 720 0
DWIDTH 12 0
BBX 12 10 0 -1
BITMAP
0380
3C00
0400
0400
FFE0
0400
0400
0400
0400
0000
ENDCHAR
STARTCHAR 5345
ENCODING 21317
SWIDTH 720 0
DWIDTH 12 0
BBX 12 10 0 -1
BITMAP
2480
2480
2480
FFE0
2480
2480
4480
4480
8480
0000
ENDCHAR
STARTCHAR 5346
ENCODING 21318
SWIDTH 720 0
DWIDTH 12 0
BBX 12 10 0 -1
BITMAP
1000
7F00
1100
2120
C4E0
0400
FFE0
0400
0400
0000
ENDCHAR
STARTCHAR 5347
ENCODING 21319
SWIDTH 720 0
DWIDTH 12 0
BBX 12 10 0 -1
BITMAP
0D00
7100
1100
1100
FFE0
1100
2100
2100
4100
0000
ENDCHAR
STARTCHAR 5348
ENCODING 21320
SWIDTH 720 0
DWIDTH 12 0
BBX 12 10 0 -1
BITMAP
4000
7FC0
4400
8400
0400
FFE0
0400
0400
0400
0000
ENDCHAR
STARTCHAR 5349
ENCODING 21321
SWIDTH 720 0
DWIDTH 12 0
BBX 12 10 0 -1
BITMAP
0400
7FC0
0400
1500
1100
FFE0
1100
2100
4100
0000
ENDCHAR
STARTCHAR 534A
ENCODING 21322
SWIDTH 720 0
DWIDTH 12 0
BBX 12 10 0 -1
BITMAP
0400
2480
1500
7FC0
0400
0400
FFE0
0400
0400
0000
ENDCHAR
STARTCHAR 534D
ENCODING 21325
SWIDTH 720 0
DWIDTH 12 0
BBX 12 10 0 -1
BITMAP
7C40
0440
0440
0440
7FC0
4400
4400
4400
47C0
0000
ENDCHAR
STARTCHAR 5351
ENCODING 21329
SWIDTH 720 0
DWIDTH 12 0
BBX 12 10 0 -1
BITMAP
0800
7FC0
4440
7FC0
4440
7FC0
1100
FFE0
0100
0000
ENDCHAR
STARTCHAR 5352
ENCODING 21330
SWIDTH 720 0
DWIDTH 12 0
BBX 12 10 0 -1
BITMAP
0400
7FC0
1100
1100
2A80
4440
FFE0
0400
0400
0000
ENDCHAR
STARTCHAR 5353
ENCODING 21331
SWIDTH 720 0
DWIDTH 12 0
BBX 12 10 0 -1
BITMAP
0400
07C0
0400
7FC0
4040
7FC0
0400
FFE0
0400
0000
ENDCHAR
STARTCHAR 5354
ENCODING 21332
SWIDTH 720 0
DWIDTH 12 0
BBX 12 10 0 -1
BITMAP
4200
4FC0
F240
44C0
4880
5FE0
4AA0
4AA0
5760
0000
ENDCHAR
STARTCHAR 5357
ENCODING 21335
SWIDTH 720 0
DWIDTH 12 0
BBX 12 10 0 -1
BITMAP
0400
FFE0
0400
FFE0
9120
BFA0
8420
BFA0
8460
0000
ENDCHAR
STARTCHAR 5358
ENCODING 21336
SWIDTH 720 0
DWIDTH 12 0
BBX 12 10 0 -1
BITMAP
4840
2480
3F80
2480
3F80
2480
FFE0
0400
0400
0000
ENDCHAR
STARTCHAR 535A
ENCODING 21338
SWIDTH 720 0
DWIDTH 12 0
BBX 12 10 0 -1
BITMAP
2140
2FE0
2540
F7C0
2540
2FE0
2440
2240
20C0
0000
ENDCHAR
STARTCHAR 535C
ENCODING 21340
SWIDTH 720 0
DWIDTH 12 0
BBX 12 10 0 -1
BITMAP
1000
1000
1000
1C00
1300
1080
1000
1000
1000
0000
ENDCHAR
STARTCHAR 535E
ENCODING 21342
SWIDTH 720 0
DWIDTH 12 0
BBX 12 10 0 -1
BITMAP
0400
FFE0
0400
0400
0700
04C0
0400
0400
0400
0000
ENDCHAR
STARTCHAR 5360
ENCODING 21344
SWIDTH 720 0
DWIDTH 12 0
BBX 12 10 0 -1
BITMAP
0400
0400
07C0
0400
0400
7FC0
4040
4040
7FC0
0000
ENDCHAR
STARTCHAR 5366
ENCODING 21350
SWIDTH 720 0
DWIDTH 12 0
BBX 12 10 0 -1
BITMAP
1100
7D00
1100
FD00
11C0
7D20
1100
1D00
E100
0000
ENDCHAR
STARTCHAR 5369
ENCODING 21353
SWIDTH 720 0
DWIDTH 12 0
BBX 12 10 0 -1
BITMAP
3F80
2080
2080
2080
2080
2080
2380
2000
2000
0000
ENDCHAR
STARTCHAR 536E
ENCODING 21358
SWIDTH 720 0
DWIDTH 12 0
BBX 12 10 0 -1
BITMAP
1F00
6000
7FC0
4000
5F80
5080
5380
9020
8FE0
0000
ENDCHAR
STARTCHAR 536F
ENCODING 21359
SWIDTH 720 0
DWIDTH 12 0
BBX 12 10 0 -1
BITMAP
3000
43E0
4A20
4A20
4A20
7A20
CAC0
1200
6200
0000
ENDCHAR
STARTCHAR 5370
ENCODING 21360
SWIDTH 720 0
DWIDTH 12 0
BBX 12 10 0 -1
BITMAP
0800
33E0
4220
4220
7A20
4220
4220
7AC0
0200
0000
ENDCHAR
STARTCHAR 5371
ENCODING 21361
SWIDTH 720 0
DWIDTH 12 0
BBX 12 10 0 -1
BITMAP
2000
3F00
4200
FFC0
5F80
5080
5380
9020
8FE0
0000
ENDCHAR
STARTCHAR 5373
ENCODING 21363
SWIDTH 720 0
DWIDTH 12 0
BBX 12 10 0 -1
BITMAP
FBE0
8A20
FA20
8A20
FA20
8220
8AE0
9A00
E600
0000
ENDCHAR
STARTCHAR 5374
ENCODING 21364
SWIDTH 720 0
DWIDTH 12 0
BBX 12 10 0 -1
BITMAP
11E0
7D20
1120
1120
FD20
2120
4960
F500
0100
0000
ENDCHAR
STARTCHAR 5375
ENCODING 21365
SWIDTH 720 0
DWIDTH 12 0
BBX 12 10 0 -1
BITMAP
1800
E3E0
8A20
CB20
AAA0
8A20
F2E0
1200
2200
0000
ENDCHAR
STARTCHAR 5377
ENCODING 21367
SWIDTH 720 0
DWIDTH 12 0
BBX 12 10 0 -1
BITMAP
2880
5F40
1200
FFE0
3F80
D160
1700
1040
0FC0
0000
ENDCHAR
STARTCHAR 5378
ENCODING 21368
SWIDTH 720 0
DWIDTH 12 0
BBX 12 10 0 -1
BITMAP
4000
FBE0
2220
FE20
2220
BA20
A220
BAC0
C200
0000
ENDCHAR
STARTCHAR 537B
ENCODING 21371
SWIDTH 720 0
DWIDTH 12 0
BBX 12 10 0 -1
BITMAP
29E0
4520
8320
2920
4520
FF20
4560
4500
7D00
0000
ENDCHAR
STARTCHAR 537F
ENCODING 21375
SWIDTH 720 0
DWIDTH 12 0
BBX 12 10 0 -1
BITMAP
6EE0
8AA0
AEA0
AAA0
AEA0
E8A0
2AE0
5D80
8080
0000
ENDCHAR
STARTCHAR 5382
ENCODING 21378
SWIDTH 720 0
DWIDTH 12 0
BBX 12 10 0 -1
BITMAP
3FE0
2000
2000
2000
2000
2000
4000
4000
8000
0000
ENDCHAR
STARTCHAR 5384
ENCODING 21380
SWIDTH 720 0
DWIDTH 12 0
BBX 12 10 0 -1
BITMAP
7FE0
4000
4F80
4880
4880
4980
4820
8820
87E0
0000
ENDCHAR
STARTCHAR 5396
ENCODING 21398
SWIDTH 720 0
DWIDTH 12 0
BBX 12 10 0 -1
BITMAP
7FE0
5480
5300
7C40
5380
5820
6BC0
A820
CFE0
0000
ENDCHAR
STARTCHAR 5398
ENCODING 21400
SWIDTH 720 0
DWIDTH 12 0
BBX 12 10 0 -1
BITMAP
7FE0
4000
5FC0
5240
5FC0
5240
5FC0
8200
BFE0
0000
ENDCHAR
STARTCHAR 539A
ENCODING 21402
SWIDTH 720 0
DWIDTH 12 0
BBX 12 10 0 -1
BITMAP
7FE0
5080
5F80
5080
5F80
4300
7FE0
8200
8E00
0000
ENDCHAR
STARTCHAR 539F
ENCODING 21407
SWIDTH 720 0
DWIDTH 12 0
BBX 12 10 0 -1
BITMAP
7FE0
4200
5FC0
5040
5FC0
5040
5FC0
9280
A660
0000
ENDCHAR
STARTCHAR 53A0
ENCODING 21408
SWIDTH 720 0
DWIDTH 12 0
BBX 12 10 0 -1
BITMAP
7FE0
4000
5E20
52A0
5EA0
52A0
5EA0
8C20
9260
0000
ENDCHAR
STARTCHAR 53A5
ENCODING 21413
SWIDTH 720 0
DWIDTH 12 0
BBX 12 10 0 -1
BITMAP
7FE0
5500
7FE0
49A0
6A80
6A80
7F40
8940
9220
0000
ENDCHAR
STARTCHAR 53A6
ENCODING 21414
SWIDTH 720 0
DWIDTH 12 0
BBX 12 10 0 -1
BITMAP
7FE0
5FC0
4400
4F80
4880
4F80
5C80
8300
9CE0
0000
ENDCHAR
STARTCHAR 53A8
ENCODING 21416
SWIDTH 720 0
DWIDTH 12 0
BBX 12 10 0 -1
BITMAP
7FE0
4040
7E40
5DE0
5440
5D40
54C0
8E40
B0C0
0000
ENDCHAR
STARTCHAR 53A9
ENCODING 21417
SWIDTH 720 0
DWIDTH 12 0
BBX 12 10 0 -1
BITMAP
7FE0
4000
5DE0
5540
5DE0
50C0
50C0
9D40
B660
0000
ENDCHAR
STARTCHAR 53AD
ENCODING 21421
SWIDTH 720 0
DWIDTH 12 0
BBX 12 10 0 -1
BITMAP
FFE0
BC80
A4A0
BC80
83E0
BC80
A480
BD40
AD20
0000
ENDCHAR
STARTCHAR 53AE
ENCODING 21422
SWIDTH 720 0
DWIDTH 12 0
BBX 12 10 0 -1
BITMAP
7FE0
5440
7F80
55E0
5D40
5540
7F40
9540
A240
0000
ENDCHAR
STARTCHAR 53B0
ENCODING 21424
SWIDTH 720 0
DWIDTH 12 0
BBX 12 10 0 -1
BITMAP
7FE0
5C80
6AE0
49A0
7EA0
7640
7E40
A2A0
A6A0
0000
ENDCHAR
STARTCHAR 53B3
ENCODING 21427
SWIDTH 720 0
DWIDTH 12 0
BBX 12 10 0 -1
BITMAP
2440
FFE0
9100
FDE0
A740
BD40
A480
FD40
8620
0000
ENDCHAR
STARTCHAR 53B6
ENCODING 21430
SWIDTH 720 0
DWIDTH 12 0
BBX 12 10 0 -1
BITMAP
0400
0400
0800
0800
1100
1080
2040
27E0
F820
0000
ENDCHAR
STARTCHAR 53BB
ENCODING 21435
SWIDTH 720 0
DWIDTH 12 0
BBX 12 10 0 -1
BITMAP
0400
3F80
0400
0400
FFE0
0800
1100
2180
7E40
0000
ENDCHAR
STARTCHAR 53C2
ENCODING 21442
SWIDTH 720 0
DWIDTH 12 0
BBX 12 10 0 -1
BITMAP
0800
1300
3C80
FFE0
2D80
C260
1C80
0300
3C00
0000
ENDCHAR
STARTCHAR 53C3
ENCODING 21443
SWIDTH 720 0
DWIDTH 12 0
BBX 12 10 0 -1
BITMAP
0800
1080
3F80
4920
FBE0
2280
DC60
0100
3E00
0000
ENDCHAR
STARTCHAR 53C8
ENCODING 21448
SWIDTH 720 0
DWIDTH 12 0
BBX 12 10 0 -1
BITMAP
0000
7F80
2080
1100
0A00
0400
0A00
3180
C060
0000
ENDCHAR
STARTCHAR 53C9
ENCODING 21449
SWIDTH 720 0
DWIDTH 12 0
BBX 12 10 0 -1
BITMAP
7F80
0880
2500
1100
0A00
0400
0A00
3180
C060
0000
ENDCHAR
STARTCHAR 53CA
ENCODING 21450
SWIDTH 720 0
DWIDTH 12 0
BBX 12 10 0 -1
BITMAP
7F00
1100
1200
1380
1880
2500
2200
4580
9860
0000
ENDCHAR
STARTCHAR 53CB
ENCODING 21451
SWIDTH 720 0
DWIDTH 12 0
BBX 12 10 0 -1
BITMAP
0800
FFE0
0800
0F80
1880
1500
2200
4D80
B060
0000
ENDCHAR
STARTCHAR 53CC
ENCODING 21452
SWIDTH 720 0
DWIDTH 12 0
BBX 12 10 0 -1
BITMAP
FBE0
0820
4A20
2A20
1140
1140
2880
4940
8220
0000
ENDCHAR
STARTCHAR 53CD
ENCODING 21453
SWIDTH 720 0
DWIDTH 12 0
BBX 12 10 0 -1
BITMAP
7FC0
4000
4000
7FC0
4880
4500
4200
8D80
B060
0000
ENDCHAR
STARTCHAR 53CE
ENCODING 21454
SWIDTH 720 0
DWIDTH 12 0
BBX 12 10 0 -1
BITMAP
1000
9FC0
9440
9440
9280
B280
D100
1280
1C60
0000
ENDCHAR
STARTCHAR 53D4
ENCODING 21460
SWIDTH 720 0
DWIDTH 12 0
BBX 12 10 0 -1
BITMAP
2000
3BE0
2220
FA20
2140
A940
A880
2140
6620
0000
ENDCHAR
STARTCHAR 53D6
ENCODING 21462
SWIDTH 720 0
DWIDTH 12 0
BBX 12 10 0 -1
BITMAP
FC00
4BE0
7820
4A20
7A40
4940
7880
C940
0E20
0000
ENDCHAR
STARTCHAR 53D7
ENCODING 21463
SWIDTH 720 0
DWIDTH 12 0
BBX 12 10 0 -1
BITMAP
01C0
7E40
2480
FFE0
8020
3F00
1100
0E00
F1E0
0000
ENDCHAR
STARTCHAR 53D9
ENCODING 21465
SWIDTH 720 0
DWIDTH 12 0
BBX 12 10 0 -1
BITMAP
2000
53E0
FA20
2220
F940
2140
A880
A940
6620
0000
ENDCHAR
STARTCHAR 53DB
ENCODING 21467
SWIDTH 720 0
DWIDTH 12 0
BBX 12 10 0 -1
BITMAP
27E0
AC00
7400
FFE0
2520
FD40
2480
2540
4A20
0000
ENDCHAR
STARTCHAR 53DF
ENCODING 21471
SWIDTH 720 0
DWIDTH 12 0
BBX 12 10 0 -1
BITMAP
1400
65C0
4440
75C0
4440
7FC0
1100
0E00
F1E0
0000
ENDCHAR
STARTCHAR 53E1
ENCODING 21473
SWIDTH 720 0
DWIDTH 12 0
BBX 12 10 0 -1
BITMAP
3000
FDE0
B420
4920
FD40
4940
7880
4940
7A20
0000
ENDCHAR
STARTCHAR 53E2
ENCODING 21474
SWIDTH 720 0
DWIDTH 12 0
BBX 12 10 0 -1
BITMAP
4A40
FFE0
1100
FFE0
4BC0
7940
4940
7880
CB60
0000
ENDCHAR
STARTCHAR 53E3
ENCODING 21475
SWIDTH 720 0
DWIDTH 12 0
BBX 12 10 0 -1
BITMAP
0000
7FC0
4040
4040
4040
4040
4040
7FC0
0000
0000
ENDCHAR
STARTCHAR 53E4
ENCODING 21476
SWIDTH 720 0
DWIDTH 12 0
BBX 12 10 0 -1
BITMAP
0400
0400
FFE0
0400
0400
7FC0
4040
4040
7FC0
0000
ENDCHAR
STARTCHAR 53E5
ENCODING 21477
SWIDTH 720 0
DWIDTH 12 0
BBX 12 10 0 -1
BITMAP
4000
7FE0
4020
BE20
2220
2220
3E20
0040
0180
0000
ENDCHAR
STARTCHAR 53E8
ENCODING 21480
SWIDTH 720 0
DWIDTH 12 0
BBX 12 10 0 -1
BITMAP
0FE0
F220
9220
9220
9220
9220
F420
0420
08C0
0000
ENDCHAR
STARTCHAR 53E9
ENCODING 21481
SWIDTH 720 0
DWIDTH 12 0
BBX 12 10 0 -1
BITMAP
03E0
FA20
8A20
8A20
8A20
8A20
FAE0
0200
0200
0000
ENDCHAR
STARTCHAR 53EA
ENCODING 21482
SWIDTH 720 0
DWIDTH 12 0
BBX 12 10 0 -1
BITMAP
7FC0
4040
4040
4040
7FC0
0000
1080
2040
C020
0000
ENDCHAR
STARTCHAR 53EB
ENCODING 21483
SWIDTH 720 0
DWIDTH 12 0
BBX 12 10 0 -1
BITMAP
0080
F480
9480
9480
9480
94E0
F780
0C80
0080
0000
ENDCHAR
STARTCHAR 53EC
ENCODING 21484
SWIDTH 720 0
DWIDTH 12 0
BBX 12 10 0 -1
BITMAP
7FC0
0840
1040
6180
0000
7FC0
4040
4040
7FC0
0000
ENDCHAR
STARTCHAR 53ED
ENCODING 21485
SWIDTH 720 0
DWIDTH 12 0
BBX 12 10 0 -1
BITMAP
0080
F280
9280
9280
9240
9440
F440
0820
1020
0000
ENDCHAR
STARTCHAR 53EE
ENCODING 21486
SWIDTH 720 0
DWIDTH 12 0
BBX 12 10 0 -1
BITMAP
07E0
F080
9080
9080
9080
9080
F080
0080
0380
0000
ENDCHAR
STARTCHAR 53EF
ENCODING 21487
SWIDTH 720 0
DWIDTH 12 0
BBX 12 10 0 -1
BITMAP
FFE0
0080
3C80
2480
2480
3C80
0080
0080
0180
0000
ENDCHAR
STARTCHAR 53F0
ENCODING 21488
SWIDTH 720 0
DWIDTH 12 0
BBX 12 10 0 -1
BITMAP
0800
1080
20C0
FF20
0000
7FC0
4040
4040
7FC0
0000
ENDCHAR
STARTCHAR 53F1
ENCODING 21489
SWIDTH 720 0
DWIDTH 12 0
BBX 12 10 0 -1
BITMAP
0400
F400
9420
94C0
9F00
9400
F400
0420
03E0
0000
ENDCHAR
STARTCHAR 53F2
ENCODING 21490
SWIDTH 720 0
DWIDTH 12 0
BBX 12 10 0 -1
BITMAP
0400
7FC0
4440
4440
7FC0
2800
1800
2700
C0E0
0000
ENDCHAR
STARTCHAR 53F3
ENCODING 21491
SWIDTH 720 0
DWIDTH 12 0
BBX 12 10 0 -1
BITMAP
0400
FFE0
0800
1000
3FC0
5040
9040
1040
1FC0
0000
ENDCHAR
STARTCHAR 53F6
ENCODING 21494
SWIDTH 720 0
DWIDTH 12 0
BBX 12 10 0 -1
BITMAP
0100
F100
9100
9FE0
9100
9100
F100
0100
0100
0000
ENDCHAR
STARTCHAR 53F7
ENCODING 21495
SWIDTH 720 0
DWIDTH 12 0
BBX 12 10 0 -1
BITMAP
3F80
2080
3F80
0000
FFE0
1000
3FC0
0040
0380
0000
ENDCHAR
STARTCHAR 53F8
ENCODING 21496
SWIDTH 720 0
DWIDTH 12 0
BBX 12 10 0 -1
BITMAP
FFE0
0020
3F20
0020
3F20
2120
3F20
0020
00E0
0000
ENDCHAR
STARTCHAR 53FA
ENCODING 21498
SWIDTH 720 0
DWIDTH 12 0
BBX 12 10 0 -1
BITMAP
0300
F100
9100
9100
9280
9280
F440
0840
1020
0000
ENDCHAR
STARTCHAR 5401
ENCODING 21505
SWIDTH 720 0
DWIDTH 12 0
BBX 12 10 0 -1
BITMAP
07C0
F100
9100
9100
9FE0
9100
F100
0100
0300
0000
ENDCHAR
STARTCHAR 5403
ENCODING 21507
SWIDTH 720 0
DWIDTH 12 0
BBX 12 10 0 -1
BITMAP
0400
F7E0
9800
9780
9100
9200
F400
0820
07E0
0000
ENDCHAR
STARTCHAR 5404
ENCODING 21508
SWIDTH 720 0
DWIDTH 12 0
BBX 12 10 0 -1
BITMAP
1000
3F80
5100
0E00
3180
FFE0
2080
2080
3F80
0000
ENDCHAR
STARTCHAR 5408
ENCODING 21512
SWIDTH 720 0
DWIDTH 12 0
BBX 12 10 0 -1
BITMAP
0400
0A00
3180
DF60
0000
3F80
2080
2080
3F80
0000
ENDCHAR
STARTCHAR 5409
ENCODING 21513
SWIDTH 720 0
DWIDTH 12 0
BBX 12 10 0 -1
BITMAP
0400
FFE0
0400
7FC0
0000
3F80
2080
2080
3F80
0000
ENDCHAR
STARTCHAR 540A
ENCODING 21514
SWIDTH 720 0
DWIDTH 12 0
BBX 12 10 0 -1
BITMAP
7FC0
4040
7FC0
0400
FFE0
8420
8420
84E0
0400
0000
ENDCHAR
STARTCHAR 540B
ENCODING 21515
SWIDTH 720 0
DWIDTH 12 0
BBX 12 10 0 -1
BITMAP
0040
F040
9FE0
9040
9440
9240
F040
0040
01C0
0000
ENDCHAR
STARTCHAR 540C
ENCODING 21516
SWIDTH 720 0
DWIDTH 12 0
BBX 12 10 0 -1
BITMAP
7FC0
4040
5F40
4040
5F40
5140
5F40
4040
40C0
0000
ENDCHAR
STARTCHAR 540D
ENCODING 21517
SWIDTH 720 0
DWIDTH 12 0
BBX 12 10 0 -1
BITMAP
0800
0F80
1080
6900
0600
0FC0
3840
C840
0FC0
0000
ENDCHAR
STARTCHAR 540E
ENCODING 21518
SWIDTH 720 0
DWIDTH 12 0
BBX 12 10 0 -1
BITMAP
01C0
7E00
4000
7FE0
4000
5FC0
5040
9040
9FC0
0000
ENDCHAR
STARTCHAR 540F
ENCODING 21519
SWIDTH 720 0
DWIDTH 12 0
BBX 12 10 0 -1
BITMAP
0400
FFE0
0400
7FC0
4440
7FC0
2800
1C00
E3E0
0000
ENDCHAR
STARTCHAR 5410
ENCODING 21520
SWIDTH 720 0
DWIDTH 12 0
BBX 12 10 0 -1
BITMAP
0100
F100
9100
97C0
9100
9100
F100
0100
0FE0
0000
ENDCHAR
STARTCHAR 5411
ENCODING 21521
SWIDTH 720 0
DWIDTH 12 0
BBX 12 10 0 -1
BITMAP
0400
0800
FFE0
8020
9F20
9120
9120
9F20
8060
0000
ENDCHAR
STARTCHAR 541B
ENCODING 21531
SWIDTH 720 0
DWIDTH 12 0
BBX 12 10 0 -1
BITMAP
7F80
0880
FFE0
1080
7F80
2000
7FC0
A040
3FC0
0000
ENDCHAR
STARTCHAR 541D
ENCODING 21533
SWIDTH 720 0
DWIDTH 12 0
BBX 12 10 0 -1
BITMAP
0400
7FC0
1100
0E00
F1E0
3F80
2080
2080
3F80
0000
ENDCHAR
STARTCHAR 541F
ENCODING 21535
SWIDTH 720 0
DWIDTH 12 0
BBX 12 10 0 -1
BITMAP
0100
F280
9440
9BA0
9000
97C0
F040
0080
0100
0000
ENDCHAR
STARTCHAR 5420
ENCODING 21536
SWIDTH 720 0
DWIDTH 12 0
BBX 12 10 0 -1
BITMAP
0140
F120
9100
9FE0
9100
9280
F280
0440
1820
0000
ENDCHAR
STARTCHAR 5426
ENCODING 21542
SWIDTH 720 0
DWIDTH 12 0
BBX 12 10 0 -1
BITMAP
7FC0
0400
1D80
E460
0400
7FC0
4040
4040
7FC0
0000
ENDCHAR
STARTCHAR 5429
ENCODING 21545
SWIDTH 720 0
DWIDTH 12 0
BBX 12 10 0 -1
BITMAP
0080
F480
9440
9820
97C0
9240
F240
0440
0980
0000
ENDCHAR
STARTCHAR 542B
ENCODING 21547
SWIDTH 720 0
DWIDTH 12 0
BBX 12 10 0 -1
BITMAP
0400
0A00
3F80
C060
1F00
0200
3F80
2080
3F80
0000
ENDCHAR
STARTCHAR 542C
ENCODING 21548
SWIDTH 720 0
DWIDTH 12 0
BBX 12 10 0 -1
BITMAP
0040
F780
9400
97E0
9480
9480
F480
0880
0880
0000
ENDCHAR
STARTCHAR 542D
ENCODING 21549
SWIDTH 720 0
DWIDTH 12 0
BBX 12 10 0 -1
BITMAP
0100
F7C0
9000
9780
9480
9480
F480
04A0
08E0
0000
ENDCHAR
STARTCHAR 542E
ENCODING 21550
SWIDTH 720 0
DWIDTH 12 0
BBX 12 10 0 -1
BITMAP
0100
F7C0
9200
9460
97A0
9280
F280
04A0
08E0
0000
ENDCHAR
STARTCHAR 5436
ENCODING 21558
SWIDTH 720 0
DWIDTH 12 0
BBX 12 10 0 -1
BITMAP
0300
F100
9FE0
9920
9920
9AA0
FC60
0820
0860
0000
ENDCHAR
STARTCHAR 5438
ENCODING 21560
SWIDTH 720 0
DWIDTH 12 0
BBX 12 10 0 -1
BITMAP
0F80
F480
9500
95C0
9440
9A80
F900
1280
2460
0000
ENDCHAR
STARTCHAR 5439
ENCODING 21561
SWIDTH 720 0
DWIDTH 12 0
BBX 12 10 0 -1
BITMAP
0400
F400
97E0
9920
9140
9280
F280
0440
1820
0000
ENDCHAR
STARTCHAR 543B
ENCODING 21563
SWIDTH 720 0
DWIDTH 12 0
BBX 12 10 0 -1
BITMAP
0400
F400
97E0
9AA0
92A0
9520
F920
0220
04C0
0000
ENDCHAR
STARTCHAR 543C
ENCODING 21564
SWIDTH 720 0
DWIDTH 12 0
BBX 12 10 0 -1
BITMAP
1E80
E280
A480
A680
BC80
A480
E4A0
04A0
0CE0
0000
ENDCHAR
STARTCHAR 543D
ENCODING 21565
SWIDTH 720 0
DWIDTH 12 0
BBX 12 10 0 -1
BITMAP
0500
F500
97C0
9900
9100
9FE0
F100
0100
0100
0000
ENDCHAR
STARTCHAR 543E
ENCODING 21566
SWIDTH 720 0
DWIDTH 12 0
BBX 12 10 0 -1
BITMAP
7FC0
1000
7F80
1080
FFE0
0000
7FC0
4040
7FC0
0000
ENDCHAR
STARTCHAR 5440
ENCODING 21568
SWIDTH 720 0
DWIDTH 12 0
BBX 12 10 0 -1
BITMAP
07E0
F240
9240
93E0
90C0
9140
F240
0C40
01C0
0000
ENDCHAR
STARTCHAR 5442
ENCODING 21570
SWIDTH 720 0
DWIDTH 12 0
BBX 12 10 0 -1
BITMAP
3F80
2080
2080
3F80
0800
7FC0
4040
4040
7FC0
0000
ENDCHAR
STARTCHAR 5446
ENCODING 21574
SWIDTH 720 0
DWIDTH 12 0
BBX 12 10 0 -1
BITMAP
3F80
2080
2080
3F80
0400
FFE0
1500
2480
C460
0000
ENDCHAR
STARTCHAR 5448
ENCODING 21576
SWIDTH 720 0
DWIDTH 12 0
BBX 12 10 0 -1
BITMAP
3F80
2080
3F80
0000
7FC0
0400
3F80
0400
FFE0
0000
ENDCHAR
STARTCHAR 5449
ENCODING 21577
SWIDTH 720 0
DWIDTH 12 0
BBX 12 10 0 -1
BITMAP
1F80
5080
5F80
4000
7FC0
0040
FFE0
1100
60C0
0000
ENDCHAR
STARTCHAR 544A
ENCODING 21578
SWIDTH 720 0
DWIDTH 12 0
BBX 12 10 0 -1
BITMAP
2400
3F80
4400
FFE0
0000
3F80
2080
2080
3F80
0000
ENDCHAR
STARTCHAR 544E
ENCODING 21582
SWIDTH 720 0
DWIDTH 12 0
BBX 12 10 0 -1
BITMAP
07E0
F420
9420
97E0
9480
9480
F840
0840
1020
0000
ENDCHAR
STARTCHAR 5451
ENCODING 21585
SWIDTH 720 0
DWIDTH 12 0
BBX 12 10 0 -1
BITMAP
01C0
7E00
0400
FFE0
1100
3F80
E0E0
2080
3F80
0000
ENDCHAR
STARTCHAR 545F
ENCODING 21599
SWIDTH 720 0
DWIDTH 12 0
BBX 12 10 0 -1
BITMAP
0100
F7E0
9100
9200
9440
9280
F100
0260
0FA0
0000
ENDCHAR
STARTCHAR 5468
ENCODING 21608
SWIDTH 720 0
DWIDTH 12 0
BBX 12 10 0 -1
BITMAP
7FE0
4420
5F20
4420
7FA0
4020
5F20
9120
9F60
0000
ENDCHAR
STARTCHAR 546A
ENCODING 21610
SWIDTH 720 0
DWIDTH 12 0
BBX 12 10 0 -1
BITMAP
0FC0
F840
9840
9840
9FC0
F500
0500
0920
31E0
0000
ENDCHAR
STARTCHAR 5470
ENCODING 21616
SWIDTH 720 0
DWIDTH 12 0
BBX 12 10 0 -1
BITMAP
1100
5DC0
5100
5D20
E0E0
3F80
2080
2080
3F80
0000
ENDCHAR
STARTCHAR 5471
ENCODING 21617
SWIDTH 720 0
DWIDTH 12 0
BBX 12 10 0 -1
BITMAP
0060
F7C0
9540
9540
9540
9540
F940
09A0
13A0
0000
ENDCHAR
STARTCHAR 5473
ENCODING 21619
SWIDTH 720 0
DWIDTH 12 0
BBX 12 10 0 -1
BITMAP
0100
F100
97C0
9100
9FE0
9380
F540
0920
0100
0000
ENDCHAR
STARTCHAR 5475
ENCODING 21621
SWIDTH 720 0
DWIDTH 12 0
BBX 12 10 0 -1
BITMAP
0FE0
F040
9740
9540
9540
9540
F740
0040
00C0
0000
ENDCHAR
STARTCHAR 5476
ENCODING 21622
SWIDTH 720 0
DWIDTH 12 0
BBX 12 10 0 -1
BITMAP
0800
E9E0
BEA0
AAA0
AA40
AA40
E4A0
0AA0
0920
0000
ENDCHAR
STARTCHAR 5477
ENCODING 21623
SWIDTH 720 0
DWIDTH 12 0
BBX 12 10 0 -1
BITMAP
07E0
F520
9520
97E0
9520
97E0
F100
0100
0100
0000
ENDCHAR
STARTCHAR 547B
ENCODING 21627
SWIDTH 720 0
DWIDTH 12 0
BBX 12 10 0 -1
BITMAP
0100
F100
97E0
9520
97E0
9520
F7E0
0100
0100
0000
ENDCHAR
STARTCHAR 547C
ENCODING 21628
SWIDTH 720 0
DWIDTH 12 0
BBX 12 10 0 -1
BITMAP
00C0
F700
9120
9520
9340
9FE0
F100
0100
0300
0000
ENDCHAR
STARTCHAR 547D
ENCODING 21629
SWIDTH 720 0
DWIDTH 12 0
BBX 12 10 0 -1
BITMAP
0400
0A00
3180
DF60
0000
7BC0
4A40
7AC0
0200
0000
ENDCHAR
STARTCHAR 5480
ENCODING 21632
SWIDTH 720 0
DWIDTH 12 0
BBX 12 10 0 -1
BITMAP
07C0
F440
9440
97C0
9440
97C0
F440
0440
1FE0
0000
ENDCHAR
STARTCHAR 5484
ENCODING 21636
SWIDTH 720 0
DWIDTH 12 0
BBX 12 10 0 -1
BITMAP
0100
F540
9540
97C0
9100
9920
F920
0920
0FE0
0000
ENDCHAR
STARTCHAR 5486
ENCODING 21638
SWIDTH 720 0
DWIDTH 12 0
BBX 12 10 0 -1
BITMAP
0400
F7C0
9840
9740
9540
9740
F480
0420
03E0
0000
ENDCHAR
STARTCHAR 548B
ENCODING 21643
SWIDTH 720 0
DWIDTH 12 0
BBX 12 10 0 -1
BITMAP
0200
F200
93E0
9500
99E0
9100
F1E0
0100
0100
0000
ENDCHAR
STARTCHAR 548C
ENCODING 21644
SWIDTH 720 0
DWIDTH 12 0
BBX 12 10 0 -1
BITMAP
1800
E000
23E0
FA20
2220
7220
AA20
A3E0
2000
0000
ENDCHAR
STARTCHAR 548E
ENCODING 21646
SWIDTH 720 0
DWIDTH 12 0
BBX 12 10 0 -1
BITMAP
4100
7900
C980
3240
CFE0
0000
7FC0
4040
7FC0
0000
ENDCHAR
STARTCHAR 548F
ENCODING 21647
SWIDTH 720 0
DWIDTH 12 0
BBX 12 10 0 -1
BITMAP
0300
F000
9700
9120
9FC0
9380
F540
0920
0300
0000
ENDCHAR
STARTCHAR 5490
ENCODING 21648
SWIDTH 720 0
DWIDTH 12 0
BBX 12 10 0 -1
BITMAP
0440
E440
ABE0
B840
AA40
A940
E840
0840
08C0
0000
ENDCHAR
STARTCHAR 5492
ENCODING 21650
SWIDTH 720 0
DWIDTH 12 0
BBX 12 10 0 -1
BITMAP
FBE0
8A20
FBE0
0000
1F00
1100
1120
2120
C1E0
0000
ENDCHAR
STARTCHAR 54A2
ENCODING 21666
SWIDTH 720 0
DWIDTH 12 0
BBX 12 10 0 -1
BITMAP
7BC0
4A40
7BC0
0000
FFE0
1000
3FC0
0040
0380
0000
ENDCHAR
STARTCHAR 54A4
ENCODING 21668
SWIDTH 720 0
DWIDTH 12 0
BBX 12 10 0 -1
BITMAP
0100
FFE0
9820
9780
9200
9FC0
F200
0220
01E0
0000
ENDCHAR
STARTCHAR 54A5
ENCODING 21669
SWIDTH 720 0
DWIDTH 12 0
BBX 12 10 0 -1
BITMAP
07C0
F100
9240
9240
97A0
9100
F7C0
0100
0FE0
0000
ENDCHAR
STARTCHAR 54A8
ENCODING 21672
SWIDTH 720 0
DWIDTH 12 0
BBX 12 10 0 -1
BITMAP
0400
E7E0
0940
2280
CC60
3F80
2080
2080
3F80
0000
ENDCHAR
STARTCHAR 54AB
ENCODING 21675
SWIDTH 720 0
DWIDTH 12 0
BBX 12 10 0 -1
BITMAP
7BE0
4A20
4A20
7BE0
6140
5220
4A20
8600
81E0
0000
ENDCHAR
STARTCHAR 54AC
ENCODING 21676
SWIDTH 720 0
DWIDTH 12 0
BBX 12 10 0 -1
BITMAP
0100
FFE0
9280
9440
9CA0
9280
F100
0280
0C60
0000
ENDCHAR
STARTCHAR 54AF
ENCODING 21679
SWIDTH 720 0
DWIDTH 12 0
BBX 12 10 0 -1
BITMAP
0400
F7C0
9C80
9300
94E0
9FC0
F440
0440
07C0
0000
ENDCHAR
STARTCHAR 54B2
ENCODING 21682
SWIDTH 720 0
DWIDTH 12 0
BBX 12 10 0 -1
BITMAP
0440
F280
97E0
9100
9FE0
9100
F280
0440
1820
0000
ENDCHAR
STARTCHAR 54B3
ENCODING 21683
SWIDTH 720 0
DWIDTH 12 0
BBX 12 10 0 -1
BITMAP
0100
FFE0
9200
9680
9100
9640
F080
0340
0C20
0000
ENDCHAR
STARTCHAR 54B8
ENCODING 21688
SWIDTH 720 0
DWIDTH 12 0
BBX 12 10 0 -1
BITMAP
0140
7FE0
4100
7D40
4140
7C80
64A0
BD60
8220
0000
ENDCHAR
STARTCHAR 54BC
ENCODING 21692
SWIDTH 720 0
DWIDTH 12 0
BBX 12 10 0 -1
BITMAP
3F80
2080
2780
2480
FFE0
9F20
9120
9F20
8060
0000
ENDCHAR
STARTCHAR 54BD
ENCODING 21693
SWIDTH 720 0
DWIDTH 12 0
BBX 12 10 0 -1
BITMAP
0FE0
E820
A920
AFE0
A920
AAA0
EC60
0820
0FE0
0000
ENDCHAR
STARTCHAR 54BE
ENCODING 21694
SWIDTH 720 0
DWIDTH 12 0
BBX 12 10 0 -1
BITMAP
0100
F7A0
9140
9FE0
9100
9240
F780
0A20
01E0
0000
ENDCHAR
STARTCHAR 54C0
ENCODING 21696
SWIDTH 720 0
DWIDTH 12 0
BBX 12 10 0 -1
BITMAP
0400
FFE0
3F80
2080
3F80
0C40
3280
D500
38E0
0000
ENDCHAR
STARTCHAR 54C1
ENCODING 21697
SWIDTH 720 0
DWIDTH 12 0
BBX 12 10 0 -1
BITMAP
3F80
2080
2080
3F80
0000
FBE0
8A20
8A20
FBE0
0000
ENDCHAR
STARTCHAR 54C2
ENCODING 21698
SWIDTH 720 0
DWIDTH 12 0
BBX 12 10 0 -1
BITMAP
0FE0
F280
9FE0
9AA0
9AA0
9CE0
F820
0820
0FE0
0000
ENDCHAR
STARTCHAR 54C4
ENCODING 21700
SWIDTH 720 0
DWIDTH 12 0
BBX 12 10 0 -1
BITMAP
0240
F240
97E0
9240
9240
9FE0
F240
0420
0420
0000
ENDCHAR
STARTCHAR 54C7
ENCODING 21703
SWIDTH 720 0
DWIDTH 12 0
BBX 12 10 0 -1
BITMAP
0100
F7C0
9100
9FE0
9100
97C0
F100
0100
0FE0
0000
ENDCHAR
STARTCHAR 54C8
ENCODING 21704
SWIDTH 720 0
DWIDTH 12 0
BBX 12 10 0 -1
BITMAP
0100
F280
9440
9FE0
9000
97C0
F440
0440
07C0
0000
ENDCHAR
STARTCHAR 54C9
ENCODING 21705
SWIDTH 720 0
DWIDTH 12 0
BBX 12 10 0 -1
BITMAP
1140
7D20
1100
FFE0
0080
7CA0
4440
7CE0
0320
0000
ENDCHAR
STARTCHAR 54D8
ENCODING 21720
SWIDTH 720 0
DWIDTH 12 0
BBX 12 10 0 -1
BITMAP
0200
F4E0
9A00
95E0
9C40
9440
F440
0440
04C0
0000
ENDCHAR
STARTCHAR 54E1
ENCODING 21729
SWIDTH 720 0
DWIDTH 12 0
BBX 12 10 0 -1
BITMAP
3F80
2080
7FC0
4040
7FC0
4040
7FC0
3180
C060
0000
ENDCHAR
STARTCHAR 54E2
ENCODING 21730
SWIDTH 720 0
DWIDTH 12 0
BBX 12 10 0 -1
BITMAP
07C0
F100
97C0
9100
9FE0
9440
FFE0
0440
0840
0000
ENDCHAR
STARTCHAR 54E5
ENCODING 21733
SWIDTH 720 0
DWIDTH 12 0
BBX 12 10 0 -1
BITMAP
FFE0
2240
3E40
00C0
FFE0
3E40
2240
3E40
00C0
0000
ENDCHAR
STARTCHAR 54E6
ENCODING 21734
SWIDTH 720 0
DWIDTH 12 0
BBX 12 10 0 -1
BITMAP
0640
ED20
A500
BFE0
A500
A740
FC80
04A0
0D60
0000
ENDCHAR
STARTCHAR 54E8
ENCODING 21736
SWIDTH 720 0
DWIDTH 12 0
BBX 12 10 0 -1
BITMAP
0520
F340
97E0
9420
97E0
9420
F7E0
0420
0460
0000
ENDCHAR
STARTCHAR 54E9
ENCODING 21737
SWIDTH 720 0
DWIDTH 12 0
BBX 12 10 0 -1
BITMAP
07C0
F540
97C0
9540
97C0
9100
F7C0
0100
0FE0
0000
ENDCHAR
STARTCHAR 54ED
ENCODING 21741
SWIDTH 720 0
DWIDTH 12 0
BBX 12 10 0 -1
BITMAP
7BC0
4A40
7BC0
0480
0440
FFE0
0A00
1100
E0E0
0000
ENDCHAR
STARTCHAR 54EE
ENCODING 21742
SWIDTH 720 0
DWIDTH 12 0
BBX 12 10 0 -1
BITMAP
0100
F7A0
9140
9FE0
93C0
9480
FBE0
0080
0180
0000
ENDCHAR
STARTCHAR 54F2
ENCODING 21746
SWIDTH 720 0
DWIDTH 12 0
BBX 12 10 0 -1
BITMAP
27C0
F400
27E0
3480
E480
2880
7FC0
4040
7FC0
0000
ENDCHAR
STARTCHAR 54FA
ENCODING 21754
SWIDTH 720 0
DWIDTH 12 0
BBX 12 10 0 -1
BITMAP
0140
F7E0
9100
97E0
9520
97E0
F520
07E0
0560
0000
ENDCHAR
STARTCHAR 54FD
ENCODING 21757
SWIDTH 720 0
DWIDTH 12 0
BBX 12 10 0 -1
BITMAP
0FE0
F540
97C0
9540
97C0
9500
F300
0280
0C60
0000
ENDCHAR
STARTCHAR 5504
ENCODING 21764
SWIDTH 720 0
DWIDTH 12 0
BBX 12 10 0 -1
BITMAP
07C0
F440
97C0
9440
97C0
9440
F7C0
0280
0C60
0000
ENDCHAR
STARTCHAR 5506
ENCODING 21766
SWIDTH 720 0
DWIDTH 12 0
BBX 12 10 0 -1
BITMAP
0200
0460
F7A0
9280
9CE0
93C0
F640
0180
0E60
0000
ENDCHAR
STARTCHAR 5507
ENCODING 21767
SWIDTH 720 0
DWIDTH 12 0
BBX 12 10 0 -1
BITMAP
7FC0
4000
7FC0
5300
BCE0
0000
7FC0
4040
7FC0
0000
ENDCHAR
STARTCHAR 550F
ENCODING 21775
SWIDTH 720 0
DWIDTH 12 0
BBX 12 10 0 -1
BITMAP
0240
F180
9740
9FE0
9200
97E0
FD20
0560
0100
0000
ENDCHAR
STARTCHAR 5510
ENCODING 21776
SWIDTH 720 0
DWIDTH 12 0
BBX 12 10 0 -1
BITMAP
0400
7FE0
4200
5F80
42E0
7F80
5FC0
9040
9FC0
0000
ENDCHAR
STARTCHAR 5514
ENCODING 21780
SWIDTH 720 0
DWIDTH 12 0
BBX 12 10 0 -1
BITMAP
07C0
F100
97C0
9240
9FE0
9000
F7C0
0440
07C0
0000
ENDCHAR
STARTCHAR 5516
ENCODING 21782
SWIDTH 720 0
DWIDTH 12 0
BBX 12 10 0 -1
BITMAP
0FE0
F280
9FE0
9AA0
9AA0
9FE0
F280
0280
0FE0
0000
ENDCHAR
STARTCHAR 552E
ENCODING 21806
SWIDTH 720 0
DWIDTH 12 0
BBX 12 10 0 -1
BITMAP
2200
7FC0
C400
7FC0
4400
7FE0
3F80
2080
3F80
0000
ENDCHAR
STARTCHAR 552F
ENCODING 21807
SWIDTH 720 0
DWIDTH 12 0
BBX 12 10 0 -1
BITMAP
0240
F280
97E0
9C80
97C0
9480
F7C0
0480
07E0
0000
ENDCHAR
STARTCHAR 5531
ENCODING 21809
SWIDTH 720 0
DWIDTH 12 0
BBX 12 10 0 -1
BITMAP
07C0
F440
97C0
9440
9FE0
9820
FFE0
0820
0FE0
0000
ENDCHAR
STARTCHAR 5533
ENCODING 21811
SWIDTH 720 0
DWIDTH 12 0
BBX 12 10 0 -1
BITMAP
0FE0
E000
AFE0
A820
AFE0
A900
EFE0
1280
1460
0000
ENDCHAR
STARTCHAR 5538
ENCODING 21816
SWIDTH 720 0
DWIDTH 12 0
BBX 12 10 0 -1
BITMAP
0100
F280
97C0
9820
97C0
9040
F280
0A20
0BA0
0000
ENDCHAR
STARTCHAR 5539
ENCODING 21817
SWIDTH 720 0
DWIDTH 12 0
BBX 12 10 0 -1
BITMAP
0440
FEA0
A920
AE00
AAC0
AA20
F200
12C0
2620
0000
ENDCHAR
STARTCHAR 553E
ENCODING 21822
SWIDTH 720 0
DWIDTH 12 0
BBX 12 10 0 -1
BITMAP
07C0
F100
9FE0
9540
9FE0
9540
FFE0
0100
0FE0
0000
ENDCHAR
STARTCHAR 5540
ENCODING 21824
SWIDTH 720 0
DWIDTH 12 0
BBX 12 10 0 -1
BITMAP
0FE0
E900
AFC0
A900
AFE0
A900
F7C0
1100
2FE0
0000
ENDCHAR
STARTCHAR 5544
ENCODING 21828
SWIDTH 720 0
DWIDTH 12 0
BBX 12 10 0 -1
BITMAP
0FE0
F100
9E40
9380
9D80
F340
0520
1920
0300
0000
ENDCHAR
STARTCHAR 5545
ENCODING 21829
SWIDTH 720 0
DWIDTH 12 0
BBX 12 10 0 -1
BITMAP
0100
F1C0
9100
97C0
9440
97C0
F100
0FE0
0100
0000
ENDCHAR
STARTCHAR 5546
ENCODING 21830
SWIDTH 720 0
DWIDTH 12 0
BBX 12 10 0 -1
BITMAP
0400
FFE0
1100
FFE0
9120
A1E0
9F20
9120
9F60
0000
ENDCHAR
STARTCHAR 554C
ENCODING 21836
SWIDTH 720 0
DWIDTH 12 0
BBX 12 10 0 -1
BITMAP
0100
FFE0
9AA0
9280
94E0
9000
F7C0
0100
0FE0
0000
ENDCHAR
STARTCHAR 554F
ENCODING 21839
SWIDTH 720 0
DWIDTH 12 0
BBX 12 10 0 -1
BITMAP
FBE0
8A20
FBE0
8020
9F20
9120
9120
9F20
80E0
0000
ENDCHAR
STARTCHAR 5553
ENCODING 21843
SWIDTH 720 0
DWIDTH 12 0
BBX 12 10 0 -1
BITMAP
FA00
03E0
7A40
4D40
7880
4360
BF80
2080
3F80
0000
ENDCHAR
STARTCHAR 5556
ENCODING 21846
SWIDTH 720 0
DWIDTH 12 0
BBX 12 10 0 -1
BITMAP
0520
F540
9280
9C60
9100
9520
F540
0280
0C60
0000
ENDCHAR
STARTCHAR 5557
ENCODING 21847
SWIDTH 720 0
DWIDTH 12 0
BBX 12 10 0 -1
BITMAP
0400
E7C0
A840
A280
ACE0
A820
EEE0
0820
0FE0
0000
ENDCHAR
STARTCHAR 555C
ENCODING 21852
SWIDTH 720 0
DWIDTH 12 0
BBX 12 10 0 -1
BITMAP
0FC0
EB40
A480
AB40
BFE0
A240
ED80
06C0
1920
0000
ENDCHAR
STARTCHAR 555D
ENCODING 21853
SWIDTH 720 0
DWIDTH 12 0
BBX 12 10 0 -1
BITMAP
0200
ECE0
A4A0
BFA0
A6A0
EDE0
1480
2460
0400
0000
ENDCHAR
STARTCHAR 5563
ENCODING 21859
SWIDTH 720 0
DWIDTH 12 0
BBX 12 10 0 -1
BITMAP
1000
FEE0
A4A0
BFA0
A4A0
B6A0
F4E0
1780
3C80
0000
ENDCHAR
STARTCHAR 557B
ENCODING 21883
SWIDTH 720 0
DWIDTH 12 0
BBX 12 10 0 -1
BITMAP
0400
3F80
1100
FFE0
A4A0
0500
3F80
2080
3F80
0000
ENDCHAR
STARTCHAR 557C
ENCODING 21884
SWIDTH 720 0
DWIDTH 12 0
BBX 12 10 0 -1
BITMAP
0100
F7C0
9280
9FE0
9920
97C0
F540
05C0
0100
0000
ENDCHAR
STARTCHAR 557E
ENCODING 21886
SWIDTH 720 0
DWIDTH 12 0
BBX 12 10 0 -1
BITMAP
0280
FCA0
A5A0
BFC0
A480
AE80
F480
0540
0520
0000
ENDCHAR
STARTCHAR 5580
ENCODING 21888
SWIDTH 720 0
DWIDTH 12 0
BBX 12 10 0 -1
BITMAP
0100
FFE0
9BA0
9480
9300
94E0
FFC0
0440
07C0
0000
ENDCHAR
STARTCHAR 5583
ENCODING 21891
SWIDTH 720 0
DWIDTH 12 0
BBX 12 10 0 -1
BITMAP
0100
F7E0
9100
9FE0
9AA0
9BA0
F920
0BA0
0960
0000
ENDCHAR
STARTCHAR 5584
ENCODING 21892
SWIDTH 720 0
DWIDTH 12 0
BBX 12 10 0 -1
BITMAP
0A00
7FC0
0400
7FC0
1500
FFE0
3F80
2080
3F80
0000
ENDCHAR
STARTCHAR 5587
ENCODING 21895
SWIDTH 720 0
DWIDTH 12 0
BBX 12 10 0 -1
BITMAP
0420
EEA0
A4A0
BFA0
B5A0
BFA0
EEA0
1520
2460
0000
ENDCHAR
STARTCHAR 5589
ENCODING 21897
SWIDTH 720 0
DWIDTH 12 0
BBX 12 10 0 -1
BITMAP
05C0
E440
ABE0
BA00
ABE0
AC80
EBE0
0940
0A20
0000
ENDCHAR
STARTCHAR 558A
ENCODING 21898
SWIDTH 720 0
DWIDTH 12 0
BBX 12 10 0 -1
BITMAP
00A0
EFE0
A880
AF80
AFA0
A960
EF40
10A0
1120
0000
ENDCHAR
STARTCHAR 558B
ENCODING 21899
SWIDTH 720 0
DWIDTH 12 0
BBX 12 10 0 -1
BITMAP
0540
FFE0
9540
97E0
9100
9FE0
F380
0540
0920
0000
ENDCHAR
STARTCHAR 5598
ENCODING 21912
SWIDTH 720 0
DWIDTH 12 0
BBX 12 10 0 -1
BITMAP
0100
F520
97E0
9000
9FE0
9200
FFE0
0AA0
0AA0
0000
ENDCHAR
STARTCHAR 5599
ENCODING 21913
SWIDTH 720 0
DWIDTH 12 0
BBX 12 10 0 -1
BITMAP
03C0
F240
9780
9080
9FE0
9320
FDC0
02A0
0DA0
0000
ENDCHAR
STARTCHAR 559A
ENCODING 21914
SWIDTH 720 0
DWIDTH 12 0
BBX 12 10 0 -1
BITMAP
03C0
F480
9FE0
9AA0
9CE0
9920
FFE0
0280
0C60
0000
ENDCHAR
STARTCHAR 559C
ENCODING 21916
SWIDTH 720 0
DWIDTH 12 0
BBX 12 10 0 -1
BITMAP
0400
FFE0
3F80
2080
3F80
1100
FFE0
4040
7FC0
0000
ENDCHAR
STARTCHAR 559D
ENCODING 21917
SWIDTH 720 0
DWIDTH 12 0
BBX 12 10 0 -1
BITMAP
07C0
F440
97C0
9440
93E0
9620
FBA0
0220
0340
0000
ENDCHAR
STARTCHAR 559E
ENCODING 21918
SWIDTH 720 0
DWIDTH 12 0
BBX 12 10 0 -1
BITMAP
0400
EEE0
AAA0
AEA0
A8A0
AEA0
E8E0
0E80
0880
0000
ENDCHAR
STARTCHAR 559F
ENCODING 21919
SWIDTH 720 0
DWIDTH 12 0
BBX 12 10 0 -1
BITMAP
0FE0
F920
9FE0
9920
9FE0
9440
F7C0
0440
04C0
0000
ENDCHAR
STARTCHAR 55A7
ENCODING 21927
SWIDTH 720 0
DWIDTH 12 0
BBX 12 10 0 -1
BITMAP
0100
0FE0
FBA0
9000
97C0
9440
F7C0
0000
0FE0
0000
ENDCHAR
STARTCHAR 55A8
ENCODING 21928
SWIDTH 720 0
DWIDTH 12 0
BBX 12 10 0 -1
BITMAP
0100
FFE0
97C0
9440
9FE0
9AA0
F280
04A0
08E0
0000
ENDCHAR
STARTCHAR 55A9
ENCODING 21929
SWIDTH 720 0
DWIDTH 12 0
BBX 12 10 0 -1
BITMAP
0700
F280
97C0
9820
9EA0
9B40
FF40
0AA0
0AA0
0000
ENDCHAR
STARTCHAR 55AA
ENCODING 21930
SWIDTH 720 0
DWIDTH 12 0
BBX 12 10 0 -1
BITMAP
0400
FFE0
5540
75C0
0400
FFE0
2480
2300
7CE0
0000
ENDCHAR
STARTCHAR 55AB
ENCODING 21931
SWIDTH 720 0
DWIDTH 12 0
BBX 12 10 0 -1
BITMAP
05E0
EEA0
A4A0
BEA0
A100
BFE0
E100
0280
1C60
0000
ENDCHAR
STARTCHAR 55AC
ENCODING 21932
SWIDTH 720 0
DWIDTH 12 0
BBX 12 10 0 -1
BITMAP
0380
3C00
FFE0
3180
DF60
7FC0
5140
5F40
40C0
0000
ENDCHAR
STARTCHAR 55AE
ENCODING 21934
SWIDTH 720 0
DWIDTH 12 0
BBX 12 10 0 -1
BITMAP
7BC0
4A40
7BC0
3F80
2480
3F80
2480
FFE0
0400
0000
ENDCHAR
STARTCHAR 55B0
ENCODING 21936
SWIDTH 720 0
DWIDTH 12 0
BBX 12 10 0 -1
BITMAP
0100
F280
9540
9FE0
9440
97C0
F540
0580
0E60
0000
ENDCHAR
STARTCHAR 55B6
ENCODING 21942
SWIDTH 720 0
DWIDTH 12 0
BBX 12 10 0 -1
BITMAP
2480
FFE0
BFA0
2080
3F80
0800
7FC0
4040
7FC0
0000
ENDCHAR
STARTCHAR 55C4
ENCODING 21956
SWIDTH 720 0
DWIDTH 12 0
BBX 12 10 0 -1
BITMAP
0FE0
F100
97E0
97E0
9420
97E0
F240
0580
0E60
0000
ENDCHAR
STARTCHAR 55C5
ENCODING 21957
SWIDTH 720 0
DWIDTH 12 0
BBX 12 10 0 -1
BITMAP
0100
F7C0
9440
97C0
97C0
9120
FFE0
0280
0C60
0000
ENDCHAR
STARTCHAR 55C7
ENCODING 21959
SWIDTH 720 0
DWIDTH 12 0
BBX 12 10 0 -1
BITMAP
0400
7FC0
2480
2480
5540
FFE0
5140
5F40
7FC0
0000
ENDCHAR
STARTCHAR 55D4
ENCODING 21972
SWIDTH 720 0
DWIDTH 12 0
BBX 12 10 0 -1
BITMAP
0580
E620
A3E0
AA40
ABC0
AA40
EFE0
0280
0C60
0000
ENDCHAR
STARTCHAR 55DA
ENCODING 21978
SWIDTH 720 0
DWIDTH 12 0
BBX 12 10 0 -1
BITMAP
0100
F7C0
9440
9440
97C0
97E0
F020
0520
0540
0000
ENDCHAR
STARTCHAR 55DC
ENCODING 21980
SWIDTH 720 0
DWIDTH 12 0
BBX 12 10 0 -1
BITMAP
0100
F780
9140
97C0
9320
9CE0
F3C0
0240
03C0
0000
ENDCHAR
STARTCHAR 55DF
ENCODING 21983
SWIDTH 720 0
DWIDTH 12 0
BBX 12 10 0 -1
BITMAP
0280
FFE0
97C0
9100
9FE0
9200
F7E0
1880
07E0
0000
ENDCHAR
STARTCHAR 55E3
ENCODING 21987
SWIDTH 720 0
DWIDTH 12 0
BBX 12 10 0 -1
BITMAP
7BE0
4820
7BA0
F820
ABA0
FAA0
ABA0
A820
9860
0000
ENDCHAR
STARTCHAR 55E4
ENCODING 21988
SWIDTH 720 0
DWIDTH 12 0
BBX 12 10 0 -1
BITMAP
0540
F540
97C0
9200
9FE0
9540
F7C0
0160
0FA0
0000
ENDCHAR
STARTCHAR 55F7
ENCODING 22007
SWIDTH 720 0
DWIDTH 12 0
BBX 12 10 0 -1
BITMAP
0480
EEE0
A4A0
BFA0
A8A0
AE40
EA40
0AA0
1720
0000
ENDCHAR
STARTCHAR 55F9
ENCODING 22009
SWIDTH 720 0
DWIDTH 12 0
BBX 12 10 0 -1
BITMAP
1080
EBE0
B3E0
AAA0
BBE0
A880
EBE0
0C80
13E0
0000
ENDCHAR
STARTCHAR 55FD
ENCODING 22013
SWIDTH 720 0
DWIDTH 12 0
BBX 12 10 0 -1
BITMAP
0480
EF80
A4E0
BF60
B540
BF40
ECA0
16A0
2520
0000
ENDCHAR
STARTCHAR 55FE
ENCODING 22014
SWIDTH 720 0
DWIDTH 12 0
BBX 12 10 0 -1
BITMAP
0500
FFE0
A980
AEE0
AB40
ABE0
EA40
12A0
16A0
0000
ENDCHAR
STARTCHAR 5606
ENCODING 22022
SWIDTH 720 0
DWIDTH 12 0
BBX 12 10 0 -1
BITMAP
0280
FFE0
97C0
9540
97C0
9100
F7E0
0280
0C60
0000
ENDCHAR
STARTCHAR 5609
ENCODING 22025
SWIDTH 720 0
DWIDTH 12 0
BBX 12 10 0 -1
BITMAP
0400
FFE0
3F80
2080
3F80
FFE0
23C0
FA40
4BC0
0000
ENDCHAR
STARTCHAR 5614
ENCODING 22036
SWIDTH 720 0
DWIDTH 12 0
BBX 12 10 0 -1
BITMAP
0FE0
EBC0
AA40
ABC0
AFE0
ADA0
EFE0
0800
0FE0
0000
ENDCHAR
STARTCHAR 5616
ENCODING 22038
SWIDTH 720 0
DWIDTH 12 0
BBX 12 10 0 -1
BITMAP
0100
F7C0
9100
9FE0
9440
97C0
F440
07C0
0C60
0000
ENDCHAR
STARTCHAR 5617
ENCODING 22039
SWIDTH 720 0
DWIDTH 12 0
BBX 12 10 0 -1
BITMAP
2480
FFE0
BFA0
6080
7F00
4040
3FC0
2080
3F80
0000
ENDCHAR
STARTCHAR 5618
ENCODING 22040
SWIDTH 720 0
DWIDTH 12 0
BBX 12 10 0 -1
BITMAP
0200
E380
AFE0
ABA0
AE00
E9C0
1AA0
16C0
2FE0
0000
ENDCHAR
STARTCHAR 561B
ENCODING 22043
SWIDTH 720 0
DWIDTH 12 0
BBX 12 10 0 -1
BITMAP
0100
EFE0
AA80
AFE0
AA80
AEC0
EEC0
0AE0
1280
0000
ENDCHAR
STARTCHAR 5629
ENCODING 22057
SWIDTH 720 0
DWIDTH 12 0
BBX 12 10 0 -1
BITMAP
0280
EFE0
A540
AFE0
A540
EFE0
0100
1FE0
0100
0000
ENDCHAR
STARTCHAR 562F
ENCODING 22063
SWIDTH 720 0
DWIDTH 12 0
BBX 12 10 0 -1
BITMAP
0100
F7C0
9160
97C0
9AA0
9EE0
F820
0EE0
12A0
0000
ENDCHAR
STARTCHAR 5631
ENCODING 22065
SWIDTH 720 0
DWIDTH 12 0
BBX 12 10 0 -1
BITMAP
0FE0
E820
AFE0
AB80
AFC0
AD40
FFE0
19A0
2A60
0000
ENDCHAR
STARTCHAR 5632
ENCODING 22066
SWIDTH 720 0
DWIDTH 12 0
BBX 12 10 0 -1
BITMAP
09E0
FF20
A920
BFE0
B320
BFE0
E920
3F20
0A60
0000
ENDCHAR
STARTCHAR 5634
ENCODING 22068
SWIDTH 720 0
DWIDTH 12 0
BBX 12 10 0 -1
BITMAP
0480
F6C0
B4A0
BEE0
A380
A7C0
ED40
07C0
0440
0000
ENDCHAR
STARTCHAR 5636
ENCODING 22070
SWIDTH 720 0
DWIDTH 12 0
BBX 12 10 0 -1
BITMAP
0A20
EAC0
BF80
AAE0
AEA0
AAA0
FFA0
0AA0
1120
0000
ENDCHAR
STARTCHAR 5638
ENCODING 22072
SWIDTH 720 0
DWIDTH 12 0
BBX 12 10 0 -1
BITMAP
0400
EFE0
B540
A7E0
A540
AFE0
E000
0AA0
0AA0
0000
ENDCHAR
STARTCHAR 5642
ENCODING 22082
SWIDTH 720 0
DWIDTH 12 0
BBX 12 10 0 -1
BITMAP
0240
FFE0
95A0
96E0
97E0
F040
0FE0
0440
02C0
0000
ENDCHAR
STARTCHAR 564C
ENCODING 22092
SWIDTH 720 0
DWIDTH 12 0
BBX 12 10 0 -1
BITMAP
0280
EFE0
A920
AFE0
A920
AFE0
E7C0
0440
07C0
0000
ENDCHAR
STARTCHAR 564E
ENCODING 22094
SWIDTH 720 0
DWIDTH 12 0
BBX 12 10 0 -1
BITMAP
0100
F7C0
9100
9FE0
9BA0
9440
F7C0
0280
0FE0
0000
ENDCHAR
STARTCHAR 5650
ENCODING 22096
SWIDTH 720 0
DWIDTH 12 0
BBX 12 10 0 -1
BITMAP
7BC0
4A40
7BC0
3F80
0400
FFE0
7BC0
4A40
7BC0
0000
ENDCHAR
STARTCHAR 565B
ENCODING 22107
SWIDTH 720 0
DWIDTH 12 0
BBX 12 10 0 -1
BITMAP
0100
05C0
F500
9FE0
9AA0
9FE0
9BA0
FD60
0FE0
0000
ENDCHAR
STARTCHAR 5664
ENCODING 22116
SWIDTH 720 0
DWIDTH 12 0
BBX 12 10 0 -1
BITMAP
0440
FFE0
96C0
9D60
9000
9FE0
F100
0540
0B20
0000
ENDCHAR
STARTCHAR 5668
ENCODING 22120
SWIDTH 720 0
DWIDTH 12 0
BBX 12 10 0 -1
BITMAP
7BC0
4A40
75C0
FFE0
0A00
3180
FBE0
4A40
7BC0
0000
ENDCHAR
STARTCHAR 566A
ENCODING 22122
SWIDTH 720 0
DWIDTH 12 0
BBX 12 10 0 -1
BITMAP
07C0
F440
9FE0
9AA0
9EE0
9100
FFE0
0380
0D60
0000
ENDCHAR
STARTCHAR 566B
ENCODING 22123
SWIDTH 720 0
DWIDTH 12 0
BBX 12 10 0 -1
BITMAP
0100
EFC0
A480
AFC0
A840
AFC0
E280
0A20
13A0
0000
ENDCHAR
STARTCHAR 566C
ENCODING 22124
SWIDTH 720 0
DWIDTH 12 0
BBX 12 10 0 -1
BITMAP
0880
EEE0
B540
AFE0
A540
A540
EBA0
0100
1FE0
0000
ENDCHAR
STARTCHAR 5674
ENCODING 22132
SWIDTH 720 0
DWIDTH 12 0
BBX 12 10 0 -1
BITMAP
0100
FFE0
9540
9FE0
9440
97C0
F440
07C0
0C60
0000
ENDCHAR
STARTCHAR 5678
ENCODING 22136
SWIDTH 720 0
DWIDTH 12 0
BBX 12 10 0 -1
BITMAP
05E0
E480
BFE0
A520
B7E0
BF20
A5E0
E6C0
0120
0000
ENDCHAR
STARTCHAR 567A
ENCODING 22138
SWIDTH 720 0
DWIDTH 12 0
BBX 12 10 0 -1
BITMAP
0420
EFC0
AB00
BFE0
A540
BF40
ED40
1540
1640
0000
ENDCHAR
STARTCHAR 5680
ENCODING 22144
SWIDTH 720 0
DWIDTH 12 0
BBX 12 10 0 -1
BITMAP
0100
EFE0
AA20
A5C0
A7E0
A540
EFE0
0100
0300
0000
ENDCHAR
STARTCHAR 5686
ENCODING 22150
SWIDTH 720 0
DWIDTH 12 0
BBX 12 10 0 -1
BITMAP
0440
EFE0
A100
AFE0
A280
AFE0
EAA0
0BA0
0860
0000
ENDCHAR
STARTCHAR 5687
ENCODING 22151
SWIDTH 720 0
DWIDTH 12 0
BBX 12 10 0 -1
BITMAP
0880
1DC0
E880
BFE0
B540
B760
F760
1540
2540
0000
ENDCHAR
STARTCHAR 568A
ENCODING 22154
SWIDTH 720 0
DWIDTH 12 0
BBX 12 10 0 -1
BITMAP
0100
F7C0
9440
9FE0
9920
9FE0
F280
0FE0
0480
0000
ENDCHAR
STARTCHAR 568F
ENCODING 22159
SWIDTH 720 0
DWIDTH 12 0
BBX 12 10 0 -1
BITMAP
0100
E7C0
BFE0
B560
A7C0
AFE0
E940
0900
17E0
0000
ENDCHAR
STARTCHAR 5694
ENCODING 22164
SWIDTH 720 0
DWIDTH 12 0
BBX 12 10 0 -1
BITMAP
0100
E7C0
BFE0
B560
A7C0
A260
EFA0
0900
17E0
0000
ENDCHAR
STARTCHAR 56A0
ENCODING 22176
SWIDTH 720 0
DWIDTH 12 0
BBX 12 10 0 -1
BITMAP
0B20
F5A0
BDA0
A4A0
AAA0
BF20
E420
0F20
1C60
0000
ENDCHAR
STARTCHAR 56A2
ENCODING 22178
SWIDTH 720 0
DWIDTH 12 0
BBX 12 10 0 -1
BITMAP
0400
3F80
FFE0
A0A0
7FC0
1100
FFE0
3300
DCE0
0000
ENDCHAR
STARTCHAR 56A5
ENCODING 22181
SWIDTH 720 0
DWIDTH 12 0
BBX 12 10 0 -1
BITMAP
0280
FFE0
9440
9FE0
96C0
9BE0
F000
0AA0
0AA0
0000
ENDCHAR
STARTCHAR 56AE
ENCODING 22190
SWIDTH 720 0
DWIDTH 12 0
BBX 12 10 0 -1
BITMAP
6EE0
88A0
6EC0
88A0
EEA0
4480
FFE0
9120
9F60
0000
ENDCHAR
STARTCHAR 56B4
ENCODING 22196
SWIDTH 720 0
DWIDTH 12 0
BBX 12 10 0 -1
BITMAP
7BC0
4A40
FFE0
9100
FDE0
BF40
A480
FD40
8620
0000
ENDCHAR
STARTCHAR 56B6
ENCODING 22198
SWIDTH 720 0
DWIDTH 12 0
BBX 12 10 0 -1
BITMAP
0EE0
EAA0
AEE0
A6C0
A920
BFE0
E480
0700
1CE0
0000
ENDCHAR
STARTCHAR 56BC
ENCODING 22204
SWIDTH 720 0
DWIDTH 12 0
BBX 12 10 0 -1
BITMAP
0FE0
E540
AFE0
AAA0
AFE0
AA20
EEE0
0B20
0D60
0000
ENDCHAR
STARTCHAR 56C0
ENCODING 22208
SWIDTH 720 0
DWIDTH 12 0
BBX 12 10 0 -1
BITMAP
0880
FFE0
ABE0
BEA0
BBE0
BE40
EBE0
1D40
08C0
0000
ENDCHAR
STARTCHAR 56C1
ENCODING 22209
SWIDTH 720 0
DWIDTH 12 0
BBX 12 10 0 -1
BITMAP
0FC0
E480
AFC0
BFE0
AB40
AFC0
EB40
1FE0
0240
0000
ENDCHAR
STARTCHAR 56C2
ENCODING 22210
SWIDTH 720 0
DWIDTH 12 0
BBX 12 10 0 -1
BITMAP
7BC0
4A40
FFE0
0800
3F80
2080
7FC0
CA60
7BC0
0000
ENDCHAR
STARTCHAR 56C3
ENCODING 22211
SWIDTH 720 0
DWIDTH 12 0
BBX 12 10 0 -1
BITMAP
0480
FEA0
ABE0
B540
A5E0
BF40
EFE0
1540
25E0
0000
ENDCHAR
STARTCHAR 56C8
ENCODING 22216
SWIDTH 720 0
DWIDTH 12 0
BBX 12 10 0 -1
BITMAP
0280
EFE0
A480
AFC0
A4C0
AF60
FFE0
04C0
1F20
0000
ENDCHAR
STARTCHAR 56CE
ENCODING 22222
SWIDTH 720 0
DWIDTH 12 0
BBX 12 10 0 -1
BITMAP
1D40
F620
BFE0
B6A0
BFE0
B540
FDC0
0940
15C0
0000
ENDCHAR
STARTCHAR 56D1
ENCODING 22225
SWIDTH 720 0
DWIDTH 12 0
BBX 12 10 0 -1
BITMAP
1FE0
F020
BFE0
B7C0
B540
BFE0
FAA0
17A0
2CA0
0000
ENDCHAR
STARTCHAR 56D3
ENCODING 22227
SWIDTH 720 0
DWIDTH 12 0
BBX 12 10 0 -1
BITMAP
05E0
EEA0
A4A0
BF40
A5C0
BFE0
EAA0
0D60
0FE0
0000
ENDCHAR
STARTCHAR 56D7
ENCODING 22231
SWIDTH 720 0
DWIDTH 12 0
BBX 12 10 0 -1
BITMAP
FFE0
8020
8020
8020
8020
8020
8020
8020
FFE0
0000
ENDCHAR
STARTCHAR 56D8
ENCODING 22232
SWIDTH 720 0
DWIDTH 12 0
BBX 12 10 0 -1
BITMAP
FFE0
8020
9F20
9120
9F20
90A0
8FA0
8020
80E0
0000
ENDCHAR
STARTCHAR 56DA
ENCODING 22234
SWIDTH 720 0
DWIDTH 12 0
BBX 12 10 0 -1
BITMAP
FFE0
8420
8420
8420
8A20
9120
E0E0
8020
FFE0
0000
ENDCHAR
STARTCHAR 56DB
ENCODING 22235
SWIDTH 720 0
DWIDTH 12 0
BBX 12 10 0 -1
BITMAP
0000
FFE0
9220
9220
A260
C1E0
8020
FFE0
0000
0000
ENDCHAR
STARTCHAR 56DE
ENCODING 22238
SWIDTH 720 0
DWIDTH 12 0
BBX 12 10 0 -1
BITMAP
7FC0
4040
5F40
5140
5140
5140
5F40
4040
7FC0
0000
ENDCHAR
STARTCHAR 56E0
ENCODING 22240
SWIDTH 720 0
DWIDTH 12 0
BBX 12 10 0 -1
BITMAP
FFE0
8020
8420
BFA0
8420
8A20
B1A0
8020
FFE0
0000
ENDCHAR
STARTCHAR 56E3
ENCODING 22243
SWIDTH 720 0
DWIDTH 12 0
BBX 12 10 0 -1
BITMAP
FFE0
8020
8120
BFE0
8120
9120
8920
8320
FFE0
0000
ENDCHAR
STARTCHAR 56EE
ENCODING 22254
SWIDTH 720 0
DWIDTH 12 0
BBX 12 10 0 -1
BITMAP
FFE0
8A20
9220
B3A0
D220
9260
91E0
8020
FFE0
0000
ENDCHAR
STARTCHAR 56F0
ENCODING 22256
SWIDTH 720 0
DWIDTH 12 0
BBX 12 10 0 -1
BITMAP
FFE0
8020
8420
BFA0
8E20
9520
E4E0
8020
FFE0
0000
ENDCHAR
STARTCHAR 56F2
ENCODING 22258
SWIDTH 720 0
DWIDTH 12 0
BBX 12 10 0 -1
BITMAP
FFE0
8020
8920
BFA0
8920
BFA0
8920
9120
FFE0
0000
ENDCHAR
STARTCHAR 56F3
ENCODING 22259
SWIDTH 720 0
DWIDTH 12 0
BBX 12 10 0 -1
BITMAP
FFE0
C8A0
A4A0
8120
9920
8620
8D20
B0A0
FFE0
0000
ENDCHAR
STARTCHAR 56F9
ENCODING 22265
SWIDTH 720 0
DWIDTH 12 0
BBX 12 10 0 -1
BITMAP
FFE0
8420
9B20
E0E0
BF20
8920
8B20
8820
FFE0
0000
ENDCHAR
STARTCHAR 56FA
ENCODING 22266
SWIDTH 720 0
DWIDTH 12 0
BBX 12 10 0 -1
BITMAP
FFE0
8420
BFA0
8420
9F20
9120
9F20
8020
FFE0
0000
ENDCHAR
STARTCHAR 56FD
ENCODING 22269
SWIDTH 720 0
DWIDTH 12 0
BBX 12 10 0 -1
BITMAP
FFE0
8020
BFA0
8420
9F20
84A0
BFA0
8020
FFE0
0000
ENDCHAR
STARTCHAR 56FF
ENCODING 22271
SWIDTH 720 0
DWIDTH 12 0
BBX 12 10 0 -1
BITMAP
FFE0
8420
BFA0
8F20
9920
AF20
8920
8B20
FFE0
0000
ENDCHAR
STARTCHAR 5700
ENCODING 22272
SWIDTH 720 0
DWIDTH 12 0
BBX 12 10 0 -1
BITMAP
FFE0
8A20
B3A0
8420
BFA0
8720
8920
9320
FFE0
0000
ENDCHAR
STARTCHAR 5703
ENCODING 22275
SWIDTH 720 0
DWIDTH 12 0
BBX 12 10 0 -1
BITMAP
FFE0
8520
BFA0
8420
BFA0
A4A0
BFA0
A5A0
FFE0
0000
ENDCHAR
STARTCHAR 5704
ENCODING 22276
SWIDTH 720 0
DWIDTH 12 0
BBX 12 10 0 -1
BITMAP
FFE0
9F20
8420
BF20
8920
FFE0
9120
9F20
FFE0
0000
ENDCHAR
STARTCHAR 5708
ENCODING 22280
SWIDTH 720 0
DWIDTH 12 0
BBX 12 10 0 -1
BITMAP
FFE0
A8A0
DF60
9220
FFE0
BEA0
D160
9F20
FFE0
0000
ENDCHAR
STARTCHAR 5709
ENCODING 22281
SWIDTH 720 0
DWIDTH 12 0
BBX 12 10 0 -1
BITMAP
FFE0
8420
BFA0
9120
FFE0
8420
BFA0
8420
FFE0
0000
ENDCHAR
STARTCHAR 570B
ENCODING 22283
SWIDTH 720 0
DWIDTH 12 0
BBX 12 10 0 -1
BITMAP
FFE0
82A0
FFE0
AAA0
B920
8120
FAE0
8460
FFE0
0000
ENDCHAR
STARTCHAR 570D
ENCODING 22285
SWIDTH 720 0
DWIDTH 12 0
BBX 12 10 0 -1
BITMAP
FFE0
9F20
8920
FFE0
BFA0
9120
FFE0
8120
FFE0
0000
ENDCHAR
STARTCHAR 570F
ENCODING 22287
SWIDTH 720 0
DWIDTH 12 0
BBX 12 10 0 -1
BITMAP
FFE0
9520
BFA0
8A20
FFE0
BEA0
D160
8F20
FFE0
0000
ENDCHAR
STARTCHAR 5712
ENCODING 22290
SWIDTH 720 0
DWIDTH 12 0
BBX 12 10 0 -1
BITMAP
FFE0
8420
9F20
BFA0
9120
9FA0
9520
A4E0
FFE0
0000
ENDCHAR
STARTCHAR 5713
ENCODING 22291
SWIDTH 720 0
DWIDTH 12 0
BBX 12 10 0 -1
BITMAP
FFE0
8A20
9F20
9120
9F20
9120
9F20
B1A0
FFE0
0000
ENDCHAR
STARTCHAR 5716
ENCODING 22294
SWIDTH 720 0
DWIDTH 12 0
BBX 12 10 0 -1
BITMAP
FFE0
9F20
9120
9F20
FFE0
AAA0
AEA0
BFA0
FFE0
0000
ENDCHAR
STARTCHAR 5718
ENCODING 22296
SWIDTH 720 0
DWIDTH 12 0
BBX 12 10 0 -1
BITMAP
FFE0
8420
FFE0
9520
9FA0
FF60
9120
8B20
FFE0
0000
ENDCHAR
STARTCHAR 571C
ENCODING 22300
SWIDTH 720 0
DWIDTH 12 0
BBX 12 10 0 -1
BITMAP
FFE0
BFA0
AAA0
FFE0
9120
9FA0
B320
9CE0
FFE0
0000
ENDCHAR
STARTCHAR 571F
ENCODING 22303
SWIDTH 720 0
DWIDTH 12 0
BBX 12 10 0 -1
BITMAP
0400
0400
0400
7FC0
0400
0400
0400
0400
FFE0
0000
ENDCHAR
STARTCHAR 5726
ENCODING 22310
SWIDTH 720 0
DWIDTH 12 0
BBX 12 10 0 -1
BITMAP
2300
2100
F900
2100
2100
3A80
C280
0440
0820
0000
ENDCHAR
STARTCHAR 5727
ENCODING 22311
SWIDTH 720 0
DWIDTH 12 0
BBX 12 10 0 -1
BITMAP
7FE0
4200
4200
4200
5FC0
4200
4200
8200
BFE0
0000
ENDCHAR
STARTCHAR 5728
ENCODING 22312
SWIDTH 720 0
DWIDTH 12 0
BBX 12 10 0 -1
BITMAP
0400
FFE0
0800
1100
2100
E7C0
2100
2100
2FE0
0000
ENDCHAR
STARTCHAR 572D
ENCODING 22317
SWIDTH 720 0
DWIDTH 12 0
BBX 12 10 0 -1
BITMAP
0400
7FC0
0400
FFE0
0400
7FC0
0400
0400
FFE0
0000
ENDCHAR
STARTCHAR 5730
ENCODING 22320
SWIDTH 720 0
DWIDTH 12 0
BBX 12 10 0 -1
BITMAP
2100
2500
F5E0
2720
2D20
2560
3500
C420
03E0
0000
ENDCHAR
STARTCHAR 5737
ENCODING 22327
SWIDTH 720 0
DWIDTH 12 0
BBX 12 10 0 -1
BITMAP
2FE0
2100
F100
21C0
2120
3100
C100
0100
0100
0000
ENDCHAR
STARTCHAR 5738
ENCODING 22328
SWIDTH 720 0
DWIDTH 12 0
BBX 12 10 0 -1
BITMAP
2100
2100
F520
2520
2520
3520
C520
0520
07E0
0000
ENDCHAR
STARTCHAR 573B
ENCODING 22331
SWIDTH 720 0
DWIDTH 12 0
BBX 12 10 0 -1
BITMAP
2040
2780
F400
27E0
2480
3480
C480
0880
0880
0000
ENDCHAR
STARTCHAR 5740
ENCODING 22336
SWIDTH 720 0
DWIDTH 12 0
BBX 12 10 0 -1
BITMAP
2100
2100
F100
25C0
2500
3500
C500
0500
1FE0
0000
ENDCHAR
STARTCHAR 5742
ENCODING 22338
SWIDTH 720 0
DWIDTH 12 0
BBX 12 10 0 -1
BITMAP
27E0
2400
F400
27E0
2620
3540
C880
0940
1620
0000
ENDCHAR
STARTCHAR 5747
ENCODING 22343
SWIDTH 720 0
DWIDTH 12 0
BBX 12 10 0 -1
BITMAP
2400
27E0
F420
2BA0
2020
31A0
C620
0020
00C0
0000
ENDCHAR
STARTCHAR 574A
ENCODING 22346
SWIDTH 720 0
DWIDTH 12 0
BBX 12 10 0 -1
BITMAP
2100
2100
F7E0
2100
21E0
3A20
C220
0420
08C0
0000
ENDCHAR
STARTCHAR 574E
ENCODING 22350
SWIDTH 720 0
DWIDTH 12 0
BBX 12 10 0 -1
BITMAP
2400
2400
F7E0
2920
2140
3280
C280
0440
1820
0000
ENDCHAR
STARTCHAR 574F
ENCODING 22351
SWIDTH 720 0
DWIDTH 12 0
BBX 12 10 0 -1
BITMAP
2FE0
2080
F100
2380
2D40
3120
C100
0100
0100
0000
ENDCHAR
STARTCHAR 5750
ENCODING 22352
SWIDTH 720 0
DWIDTH 12 0
BBX 12 10 0 -1
BITMAP
2480
2480
2480
5540
8E20
0400
7FC0
0400
FFE0
0000
ENDCHAR
STARTCHAR 5751
ENCODING 22353
SWIDTH 720 0
DWIDTH 12 0
BBX 12 10 0 -1
BITMAP
2100
2FC0
F000
2780
2480
3480
C480
04A0
08E0
0000
ENDCHAR
STARTCHAR 5761
ENCODING 22369
SWIDTH 720 0
DWIDTH 12 0
BBX 12 10 0 -1
BITMAP
2100
2FE0
F920
2900
2FC0
3A40
CA80
0980
1660
0000
ENDCHAR
STARTCHAR 5764
ENCODING 22372
SWIDTH 720 0
DWIDTH 12 0
BBX 12 10 0 -1
BITMAP
2100
2FE0
F920
2FE0
2920
2FE0
3100
C100
0100
0000
ENDCHAR
STARTCHAR 5766
ENCODING 22374
SWIDTH 720 0
DWIDTH 12 0
BBX 12 10 0 -1
BITMAP
27C0
2440
F440
27C0
2440
2440
37C0
C000
0FE0
0000
ENDCHAR
STARTCHAR 5769
ENCODING 22377
SWIDTH 720 0
DWIDTH 12 0
BBX 12 10 0 -1
BITMAP
2440
2440
FFE0
2440
2440
37C0
C440
0440
07C0
0000
ENDCHAR
STARTCHAR 576A
ENCODING 22378
SWIDTH 720 0
DWIDTH 12 0
BBX 12 10 0 -1
BITMAP
2FE0
2100
F540
2540
2100
2FE0
3100
C100
0100
0000
ENDCHAR
STARTCHAR 577F
ENCODING 22399
SWIDTH 720 0
DWIDTH 12 0
BBX 12 10 0 -1
BITMAP
4440
4440
EBE0
5840
4A40
6940
C840
0840
08C0
0000
ENDCHAR
STARTCHAR 5782
ENCODING 22402
SWIDTH 720 0
DWIDTH 12 0
BBX 12 10 0 -1
BITMAP
3F80
0400
7FC0
2480
FFE0
2480
7FC0
0400
FFE0
0000
ENDCHAR
STARTCHAR 5788
ENCODING 22408
SWIDTH 720 0
DWIDTH 12 0
BBX 12 10 0 -1
BITMAP
1280
2240
6FC0
A100
20A0
2460
1F80
0400
FFE0
0000
ENDCHAR
STARTCHAR 5789
ENCODING 22409
SWIDTH 720 0
DWIDTH 12 0
BBX 12 10 0 -1
BITMAP
2400
27C0
F840
2740
2540
3740
C480
0420
03E0
0000
ENDCHAR
STARTCHAR 578B
ENCODING 22411
SWIDTH 720 0
DWIDTH 12 0
BBX 12 10 0 -1
BITMAP
FC20
4920
FD20
4920
8860
0400
7FC0
0400
FFE0
0000
ENDCHAR
STARTCHAR 5793
ENCODING 22419
SWIDTH 720 0
DWIDTH 12 0
BBX 12 10 0 -1
BITMAP
2100
2FE0
F200
2680
2100
3640
C080
0340
0C20
0000
ENDCHAR
STARTCHAR 57A0
ENCODING 22432
SWIDTH 720 0
DWIDTH 12 0
BBX 12 10 0 -1
BITMAP
27C0
2440
F7C0
2440
27C0
3620
C540
0580
0E60
0000
ENDCHAR
STARTCHAR 57A2
ENCODING 22434
SWIDTH 720 0
DWIDTH 12 0
BBX 12 10 0 -1
BITMAP
20C0
2700
F400
27E0
2400
3BE0
CA20
0A20
13E0
0000
ENDCHAR
STARTCHAR 57A3
ENCODING 22435
SWIDTH 720 0
DWIDTH 12 0
BBX 12 10 0 -1
BITMAP
2FE0
2000
F7C0
2440
27C0
3440
C7C0
0000
0FE0
0000
ENDCHAR
STARTCHAR 57A4
ENCODING 22436
SWIDTH 720 0
DWIDTH 12 0
BBX 12 10 0 -1
BITMAP
27C0
2100
F240
2240
27A0
3100
C7C0
0100
0FE0
0000
ENDCHAR
STARTCHAR 57AA
ENCODING 22442
SWIDTH 720 0
DWIDTH 12 0
BBX 12 10 0 -1
BITMAP
2440
2280
F7E0
2280
2280
3FE0
C480
0480
0880
0000
ENDCHAR
STARTCHAR 57B0
ENCODING 22448
SWIDTH 720 0
DWIDTH 12 0
BBX 12 10 0 -1
BITMAP
2100
21C0
F100
27E0
2000
37E0
C180
0140
0100
0000
ENDCHAR
STARTCHAR 57B3
ENCODING 22451
SWIDTH 720 0
DWIDTH 12 0
BBX 12 10 0 -1
BITMAP
2200
24E0
FA00
25E0
2C40
3440
C440
0440
04C0
0000
ENDCHAR
STARTCHAR 57C0
ENCODING 22464
SWIDTH 720 0
DWIDTH 12 0
BBX 12 10 0 -1
BITMAP
0300
3C00
FFE0
1500
F5E0
3500
D4E0
0400
FFE0
0000
ENDCHAR
STARTCHAR 57C3
ENCODING 22467
SWIDTH 720 0
DWIDTH 12 0
BBX 12 10 0 -1
BITMAP
2100
2240
F7E0
2420
27C0
3900
CFE0
0280
0C60
0000
ENDCHAR
ENDFONT
